%TF.GenerationSoftware,KiCad,Pcbnew,7.0.8-7.0.8~ubuntu22.04.1*%
%TF.CreationDate,2023-10-22T16:35:48+11:00*%
%TF.ProjectId,usbcontroller-c64,75736263-6f6e-4747-926f-6c6c65722d63,v01*%
%TF.SameCoordinates,Original*%
%TF.FileFunction,Soldermask,Top*%
%TF.FilePolarity,Negative*%
%FSLAX46Y46*%
G04 Gerber Fmt 4.6, Leading zero omitted, Abs format (unit mm)*
G04 Created by KiCad (PCBNEW 7.0.8-7.0.8~ubuntu22.04.1) date 2023-10-22 16:35:48*
%MOMM*%
%LPD*%
G01*
G04 APERTURE LIST*
%ADD10R,1.700000X1.700000*%
%ADD11O,1.700000X1.700000*%
%ADD12R,1.050000X1.500000*%
%ADD13O,1.050000X1.500000*%
%ADD14C,1.600000*%
%ADD15O,1.600000X1.600000*%
G04 APERTURE END LIST*
D10*
%TO.C,J1*%
X143510000Y-93726000D03*
D11*
X143510000Y-96266000D03*
X143510000Y-98806000D03*
X143510000Y-101346000D03*
X143510000Y-103886000D03*
X143510000Y-106426000D03*
X143510000Y-108966000D03*
X143510000Y-111506000D03*
X143510000Y-114046000D03*
X143510000Y-116586000D03*
X143510000Y-119126000D03*
X143510000Y-121666000D03*
X143510000Y-124206000D03*
X143510000Y-126746000D03*
X143510000Y-129286000D03*
X143510000Y-131826000D03*
X143510000Y-134366000D03*
X143510000Y-136906000D03*
X143510000Y-139446000D03*
X143510000Y-141986000D03*
%TD*%
D12*
%TO.C,Q5*%
X157378400Y-123469400D03*
D13*
X156108400Y-123469400D03*
X154838400Y-123469400D03*
%TD*%
D12*
%TO.C,Q3*%
X150114000Y-123465000D03*
D13*
X148844000Y-123465000D03*
X147574000Y-123465000D03*
%TD*%
D14*
%TO.C,R2*%
X151892000Y-101473000D03*
D15*
X151892000Y-111633000D03*
%TD*%
D12*
%TO.C,Q1*%
X150114000Y-135530000D03*
D13*
X148844000Y-135530000D03*
X147574000Y-135530000D03*
%TD*%
D10*
%TO.C,J3*%
X146227800Y-146812000D03*
D11*
X148767800Y-146812000D03*
X151307800Y-146812000D03*
X153847800Y-146812000D03*
X156387800Y-146812000D03*
X158927800Y-146812000D03*
%TD*%
D10*
%TO.C,J4*%
X157149800Y-90805000D03*
D11*
X154609800Y-90805000D03*
%TD*%
D14*
%TO.C,R1*%
X147701000Y-95250000D03*
D15*
X147701000Y-105410000D03*
%TD*%
D14*
%TO.C,R3*%
X147828000Y-107950000D03*
D15*
X147828000Y-118110000D03*
%TD*%
D12*
%TO.C,Q2*%
X153924000Y-129413000D03*
D13*
X152654000Y-129413000D03*
X151384000Y-129413000D03*
%TD*%
D14*
%TO.C,R4*%
X156337000Y-95123000D03*
D15*
X156337000Y-105283000D03*
%TD*%
D14*
%TO.C,R5*%
X156337000Y-107823000D03*
D15*
X156337000Y-117983000D03*
%TD*%
D12*
%TO.C,Q4*%
X157378400Y-135534400D03*
D13*
X156108400Y-135534400D03*
X154838400Y-135534400D03*
%TD*%
D10*
%TO.C,J5*%
X147751800Y-90957400D03*
D11*
X150291800Y-90957400D03*
%TD*%
D10*
%TO.C,J2*%
X161290000Y-93726000D03*
D11*
X161290000Y-96266000D03*
X161290000Y-98806000D03*
X161290000Y-101346000D03*
X161290000Y-103886000D03*
X161290000Y-106426000D03*
X161290000Y-108966000D03*
X161290000Y-111506000D03*
X161290000Y-114046000D03*
X161290000Y-116586000D03*
X161290000Y-119126000D03*
X161290000Y-121666000D03*
X161290000Y-124206000D03*
X161290000Y-126746000D03*
X161290000Y-129286000D03*
X161290000Y-131826000D03*
X161290000Y-134366000D03*
X161290000Y-136906000D03*
X161290000Y-139446000D03*
X161290000Y-141986000D03*
%TD*%
M02*
