M48
; DRILL file {KiCad 7.0.8-7.0.8~ubuntu22.04.1} date Sun 22 Oct 2023 16:36:37
; FORMAT={-:-/ absolute / inch / decimal}
; #@! TF.CreationDate,2023-10-22T16:36:37+11:00
; #@! TF.GenerationSoftware,Kicad,Pcbnew,7.0.8-7.0.8~ubuntu22.04.1
; #@! TF.FileFunction,MixedPlating,1,2
FMAT,2
INCH
; #@! TA.AperFunction,Plated,PTH,ComponentDrill
T1C0.0295
; #@! TA.AperFunction,Plated,PTH,ComponentDrill
T2C0.0315
; #@! TA.AperFunction,Plated,PTH,ComponentDrill
T3C0.0394
%
G90
G05
T1
X5.81Y-4.8608
X5.81Y-5.3358
X5.86Y-4.8608
X5.86Y-5.3358
X5.91Y-4.8608
X5.91Y-5.3358
X5.96Y-5.095
X6.01Y-5.095
X6.06Y-5.095
X6.096Y-4.861
X6.096Y-5.336
X6.146Y-4.861
X6.146Y-5.336
X6.196Y-4.861
X6.196Y-5.336
T2
X5.815Y-3.75
X5.815Y-4.15
X5.82Y-4.25
X5.82Y-4.65
X5.98Y-3.995
X5.98Y-4.395
X6.155Y-3.745
X6.155Y-4.145
X6.155Y-4.245
X6.155Y-4.645
T3
X5.65Y-3.69
X5.65Y-3.79
X5.65Y-3.89
X5.65Y-3.99
X5.65Y-4.09
X5.65Y-4.19
X5.65Y-4.29
X5.65Y-4.39
X5.65Y-4.49
X5.65Y-4.59
X5.65Y-4.69
X5.65Y-4.79
X5.65Y-4.89
X5.65Y-4.99
X5.65Y-5.09
X5.65Y-5.19
X5.65Y-5.29
X5.65Y-5.39
X5.65Y-5.49
X5.65Y-5.59
X5.757Y-5.78
X5.817Y-3.581
X5.857Y-5.78
X5.917Y-3.581
X5.957Y-5.78
X6.057Y-5.78
X6.087Y-3.575
X6.157Y-5.78
X6.187Y-3.575
X6.257Y-5.78
X6.35Y-3.69
X6.35Y-3.79
X6.35Y-3.89
X6.35Y-3.99
X6.35Y-4.09
X6.35Y-4.19
X6.35Y-4.29
X6.35Y-4.39
X6.35Y-4.49
X6.35Y-4.59
X6.35Y-4.69
X6.35Y-4.79
X6.35Y-4.89
X6.35Y-4.99
X6.35Y-5.09
X6.35Y-5.19
X6.35Y-5.29
X6.35Y-5.39
X6.35Y-5.49
X6.35Y-5.59
T0
M30
