%TF.GenerationSoftware,KiCad,Pcbnew,7.0.8-7.0.8~ubuntu22.04.1*%
%TF.CreationDate,2023-10-22T16:35:48+11:00*%
%TF.ProjectId,usbcontroller-c64,75736263-6f6e-4747-926f-6c6c65722d63,v01*%
%TF.SameCoordinates,Original*%
%TF.FileFunction,Legend,Top*%
%TF.FilePolarity,Positive*%
%FSLAX46Y46*%
G04 Gerber Fmt 4.6, Leading zero omitted, Abs format (unit mm)*
G04 Created by KiCad (PCBNEW 7.0.8-7.0.8~ubuntu22.04.1) date 2023-10-22 16:35:48*
%MOMM*%
%LPD*%
G01*
G04 APERTURE LIST*
%ADD10C,0.150000*%
%ADD11C,0.120000*%
G04 APERTURE END LIST*
D10*
X145915770Y-144056219D02*
X145915770Y-144865742D01*
X145915770Y-144865742D02*
X145963389Y-144960980D01*
X145963389Y-144960980D02*
X146011008Y-145008600D01*
X146011008Y-145008600D02*
X146106246Y-145056219D01*
X146106246Y-145056219D02*
X146296722Y-145056219D01*
X146296722Y-145056219D02*
X146391960Y-145008600D01*
X146391960Y-145008600D02*
X146439579Y-144960980D01*
X146439579Y-144960980D02*
X146487198Y-144865742D01*
X146487198Y-144865742D02*
X146487198Y-144056219D01*
X153514588Y-92592638D02*
X153419350Y-92545019D01*
X153419350Y-92545019D02*
X153276493Y-92545019D01*
X153276493Y-92545019D02*
X153133636Y-92592638D01*
X153133636Y-92592638D02*
X153038398Y-92687876D01*
X153038398Y-92687876D02*
X152990779Y-92783114D01*
X152990779Y-92783114D02*
X152943160Y-92973590D01*
X152943160Y-92973590D02*
X152943160Y-93116447D01*
X152943160Y-93116447D02*
X152990779Y-93306923D01*
X152990779Y-93306923D02*
X153038398Y-93402161D01*
X153038398Y-93402161D02*
X153133636Y-93497400D01*
X153133636Y-93497400D02*
X153276493Y-93545019D01*
X153276493Y-93545019D02*
X153371731Y-93545019D01*
X153371731Y-93545019D02*
X153514588Y-93497400D01*
X153514588Y-93497400D02*
X153562207Y-93449780D01*
X153562207Y-93449780D02*
X153562207Y-93116447D01*
X153562207Y-93116447D02*
X153371731Y-93116447D01*
X153990779Y-93545019D02*
X153990779Y-92545019D01*
X153990779Y-92545019D02*
X154562207Y-93545019D01*
X154562207Y-93545019D02*
X154562207Y-92545019D01*
X155038398Y-93545019D02*
X155038398Y-92545019D01*
X155038398Y-92545019D02*
X155276493Y-92545019D01*
X155276493Y-92545019D02*
X155419350Y-92592638D01*
X155419350Y-92592638D02*
X155514588Y-92687876D01*
X155514588Y-92687876D02*
X155562207Y-92783114D01*
X155562207Y-92783114D02*
X155609826Y-92973590D01*
X155609826Y-92973590D02*
X155609826Y-93116447D01*
X155609826Y-93116447D02*
X155562207Y-93306923D01*
X155562207Y-93306923D02*
X155514588Y-93402161D01*
X155514588Y-93402161D02*
X155419350Y-93497400D01*
X155419350Y-93497400D02*
X155276493Y-93545019D01*
X155276493Y-93545019D02*
X155038398Y-93545019D01*
X154131007Y-145056219D02*
X153797674Y-144580028D01*
X153559579Y-145056219D02*
X153559579Y-144056219D01*
X153559579Y-144056219D02*
X153940531Y-144056219D01*
X153940531Y-144056219D02*
X154035769Y-144103838D01*
X154035769Y-144103838D02*
X154083388Y-144151457D01*
X154083388Y-144151457D02*
X154131007Y-144246695D01*
X154131007Y-144246695D02*
X154131007Y-144389552D01*
X154131007Y-144389552D02*
X154083388Y-144484790D01*
X154083388Y-144484790D02*
X154035769Y-144532409D01*
X154035769Y-144532409D02*
X153940531Y-144580028D01*
X153940531Y-144580028D02*
X153559579Y-144580028D01*
X150514207Y-93545019D02*
X150180874Y-93068828D01*
X149942779Y-93545019D02*
X149942779Y-92545019D01*
X149942779Y-92545019D02*
X150323731Y-92545019D01*
X150323731Y-92545019D02*
X150418969Y-92592638D01*
X150418969Y-92592638D02*
X150466588Y-92640257D01*
X150466588Y-92640257D02*
X150514207Y-92735495D01*
X150514207Y-92735495D02*
X150514207Y-92878352D01*
X150514207Y-92878352D02*
X150466588Y-92973590D01*
X150466588Y-92973590D02*
X150418969Y-93021209D01*
X150418969Y-93021209D02*
X150323731Y-93068828D01*
X150323731Y-93068828D02*
X149942779Y-93068828D01*
X150847541Y-93545019D02*
X151371350Y-92878352D01*
X150847541Y-92878352D02*
X151371350Y-93545019D01*
X156353122Y-92545019D02*
X156686455Y-93545019D01*
X156686455Y-93545019D02*
X157019788Y-92545019D01*
X157686455Y-93021209D02*
X157829312Y-93068828D01*
X157829312Y-93068828D02*
X157876931Y-93116447D01*
X157876931Y-93116447D02*
X157924550Y-93211685D01*
X157924550Y-93211685D02*
X157924550Y-93354542D01*
X157924550Y-93354542D02*
X157876931Y-93449780D01*
X157876931Y-93449780D02*
X157829312Y-93497400D01*
X157829312Y-93497400D02*
X157734074Y-93545019D01*
X157734074Y-93545019D02*
X157353122Y-93545019D01*
X157353122Y-93545019D02*
X157353122Y-92545019D01*
X157353122Y-92545019D02*
X157686455Y-92545019D01*
X157686455Y-92545019D02*
X157781693Y-92592638D01*
X157781693Y-92592638D02*
X157829312Y-92640257D01*
X157829312Y-92640257D02*
X157876931Y-92735495D01*
X157876931Y-92735495D02*
X157876931Y-92830733D01*
X157876931Y-92830733D02*
X157829312Y-92925971D01*
X157829312Y-92925971D02*
X157781693Y-92973590D01*
X157781693Y-92973590D02*
X157686455Y-93021209D01*
X157686455Y-93021209D02*
X157353122Y-93021209D01*
X158353122Y-92545019D02*
X158353122Y-93354542D01*
X158353122Y-93354542D02*
X158400741Y-93449780D01*
X158400741Y-93449780D02*
X158448360Y-93497400D01*
X158448360Y-93497400D02*
X158543598Y-93545019D01*
X158543598Y-93545019D02*
X158734074Y-93545019D01*
X158734074Y-93545019D02*
X158829312Y-93497400D01*
X158829312Y-93497400D02*
X158876931Y-93449780D01*
X158876931Y-93449780D02*
X158924550Y-93354542D01*
X158924550Y-93354542D02*
X158924550Y-92545019D01*
X159353122Y-93497400D02*
X159495979Y-93545019D01*
X159495979Y-93545019D02*
X159734074Y-93545019D01*
X159734074Y-93545019D02*
X159829312Y-93497400D01*
X159829312Y-93497400D02*
X159876931Y-93449780D01*
X159876931Y-93449780D02*
X159924550Y-93354542D01*
X159924550Y-93354542D02*
X159924550Y-93259304D01*
X159924550Y-93259304D02*
X159876931Y-93164066D01*
X159876931Y-93164066D02*
X159829312Y-93116447D01*
X159829312Y-93116447D02*
X159734074Y-93068828D01*
X159734074Y-93068828D02*
X159543598Y-93021209D01*
X159543598Y-93021209D02*
X159448360Y-92973590D01*
X159448360Y-92973590D02*
X159400741Y-92925971D01*
X159400741Y-92925971D02*
X159353122Y-92830733D01*
X159353122Y-92830733D02*
X159353122Y-92735495D01*
X159353122Y-92735495D02*
X159400741Y-92640257D01*
X159400741Y-92640257D02*
X159448360Y-92592638D01*
X159448360Y-92592638D02*
X159543598Y-92545019D01*
X159543598Y-92545019D02*
X159781693Y-92545019D01*
X159781693Y-92545019D02*
X159924550Y-92592638D01*
X147056722Y-92545019D02*
X147628150Y-92545019D01*
X147342436Y-93545019D02*
X147342436Y-92545019D01*
X147866246Y-93545019D02*
X148390055Y-92878352D01*
X147866246Y-92878352D02*
X148390055Y-93545019D01*
X158446988Y-144572311D02*
X158399369Y-144667549D01*
X158399369Y-144667549D02*
X158399369Y-144810406D01*
X158399369Y-144810406D02*
X158446988Y-144953263D01*
X158446988Y-144953263D02*
X158542226Y-145048501D01*
X158542226Y-145048501D02*
X158637464Y-145096120D01*
X158637464Y-145096120D02*
X158827940Y-145143739D01*
X158827940Y-145143739D02*
X158970797Y-145143739D01*
X158970797Y-145143739D02*
X159161273Y-145096120D01*
X159161273Y-145096120D02*
X159256511Y-145048501D01*
X159256511Y-145048501D02*
X159351750Y-144953263D01*
X159351750Y-144953263D02*
X159399369Y-144810406D01*
X159399369Y-144810406D02*
X159399369Y-144715168D01*
X159399369Y-144715168D02*
X159351750Y-144572311D01*
X159351750Y-144572311D02*
X159304130Y-144524692D01*
X159304130Y-144524692D02*
X158970797Y-144524692D01*
X158970797Y-144524692D02*
X158970797Y-144715168D01*
X159399369Y-144096120D02*
X158399369Y-144096120D01*
X158399369Y-144096120D02*
X159399369Y-143524692D01*
X159399369Y-143524692D02*
X158399369Y-143524692D01*
X159399369Y-143048501D02*
X158399369Y-143048501D01*
X158399369Y-143048501D02*
X158399369Y-142810406D01*
X158399369Y-142810406D02*
X158446988Y-142667549D01*
X158446988Y-142667549D02*
X158542226Y-142572311D01*
X158542226Y-142572311D02*
X158637464Y-142524692D01*
X158637464Y-142524692D02*
X158827940Y-142477073D01*
X158827940Y-142477073D02*
X158970797Y-142477073D01*
X158970797Y-142477073D02*
X159161273Y-142524692D01*
X159161273Y-142524692D02*
X159256511Y-142572311D01*
X159256511Y-142572311D02*
X159351750Y-142667549D01*
X159351750Y-142667549D02*
X159399369Y-142810406D01*
X159399369Y-142810406D02*
X159399369Y-143048501D01*
X156504341Y-144532409D02*
X156171008Y-144532409D01*
X156171008Y-145056219D02*
X156171008Y-144056219D01*
X156171008Y-144056219D02*
X156647198Y-144056219D01*
X151591007Y-145056219D02*
X151114817Y-145056219D01*
X151114817Y-145056219D02*
X151114817Y-144056219D01*
X148479579Y-145056219D02*
X148479579Y-144056219D01*
X148479579Y-144056219D02*
X148717674Y-144056219D01*
X148717674Y-144056219D02*
X148860531Y-144103838D01*
X148860531Y-144103838D02*
X148955769Y-144199076D01*
X148955769Y-144199076D02*
X149003388Y-144294314D01*
X149003388Y-144294314D02*
X149051007Y-144484790D01*
X149051007Y-144484790D02*
X149051007Y-144627647D01*
X149051007Y-144627647D02*
X149003388Y-144818123D01*
X149003388Y-144818123D02*
X148955769Y-144913361D01*
X148955769Y-144913361D02*
X148860531Y-145008600D01*
X148860531Y-145008600D02*
X148717674Y-145056219D01*
X148717674Y-145056219D02*
X148479579Y-145056219D01*
D11*
%TO.C,J1*%
X142180000Y-94996000D02*
X142180000Y-143316000D01*
X142180000Y-94996000D02*
X144840000Y-94996000D01*
X142180000Y-143316000D02*
X144840000Y-143316000D01*
X143510000Y-92396000D02*
X144840000Y-92396000D01*
X144840000Y-92396000D02*
X144840000Y-93726000D01*
X144840000Y-94996000D02*
X144840000Y-143316000D01*
%TO.C,Q5*%
X157908400Y-121619400D02*
X154308400Y-121619400D01*
X156108400Y-126069400D02*
G75*
G03*
X157946878Y-121630922I0J2600000D01*
G01*
X154269922Y-121630922D02*
G75*
G03*
X156108400Y-126069400I1838478J-1838478D01*
G01*
%TO.C,Q3*%
X150644000Y-121615000D02*
X147044000Y-121615000D01*
X148844000Y-126065000D02*
G75*
G03*
X150682478Y-121626522I0J2600000D01*
G01*
X147005522Y-121626522D02*
G75*
G03*
X148844000Y-126065000I1838478J-1838478D01*
G01*
%TO.C,R2*%
X151892000Y-102513000D02*
X151892000Y-103283000D01*
X153262000Y-103283000D02*
X150522000Y-103283000D01*
X150522000Y-103283000D02*
X150522000Y-109823000D01*
X153262000Y-109823000D02*
X153262000Y-103283000D01*
X150522000Y-109823000D02*
X153262000Y-109823000D01*
X151892000Y-110593000D02*
X151892000Y-109823000D01*
%TO.C,Q1*%
X150644000Y-133680000D02*
X147044000Y-133680000D01*
X148844000Y-138130000D02*
G75*
G03*
X150682478Y-133691522I0J2600000D01*
G01*
X147005522Y-133691522D02*
G75*
G03*
X148844000Y-138130000I1838478J-1838478D01*
G01*
%TO.C,J3*%
X147497800Y-148142000D02*
X160257800Y-148142000D01*
X147497800Y-148142000D02*
X147497800Y-145482000D01*
X160257800Y-148142000D02*
X160257800Y-145482000D01*
X144897800Y-146812000D02*
X144897800Y-145482000D01*
X144897800Y-145482000D02*
X146227800Y-145482000D01*
X147497800Y-145482000D02*
X160257800Y-145482000D01*
%TO.C,J4*%
X155879800Y-89475000D02*
X153279800Y-89475000D01*
X155879800Y-89475000D02*
X155879800Y-92135000D01*
X153279800Y-89475000D02*
X153279800Y-92135000D01*
X158479800Y-90805000D02*
X158479800Y-92135000D01*
X158479800Y-92135000D02*
X157149800Y-92135000D01*
X155879800Y-92135000D02*
X153279800Y-92135000D01*
%TO.C,R1*%
X147701000Y-96290000D02*
X147701000Y-97060000D01*
X149071000Y-97060000D02*
X146331000Y-97060000D01*
X146331000Y-97060000D02*
X146331000Y-103600000D01*
X149071000Y-103600000D02*
X149071000Y-97060000D01*
X146331000Y-103600000D02*
X149071000Y-103600000D01*
X147701000Y-104370000D02*
X147701000Y-103600000D01*
%TO.C,R3*%
X147828000Y-108990000D02*
X147828000Y-109760000D01*
X149198000Y-109760000D02*
X146458000Y-109760000D01*
X146458000Y-109760000D02*
X146458000Y-116300000D01*
X149198000Y-116300000D02*
X149198000Y-109760000D01*
X146458000Y-116300000D02*
X149198000Y-116300000D01*
X147828000Y-117070000D02*
X147828000Y-116300000D01*
%TO.C,Q2*%
X154454000Y-127563000D02*
X150854000Y-127563000D01*
X152654000Y-132013000D02*
G75*
G03*
X154492478Y-127574522I0J2600000D01*
G01*
X150815522Y-127574522D02*
G75*
G03*
X152654000Y-132013000I1838478J-1838478D01*
G01*
%TO.C,R4*%
X156337000Y-96163000D02*
X156337000Y-96933000D01*
X157707000Y-96933000D02*
X154967000Y-96933000D01*
X154967000Y-96933000D02*
X154967000Y-103473000D01*
X157707000Y-103473000D02*
X157707000Y-96933000D01*
X154967000Y-103473000D02*
X157707000Y-103473000D01*
X156337000Y-104243000D02*
X156337000Y-103473000D01*
%TO.C,R5*%
X156337000Y-108863000D02*
X156337000Y-109633000D01*
X157707000Y-109633000D02*
X154967000Y-109633000D01*
X154967000Y-109633000D02*
X154967000Y-116173000D01*
X157707000Y-116173000D02*
X157707000Y-109633000D01*
X154967000Y-116173000D02*
X157707000Y-116173000D01*
X156337000Y-116943000D02*
X156337000Y-116173000D01*
%TO.C,Q4*%
X157908400Y-133684400D02*
X154308400Y-133684400D01*
X156108400Y-138134400D02*
G75*
G03*
X157946878Y-133695922I0J2600000D01*
G01*
X154269922Y-133695922D02*
G75*
G03*
X156108400Y-138134400I1838478J-1838478D01*
G01*
%TO.C,J5*%
X149021800Y-92287400D02*
X151621800Y-92287400D01*
X149021800Y-92287400D02*
X149021800Y-89627400D01*
X151621800Y-92287400D02*
X151621800Y-89627400D01*
X146421800Y-90957400D02*
X146421800Y-89627400D01*
X146421800Y-89627400D02*
X147751800Y-89627400D01*
X149021800Y-89627400D02*
X151621800Y-89627400D01*
%TO.C,J2*%
X159960000Y-94996000D02*
X159960000Y-143316000D01*
X159960000Y-94996000D02*
X162620000Y-94996000D01*
X159960000Y-143316000D02*
X162620000Y-143316000D01*
X161290000Y-92396000D02*
X162620000Y-92396000D01*
X162620000Y-92396000D02*
X162620000Y-93726000D01*
X162620000Y-94996000D02*
X162620000Y-143316000D01*
%TD*%
M02*
