%TF.GenerationSoftware,KiCad,Pcbnew,7.0.9-7.0.9~ubuntu22.04.1*%
%TF.CreationDate,2023-11-26T13:03:37+11:00*%
%TF.ProjectId,usbcontroller-c64,75736263-6f6e-4747-926f-6c6c65722d63,v02*%
%TF.SameCoordinates,Original*%
%TF.FileFunction,Soldermask,Bot*%
%TF.FilePolarity,Negative*%
%FSLAX46Y46*%
G04 Gerber Fmt 4.6, Leading zero omitted, Abs format (unit mm)*
G04 Created by KiCad (PCBNEW 7.0.9-7.0.9~ubuntu22.04.1) date 2023-11-26 13:03:37*
%MOMM*%
%LPD*%
G01*
G04 APERTURE LIST*
%ADD10C,4.000000*%
%ADD11R,1.600000X1.600000*%
%ADD12C,1.600000*%
%ADD13R,1.700000X1.700000*%
%ADD14O,1.700000X1.700000*%
%ADD15R,1.050000X1.500000*%
%ADD16O,1.050000X1.500000*%
%ADD17O,1.600000X1.600000*%
G04 APERTURE END LIST*
D10*
%TO.C,J6*%
X143008800Y-147862869D03*
X168008800Y-147862869D03*
D11*
X161048800Y-146442869D03*
D12*
X158278800Y-146442869D03*
X155508800Y-146442869D03*
X152738800Y-146442869D03*
X149968800Y-146442869D03*
X159663800Y-149282869D03*
X156893800Y-149282869D03*
X154123800Y-149282869D03*
X151353800Y-149282869D03*
%TD*%
D13*
%TO.C,J1*%
X146610000Y-93726000D03*
D14*
X146610000Y-96266000D03*
X146610000Y-98806000D03*
X146610000Y-101346000D03*
X146610000Y-103886000D03*
X146610000Y-106426000D03*
X146610000Y-108966000D03*
X146610000Y-111506000D03*
X146610000Y-114046000D03*
X146610000Y-116586000D03*
X146610000Y-119126000D03*
X146610000Y-121666000D03*
X146610000Y-124206000D03*
X146610000Y-126746000D03*
X146610000Y-129286000D03*
X146610000Y-131826000D03*
X146610000Y-134366000D03*
X146610000Y-136906000D03*
X146610000Y-139446000D03*
X146610000Y-141986000D03*
%TD*%
D15*
%TO.C,Q5*%
X160680400Y-124185000D03*
D16*
X159410400Y-124185000D03*
X158140400Y-124185000D03*
%TD*%
D15*
%TO.C,Q3*%
X153416000Y-124180600D03*
D16*
X152146000Y-124180600D03*
X150876000Y-124180600D03*
%TD*%
D12*
%TO.C,R2*%
X155194000Y-101468600D03*
D17*
X155194000Y-111628600D03*
%TD*%
D15*
%TO.C,Q1*%
X153314400Y-138014800D03*
D16*
X152044400Y-138014800D03*
X150774400Y-138014800D03*
%TD*%
D12*
%TO.C,R1*%
X151003000Y-95245600D03*
D17*
X151003000Y-105405600D03*
%TD*%
D12*
%TO.C,R3*%
X151130000Y-107945600D03*
D17*
X151130000Y-118105600D03*
%TD*%
D15*
%TO.C,Q2*%
X157175200Y-130907200D03*
D16*
X155905200Y-130907200D03*
X154635200Y-130907200D03*
%TD*%
D12*
%TO.C,R4*%
X159639000Y-95118600D03*
D17*
X159639000Y-105278600D03*
%TD*%
D12*
%TO.C,R5*%
X159639000Y-107818600D03*
D17*
X159639000Y-117978600D03*
%TD*%
D15*
%TO.C,Q4*%
X160578800Y-138019200D03*
D16*
X159308800Y-138019200D03*
X158038800Y-138019200D03*
%TD*%
D13*
%TO.C,J5*%
X143002000Y-93726000D03*
D14*
X143002000Y-96266000D03*
%TD*%
D13*
%TO.C,J2*%
X164390000Y-93726000D03*
D14*
X164390000Y-96266000D03*
X164390000Y-98806000D03*
X164390000Y-101346000D03*
X164390000Y-103886000D03*
X164390000Y-106426000D03*
X164390000Y-108966000D03*
X164390000Y-111506000D03*
X164390000Y-114046000D03*
X164390000Y-116586000D03*
X164390000Y-119126000D03*
X164390000Y-121666000D03*
X164390000Y-124206000D03*
X164390000Y-126746000D03*
X164390000Y-129286000D03*
X164390000Y-131826000D03*
X164390000Y-134366000D03*
X164390000Y-136906000D03*
X164390000Y-139446000D03*
X164390000Y-141986000D03*
%TD*%
M02*
