%TF.GenerationSoftware,KiCad,Pcbnew,7.0.8-7.0.8~ubuntu22.04.1*%
%TF.CreationDate,2023-10-22T16:35:48+11:00*%
%TF.ProjectId,usbcontroller-c64,75736263-6f6e-4747-926f-6c6c65722d63,v01*%
%TF.SameCoordinates,Original*%
%TF.FileFunction,Copper,L2,Bot*%
%TF.FilePolarity,Positive*%
%FSLAX46Y46*%
G04 Gerber Fmt 4.6, Leading zero omitted, Abs format (unit mm)*
G04 Created by KiCad (PCBNEW 7.0.8-7.0.8~ubuntu22.04.1) date 2023-10-22 16:35:48*
%MOMM*%
%LPD*%
G01*
G04 APERTURE LIST*
%TA.AperFunction,ComponentPad*%
%ADD10R,1.700000X1.700000*%
%TD*%
%TA.AperFunction,ComponentPad*%
%ADD11O,1.700000X1.700000*%
%TD*%
%TA.AperFunction,ComponentPad*%
%ADD12R,1.050000X1.500000*%
%TD*%
%TA.AperFunction,ComponentPad*%
%ADD13O,1.050000X1.500000*%
%TD*%
%TA.AperFunction,ComponentPad*%
%ADD14C,1.600000*%
%TD*%
%TA.AperFunction,ComponentPad*%
%ADD15O,1.600000X1.600000*%
%TD*%
G04 APERTURE END LIST*
D10*
%TO.P,J1,1,Pin_1*%
%TO.N,Net-(J1-Pin_1)*%
X143510000Y-93726000D03*
D11*
%TO.P,J1,2,Pin_2*%
%TO.N,Net-(J1-Pin_2)*%
X143510000Y-96266000D03*
%TO.P,J1,3,Pin_3*%
%TO.N,unconnected-(J1-Pin_3-Pad3)*%
X143510000Y-98806000D03*
%TO.P,J1,4,Pin_4*%
%TO.N,Net-(J1-Pin_4)*%
X143510000Y-101346000D03*
%TO.P,J1,5,Pin_5*%
%TO.N,Net-(J1-Pin_5)*%
X143510000Y-103886000D03*
%TO.P,J1,6,Pin_6*%
%TO.N,Net-(J1-Pin_6)*%
X143510000Y-106426000D03*
%TO.P,J1,7,Pin_7*%
%TO.N,unconnected-(J1-Pin_7-Pad7)*%
X143510000Y-108966000D03*
%TO.P,J1,8,Pin_8*%
%TO.N,unconnected-(J1-Pin_8-Pad8)*%
X143510000Y-111506000D03*
%TO.P,J1,9,Pin_9*%
%TO.N,unconnected-(J1-Pin_9-Pad9)*%
X143510000Y-114046000D03*
%TO.P,J1,10,Pin_10*%
%TO.N,unconnected-(J1-Pin_10-Pad10)*%
X143510000Y-116586000D03*
%TO.P,J1,11,Pin_11*%
%TO.N,unconnected-(J1-Pin_11-Pad11)*%
X143510000Y-119126000D03*
%TO.P,J1,12,Pin_12*%
%TO.N,unconnected-(J1-Pin_12-Pad12)*%
X143510000Y-121666000D03*
%TO.P,J1,13,Pin_13*%
%TO.N,unconnected-(J1-Pin_13-Pad13)*%
X143510000Y-124206000D03*
%TO.P,J1,14,Pin_14*%
%TO.N,unconnected-(J1-Pin_14-Pad14)*%
X143510000Y-126746000D03*
%TO.P,J1,15,Pin_15*%
%TO.N,unconnected-(J1-Pin_15-Pad15)*%
X143510000Y-129286000D03*
%TO.P,J1,16,Pin_16*%
%TO.N,unconnected-(J1-Pin_16-Pad16)*%
X143510000Y-131826000D03*
%TO.P,J1,17,Pin_17*%
%TO.N,unconnected-(J1-Pin_17-Pad17)*%
X143510000Y-134366000D03*
%TO.P,J1,18,Pin_18*%
%TO.N,unconnected-(J1-Pin_18-Pad18)*%
X143510000Y-136906000D03*
%TO.P,J1,19,Pin_19*%
%TO.N,unconnected-(J1-Pin_19-Pad19)*%
X143510000Y-139446000D03*
%TO.P,J1,20,Pin_20*%
%TO.N,unconnected-(J1-Pin_20-Pad20)*%
X143510000Y-141986000D03*
%TD*%
D12*
%TO.P,Q5,1,E*%
%TO.N,GND*%
X157378400Y-123469400D03*
D13*
%TO.P,Q5,2,B*%
%TO.N,Net-(Q5-B)*%
X156108400Y-123469400D03*
%TO.P,Q5,3,C*%
%TO.N,Net-(J3-Pin_4)*%
X154838400Y-123469400D03*
%TD*%
D12*
%TO.P,Q3,1,E*%
%TO.N,GND*%
X150114000Y-123465000D03*
D13*
%TO.P,Q3,2,B*%
%TO.N,Net-(Q3-B)*%
X148844000Y-123465000D03*
%TO.P,Q3,3,C*%
%TO.N,Net-(J3-Pin_1)*%
X147574000Y-123465000D03*
%TD*%
D14*
%TO.P,R2,1*%
%TO.N,Net-(J1-Pin_5)*%
X151892000Y-101473000D03*
D15*
%TO.P,R2,2*%
%TO.N,Net-(Q2-B)*%
X151892000Y-111633000D03*
%TD*%
D12*
%TO.P,Q1,1,E*%
%TO.N,GND*%
X150114000Y-135530000D03*
D13*
%TO.P,Q1,2,B*%
%TO.N,Net-(Q1-B)*%
X148844000Y-135530000D03*
%TO.P,Q1,3,C*%
%TO.N,Net-(J3-Pin_2)*%
X147574000Y-135530000D03*
%TD*%
D10*
%TO.P,J3,1,Pin_1*%
%TO.N,Net-(J3-Pin_1)*%
X146227800Y-146812000D03*
D11*
%TO.P,J3,2,Pin_2*%
%TO.N,Net-(J3-Pin_2)*%
X148767800Y-146812000D03*
%TO.P,J3,3,Pin_3*%
%TO.N,Net-(J3-Pin_3)*%
X151307800Y-146812000D03*
%TO.P,J3,4,Pin_4*%
%TO.N,Net-(J3-Pin_4)*%
X153847800Y-146812000D03*
%TO.P,J3,5,Pin_5*%
%TO.N,Net-(J3-Pin_5)*%
X156387800Y-146812000D03*
%TO.P,J3,6,Pin_6*%
%TO.N,GND*%
X158927800Y-146812000D03*
%TD*%
D10*
%TO.P,J4,1,Pin_1*%
%TO.N,Net-(J2-Pin_1)*%
X157149800Y-90805000D03*
D11*
%TO.P,J4,2,Pin_2*%
%TO.N,Net-(J2-Pin_3)*%
X154609800Y-90805000D03*
%TD*%
D14*
%TO.P,R1,1*%
%TO.N,Net-(J1-Pin_4)*%
X147701000Y-95250000D03*
D15*
%TO.P,R1,2*%
%TO.N,Net-(Q1-B)*%
X147701000Y-105410000D03*
%TD*%
D14*
%TO.P,R3,1*%
%TO.N,Net-(J1-Pin_6)*%
X147828000Y-107950000D03*
D15*
%TO.P,R3,2*%
%TO.N,Net-(Q3-B)*%
X147828000Y-118110000D03*
%TD*%
D12*
%TO.P,Q2,1,E*%
%TO.N,GND*%
X153924000Y-129413000D03*
D13*
%TO.P,Q2,2,B*%
%TO.N,Net-(Q2-B)*%
X152654000Y-129413000D03*
%TO.P,Q2,3,C*%
%TO.N,Net-(J3-Pin_3)*%
X151384000Y-129413000D03*
%TD*%
D14*
%TO.P,R4,1*%
%TO.N,Net-(J2-Pin_7)*%
X156337000Y-95123000D03*
D15*
%TO.P,R4,2*%
%TO.N,Net-(Q4-B)*%
X156337000Y-105283000D03*
%TD*%
D14*
%TO.P,R5,1*%
%TO.N,Net-(J2-Pin_9)*%
X156337000Y-107823000D03*
D15*
%TO.P,R5,2*%
%TO.N,Net-(Q5-B)*%
X156337000Y-117983000D03*
%TD*%
D12*
%TO.P,Q4,1,E*%
%TO.N,GND*%
X157378400Y-135534400D03*
D13*
%TO.P,Q4,2,B*%
%TO.N,Net-(Q4-B)*%
X156108400Y-135534400D03*
%TO.P,Q4,3,C*%
%TO.N,Net-(J3-Pin_5)*%
X154838400Y-135534400D03*
%TD*%
D10*
%TO.P,J5,1,Pin_1*%
%TO.N,Net-(J1-Pin_1)*%
X147751800Y-90957400D03*
D11*
%TO.P,J5,2,Pin_2*%
%TO.N,Net-(J1-Pin_2)*%
X150291800Y-90957400D03*
%TD*%
D10*
%TO.P,J2,1,Pin_1*%
%TO.N,Net-(J2-Pin_1)*%
X161290000Y-93726000D03*
D11*
%TO.P,J2,2,Pin_2*%
%TO.N,unconnected-(J2-Pin_2-Pad2)*%
X161290000Y-96266000D03*
%TO.P,J2,3,Pin_3*%
%TO.N,Net-(J2-Pin_3)*%
X161290000Y-98806000D03*
%TO.P,J2,4,Pin_4*%
%TO.N,unconnected-(J2-Pin_4-Pad4)*%
X161290000Y-101346000D03*
%TO.P,J2,5,Pin_5*%
%TO.N,unconnected-(J2-Pin_5-Pad5)*%
X161290000Y-103886000D03*
%TO.P,J2,6,Pin_6*%
%TO.N,unconnected-(J2-Pin_6-Pad6)*%
X161290000Y-106426000D03*
%TO.P,J2,7,Pin_7*%
%TO.N,Net-(J2-Pin_7)*%
X161290000Y-108966000D03*
%TO.P,J2,8,Pin_8*%
%TO.N,unconnected-(J2-Pin_8-Pad8)*%
X161290000Y-111506000D03*
%TO.P,J2,9,Pin_9*%
%TO.N,Net-(J2-Pin_9)*%
X161290000Y-114046000D03*
%TO.P,J2,10,Pin_10*%
%TO.N,unconnected-(J2-Pin_10-Pad10)*%
X161290000Y-116586000D03*
%TO.P,J2,11,Pin_11*%
%TO.N,unconnected-(J2-Pin_11-Pad11)*%
X161290000Y-119126000D03*
%TO.P,J2,12,Pin_12*%
%TO.N,unconnected-(J2-Pin_12-Pad12)*%
X161290000Y-121666000D03*
%TO.P,J2,13,Pin_13*%
%TO.N,unconnected-(J2-Pin_13-Pad13)*%
X161290000Y-124206000D03*
%TO.P,J2,14,Pin_14*%
%TO.N,unconnected-(J2-Pin_14-Pad14)*%
X161290000Y-126746000D03*
%TO.P,J2,15,Pin_15*%
%TO.N,unconnected-(J2-Pin_15-Pad15)*%
X161290000Y-129286000D03*
%TO.P,J2,16,Pin_16*%
%TO.N,unconnected-(J2-Pin_16-Pad16)*%
X161290000Y-131826000D03*
%TO.P,J2,17,Pin_17*%
%TO.N,unconnected-(J2-Pin_17-Pad17)*%
X161290000Y-134366000D03*
%TO.P,J2,18,Pin_18*%
%TO.N,unconnected-(J2-Pin_18-Pad18)*%
X161290000Y-136906000D03*
%TO.P,J2,19,Pin_19*%
%TO.N,unconnected-(J2-Pin_19-Pad19)*%
X161290000Y-139446000D03*
%TO.P,J2,20,Pin_20*%
%TO.N,unconnected-(J2-Pin_20-Pad20)*%
X161290000Y-141986000D03*
%TD*%
%TA.AperFunction,Conductor*%
%TO.N,GND*%
G36*
X164942539Y-89020185D02*
G01*
X164988294Y-89072989D01*
X164999500Y-89124500D01*
X164999500Y-149875500D01*
X164979815Y-149942539D01*
X164927011Y-149988294D01*
X164875500Y-149999500D01*
X140124500Y-149999500D01*
X140057461Y-149979815D01*
X140011706Y-149927011D01*
X140000500Y-149875500D01*
X140000500Y-147709870D01*
X144877300Y-147709870D01*
X144877301Y-147709876D01*
X144883708Y-147769483D01*
X144934002Y-147904328D01*
X144934006Y-147904335D01*
X145020252Y-148019544D01*
X145020255Y-148019547D01*
X145135464Y-148105793D01*
X145135471Y-148105797D01*
X145270317Y-148156091D01*
X145270316Y-148156091D01*
X145277244Y-148156835D01*
X145329927Y-148162500D01*
X147125672Y-148162499D01*
X147185283Y-148156091D01*
X147320131Y-148105796D01*
X147435346Y-148019546D01*
X147521596Y-147904331D01*
X147570610Y-147772916D01*
X147612481Y-147716984D01*
X147677945Y-147692566D01*
X147746218Y-147707417D01*
X147774473Y-147728569D01*
X147896399Y-147850495D01*
X147993184Y-147918265D01*
X148089965Y-147986032D01*
X148089967Y-147986033D01*
X148089970Y-147986035D01*
X148304137Y-148085903D01*
X148532392Y-148147063D01*
X148708834Y-148162500D01*
X148767799Y-148167659D01*
X148767800Y-148167659D01*
X148767801Y-148167659D01*
X148826766Y-148162500D01*
X149003208Y-148147063D01*
X149231463Y-148085903D01*
X149445630Y-147986035D01*
X149639201Y-147850495D01*
X149806295Y-147683401D01*
X149936225Y-147497842D01*
X149990802Y-147454217D01*
X150060300Y-147447023D01*
X150122655Y-147478546D01*
X150139375Y-147497842D01*
X150269081Y-147683082D01*
X150269305Y-147683401D01*
X150436399Y-147850495D01*
X150533184Y-147918265D01*
X150629965Y-147986032D01*
X150629967Y-147986033D01*
X150629970Y-147986035D01*
X150844137Y-148085903D01*
X151072392Y-148147063D01*
X151248834Y-148162500D01*
X151307799Y-148167659D01*
X151307800Y-148167659D01*
X151307801Y-148167659D01*
X151366766Y-148162500D01*
X151543208Y-148147063D01*
X151771463Y-148085903D01*
X151985630Y-147986035D01*
X152179201Y-147850495D01*
X152346295Y-147683401D01*
X152476225Y-147497842D01*
X152530802Y-147454217D01*
X152600300Y-147447023D01*
X152662655Y-147478546D01*
X152679375Y-147497842D01*
X152809081Y-147683082D01*
X152809305Y-147683401D01*
X152976399Y-147850495D01*
X153073184Y-147918265D01*
X153169965Y-147986032D01*
X153169967Y-147986033D01*
X153169970Y-147986035D01*
X153384137Y-148085903D01*
X153612392Y-148147063D01*
X153788834Y-148162500D01*
X153847799Y-148167659D01*
X153847800Y-148167659D01*
X153847801Y-148167659D01*
X153906766Y-148162500D01*
X154083208Y-148147063D01*
X154311463Y-148085903D01*
X154525630Y-147986035D01*
X154719201Y-147850495D01*
X154886295Y-147683401D01*
X155016225Y-147497842D01*
X155070802Y-147454217D01*
X155140300Y-147447023D01*
X155202655Y-147478546D01*
X155219375Y-147497842D01*
X155349081Y-147683082D01*
X155349305Y-147683401D01*
X155516399Y-147850495D01*
X155613184Y-147918265D01*
X155709965Y-147986032D01*
X155709967Y-147986033D01*
X155709970Y-147986035D01*
X155924137Y-148085903D01*
X156152392Y-148147063D01*
X156328834Y-148162500D01*
X156387799Y-148167659D01*
X156387800Y-148167659D01*
X156387801Y-148167659D01*
X156446766Y-148162500D01*
X156623208Y-148147063D01*
X156851463Y-148085903D01*
X157065630Y-147986035D01*
X157259201Y-147850495D01*
X157426295Y-147683401D01*
X157556530Y-147497405D01*
X157611107Y-147453781D01*
X157680605Y-147446587D01*
X157742960Y-147478110D01*
X157759679Y-147497405D01*
X157889690Y-147683078D01*
X158056717Y-147850105D01*
X158250221Y-147985600D01*
X158464307Y-148085429D01*
X158464316Y-148085433D01*
X158677800Y-148142634D01*
X158677800Y-147247501D01*
X158785485Y-147296680D01*
X158892037Y-147312000D01*
X158963563Y-147312000D01*
X159070115Y-147296680D01*
X159177800Y-147247501D01*
X159177800Y-148142633D01*
X159391283Y-148085433D01*
X159391292Y-148085429D01*
X159605378Y-147985600D01*
X159798882Y-147850105D01*
X159965905Y-147683082D01*
X160101400Y-147489578D01*
X160201229Y-147275492D01*
X160201232Y-147275486D01*
X160258436Y-147062000D01*
X159361486Y-147062000D01*
X159387293Y-147021844D01*
X159427800Y-146883889D01*
X159427800Y-146740111D01*
X159387293Y-146602156D01*
X159361486Y-146562000D01*
X160258436Y-146562000D01*
X160258435Y-146561999D01*
X160201232Y-146348513D01*
X160201229Y-146348507D01*
X160101400Y-146134422D01*
X160101399Y-146134420D01*
X159965913Y-145940926D01*
X159965908Y-145940920D01*
X159798882Y-145773894D01*
X159605378Y-145638399D01*
X159391292Y-145538570D01*
X159391286Y-145538567D01*
X159177800Y-145481364D01*
X159177800Y-146376498D01*
X159070115Y-146327320D01*
X158963563Y-146312000D01*
X158892037Y-146312000D01*
X158785485Y-146327320D01*
X158677800Y-146376498D01*
X158677800Y-145481364D01*
X158677799Y-145481364D01*
X158464313Y-145538567D01*
X158464307Y-145538570D01*
X158250222Y-145638399D01*
X158250220Y-145638400D01*
X158056726Y-145773886D01*
X158056720Y-145773891D01*
X157889691Y-145940920D01*
X157889690Y-145940922D01*
X157759680Y-146126595D01*
X157705103Y-146170219D01*
X157635604Y-146177412D01*
X157573250Y-146145890D01*
X157556530Y-146126594D01*
X157426294Y-145940597D01*
X157259202Y-145773506D01*
X157259195Y-145773501D01*
X157065634Y-145637967D01*
X157065630Y-145637965D01*
X157065628Y-145637964D01*
X156851463Y-145538097D01*
X156851459Y-145538096D01*
X156851455Y-145538094D01*
X156623213Y-145476938D01*
X156623203Y-145476936D01*
X156387801Y-145456341D01*
X156387799Y-145456341D01*
X156152396Y-145476936D01*
X156152386Y-145476938D01*
X155924144Y-145538094D01*
X155924135Y-145538098D01*
X155709971Y-145637964D01*
X155709969Y-145637965D01*
X155516397Y-145773505D01*
X155349305Y-145940597D01*
X155219375Y-146126158D01*
X155164798Y-146169783D01*
X155095300Y-146176977D01*
X155032945Y-146145454D01*
X155016225Y-146126158D01*
X154886294Y-145940597D01*
X154719202Y-145773506D01*
X154719195Y-145773501D01*
X154525634Y-145637967D01*
X154525630Y-145637965D01*
X154525628Y-145637964D01*
X154311463Y-145538097D01*
X154311459Y-145538096D01*
X154311455Y-145538094D01*
X154083213Y-145476938D01*
X154083203Y-145476936D01*
X153847801Y-145456341D01*
X153847799Y-145456341D01*
X153612396Y-145476936D01*
X153612386Y-145476938D01*
X153384144Y-145538094D01*
X153384135Y-145538098D01*
X153169971Y-145637964D01*
X153169969Y-145637965D01*
X152976397Y-145773505D01*
X152809305Y-145940597D01*
X152679375Y-146126158D01*
X152624798Y-146169783D01*
X152555300Y-146176977D01*
X152492945Y-146145454D01*
X152476225Y-146126158D01*
X152346294Y-145940597D01*
X152179202Y-145773506D01*
X152179195Y-145773501D01*
X151985634Y-145637967D01*
X151985630Y-145637965D01*
X151985628Y-145637964D01*
X151771463Y-145538097D01*
X151771459Y-145538096D01*
X151771455Y-145538094D01*
X151543213Y-145476938D01*
X151543203Y-145476936D01*
X151307801Y-145456341D01*
X151307799Y-145456341D01*
X151072396Y-145476936D01*
X151072386Y-145476938D01*
X150844144Y-145538094D01*
X150844135Y-145538098D01*
X150629971Y-145637964D01*
X150629969Y-145637965D01*
X150436397Y-145773505D01*
X150269305Y-145940597D01*
X150139375Y-146126158D01*
X150084798Y-146169783D01*
X150015300Y-146176977D01*
X149952945Y-146145454D01*
X149936225Y-146126158D01*
X149806294Y-145940597D01*
X149639202Y-145773506D01*
X149639195Y-145773501D01*
X149445634Y-145637967D01*
X149445630Y-145637965D01*
X149445628Y-145637964D01*
X149231463Y-145538097D01*
X149231459Y-145538096D01*
X149231455Y-145538094D01*
X149003213Y-145476938D01*
X149003203Y-145476936D01*
X148767801Y-145456341D01*
X148767799Y-145456341D01*
X148532396Y-145476936D01*
X148532386Y-145476938D01*
X148304144Y-145538094D01*
X148304135Y-145538098D01*
X148089971Y-145637964D01*
X148089969Y-145637965D01*
X147896400Y-145773503D01*
X147774473Y-145895430D01*
X147713150Y-145928914D01*
X147643458Y-145923930D01*
X147587525Y-145882058D01*
X147570610Y-145851081D01*
X147521597Y-145719671D01*
X147521593Y-145719664D01*
X147435347Y-145604455D01*
X147435344Y-145604452D01*
X147320135Y-145518206D01*
X147320128Y-145518202D01*
X147185282Y-145467908D01*
X147185283Y-145467908D01*
X147125683Y-145461501D01*
X147125681Y-145461500D01*
X147125673Y-145461500D01*
X147125664Y-145461500D01*
X145329929Y-145461500D01*
X145329923Y-145461501D01*
X145270316Y-145467908D01*
X145135471Y-145518202D01*
X145135464Y-145518206D01*
X145020255Y-145604452D01*
X145020252Y-145604455D01*
X144934006Y-145719664D01*
X144934002Y-145719671D01*
X144883708Y-145854517D01*
X144877301Y-145914116D01*
X144877300Y-145914135D01*
X144877300Y-147709870D01*
X140000500Y-147709870D01*
X140000500Y-141986000D01*
X142154341Y-141986000D01*
X142174936Y-142221403D01*
X142174938Y-142221413D01*
X142236094Y-142449655D01*
X142236096Y-142449659D01*
X142236097Y-142449663D01*
X142335965Y-142663830D01*
X142335967Y-142663834D01*
X142444281Y-142818521D01*
X142471505Y-142857401D01*
X142638599Y-143024495D01*
X142735384Y-143092265D01*
X142832165Y-143160032D01*
X142832167Y-143160033D01*
X142832170Y-143160035D01*
X143046337Y-143259903D01*
X143274592Y-143321063D01*
X143462918Y-143337539D01*
X143509999Y-143341659D01*
X143510000Y-143341659D01*
X143510001Y-143341659D01*
X143549234Y-143338226D01*
X143745408Y-143321063D01*
X143973663Y-143259903D01*
X144187830Y-143160035D01*
X144381401Y-143024495D01*
X144548495Y-142857401D01*
X144684035Y-142663830D01*
X144783903Y-142449663D01*
X144845063Y-142221408D01*
X144865659Y-141986000D01*
X159934341Y-141986000D01*
X159954936Y-142221403D01*
X159954938Y-142221413D01*
X160016094Y-142449655D01*
X160016096Y-142449659D01*
X160016097Y-142449663D01*
X160115965Y-142663830D01*
X160115967Y-142663834D01*
X160224281Y-142818521D01*
X160251505Y-142857401D01*
X160418599Y-143024495D01*
X160515384Y-143092265D01*
X160612165Y-143160032D01*
X160612167Y-143160033D01*
X160612170Y-143160035D01*
X160826337Y-143259903D01*
X161054592Y-143321063D01*
X161242918Y-143337539D01*
X161289999Y-143341659D01*
X161290000Y-143341659D01*
X161290001Y-143341659D01*
X161329234Y-143338226D01*
X161525408Y-143321063D01*
X161753663Y-143259903D01*
X161967830Y-143160035D01*
X162161401Y-143024495D01*
X162328495Y-142857401D01*
X162464035Y-142663830D01*
X162563903Y-142449663D01*
X162625063Y-142221408D01*
X162645659Y-141986000D01*
X162625063Y-141750592D01*
X162563903Y-141522337D01*
X162464035Y-141308171D01*
X162328495Y-141114599D01*
X162328494Y-141114597D01*
X162161402Y-140947506D01*
X162161396Y-140947501D01*
X161975842Y-140817575D01*
X161932217Y-140762998D01*
X161925023Y-140693500D01*
X161956546Y-140631145D01*
X161975842Y-140614425D01*
X161998026Y-140598891D01*
X162161401Y-140484495D01*
X162328495Y-140317401D01*
X162464035Y-140123830D01*
X162563903Y-139909663D01*
X162625063Y-139681408D01*
X162645659Y-139446000D01*
X162625063Y-139210592D01*
X162563903Y-138982337D01*
X162464035Y-138768171D01*
X162328495Y-138574599D01*
X162328494Y-138574597D01*
X162161402Y-138407506D01*
X162161396Y-138407501D01*
X161975842Y-138277575D01*
X161932217Y-138222998D01*
X161925023Y-138153500D01*
X161956546Y-138091145D01*
X161975842Y-138074425D01*
X161998026Y-138058891D01*
X162161401Y-137944495D01*
X162328495Y-137777401D01*
X162464035Y-137583830D01*
X162563903Y-137369663D01*
X162625063Y-137141408D01*
X162645659Y-136906000D01*
X162625063Y-136670592D01*
X162563903Y-136442337D01*
X162464035Y-136228171D01*
X162328495Y-136034599D01*
X162328494Y-136034597D01*
X162161402Y-135867506D01*
X162161396Y-135867501D01*
X161975842Y-135737575D01*
X161932217Y-135682998D01*
X161925023Y-135613500D01*
X161956546Y-135551145D01*
X161975842Y-135534425D01*
X162026998Y-135498605D01*
X162161401Y-135404495D01*
X162328495Y-135237401D01*
X162464035Y-135043830D01*
X162563903Y-134829663D01*
X162625063Y-134601408D01*
X162645659Y-134366000D01*
X162625063Y-134130592D01*
X162563903Y-133902337D01*
X162464035Y-133688171D01*
X162328495Y-133494599D01*
X162328494Y-133494597D01*
X162161402Y-133327506D01*
X162161396Y-133327501D01*
X161975842Y-133197575D01*
X161932217Y-133142998D01*
X161925023Y-133073500D01*
X161956546Y-133011145D01*
X161975842Y-132994425D01*
X161998026Y-132978891D01*
X162161401Y-132864495D01*
X162328495Y-132697401D01*
X162464035Y-132503830D01*
X162563903Y-132289663D01*
X162625063Y-132061408D01*
X162645659Y-131826000D01*
X162625063Y-131590592D01*
X162563903Y-131362337D01*
X162464035Y-131148171D01*
X162328495Y-130954599D01*
X162328494Y-130954597D01*
X162161402Y-130787506D01*
X162161396Y-130787501D01*
X161975842Y-130657575D01*
X161932217Y-130602998D01*
X161925023Y-130533500D01*
X161956546Y-130471145D01*
X161975842Y-130454425D01*
X162046305Y-130405086D01*
X162161401Y-130324495D01*
X162328495Y-130157401D01*
X162464035Y-129963830D01*
X162563903Y-129749663D01*
X162625063Y-129521408D01*
X162645659Y-129286000D01*
X162625063Y-129050592D01*
X162563903Y-128822337D01*
X162464035Y-128608171D01*
X162427244Y-128555627D01*
X162328494Y-128414597D01*
X162161402Y-128247506D01*
X162161396Y-128247501D01*
X161975842Y-128117575D01*
X161932217Y-128062998D01*
X161925023Y-127993500D01*
X161956546Y-127931145D01*
X161975842Y-127914425D01*
X161998026Y-127898891D01*
X162161401Y-127784495D01*
X162328495Y-127617401D01*
X162464035Y-127423830D01*
X162563903Y-127209663D01*
X162625063Y-126981408D01*
X162645659Y-126746000D01*
X162625063Y-126510592D01*
X162563903Y-126282337D01*
X162464035Y-126068171D01*
X162328495Y-125874599D01*
X162328494Y-125874597D01*
X162161402Y-125707506D01*
X162161396Y-125707501D01*
X161975842Y-125577575D01*
X161932217Y-125522998D01*
X161925023Y-125453500D01*
X161956546Y-125391145D01*
X161975842Y-125374425D01*
X161998026Y-125358891D01*
X162161401Y-125244495D01*
X162328495Y-125077401D01*
X162464035Y-124883830D01*
X162563903Y-124669663D01*
X162625063Y-124441408D01*
X162645659Y-124206000D01*
X162625063Y-123970592D01*
X162563903Y-123742337D01*
X162464035Y-123528171D01*
X162444867Y-123500795D01*
X162328494Y-123334597D01*
X162161402Y-123167506D01*
X162161396Y-123167501D01*
X161975842Y-123037575D01*
X161932217Y-122982998D01*
X161925023Y-122913500D01*
X161956546Y-122851145D01*
X161975842Y-122834425D01*
X161998026Y-122818891D01*
X162161401Y-122704495D01*
X162328495Y-122537401D01*
X162464035Y-122343830D01*
X162563903Y-122129663D01*
X162625063Y-121901408D01*
X162645659Y-121666000D01*
X162625063Y-121430592D01*
X162563903Y-121202337D01*
X162464035Y-120988171D01*
X162328495Y-120794599D01*
X162328494Y-120794597D01*
X162161402Y-120627506D01*
X162161396Y-120627501D01*
X161975842Y-120497575D01*
X161932217Y-120442998D01*
X161925023Y-120373500D01*
X161956546Y-120311145D01*
X161975842Y-120294425D01*
X161998026Y-120278891D01*
X162161401Y-120164495D01*
X162328495Y-119997401D01*
X162464035Y-119803830D01*
X162563903Y-119589663D01*
X162625063Y-119361408D01*
X162645659Y-119126000D01*
X162625063Y-118890592D01*
X162563903Y-118662337D01*
X162464035Y-118448171D01*
X162450960Y-118429497D01*
X162328494Y-118254597D01*
X162161402Y-118087506D01*
X162161396Y-118087501D01*
X161975842Y-117957575D01*
X161932217Y-117902998D01*
X161925023Y-117833500D01*
X161956546Y-117771145D01*
X161975842Y-117754425D01*
X162105693Y-117663502D01*
X162161401Y-117624495D01*
X162328495Y-117457401D01*
X162464035Y-117263830D01*
X162563903Y-117049663D01*
X162625063Y-116821408D01*
X162645659Y-116586000D01*
X162625063Y-116350592D01*
X162563903Y-116122337D01*
X162464035Y-115908171D01*
X162328495Y-115714599D01*
X162328494Y-115714597D01*
X162161402Y-115547506D01*
X162161396Y-115547501D01*
X161975842Y-115417575D01*
X161932217Y-115362998D01*
X161925023Y-115293500D01*
X161956546Y-115231145D01*
X161975842Y-115214425D01*
X161998026Y-115198891D01*
X162161401Y-115084495D01*
X162328495Y-114917401D01*
X162464035Y-114723830D01*
X162563903Y-114509663D01*
X162625063Y-114281408D01*
X162645659Y-114046000D01*
X162625063Y-113810592D01*
X162563903Y-113582337D01*
X162464035Y-113368171D01*
X162328495Y-113174599D01*
X162328494Y-113174597D01*
X162161402Y-113007506D01*
X162161396Y-113007501D01*
X161975842Y-112877575D01*
X161932217Y-112822998D01*
X161925023Y-112753500D01*
X161956546Y-112691145D01*
X161975842Y-112674425D01*
X162034936Y-112633047D01*
X162161401Y-112544495D01*
X162328495Y-112377401D01*
X162464035Y-112183830D01*
X162563903Y-111969663D01*
X162625063Y-111741408D01*
X162645659Y-111506000D01*
X162625063Y-111270592D01*
X162563903Y-111042337D01*
X162464035Y-110828171D01*
X162328495Y-110634599D01*
X162328494Y-110634597D01*
X162161402Y-110467506D01*
X162161396Y-110467501D01*
X161975842Y-110337575D01*
X161932217Y-110282998D01*
X161925023Y-110213500D01*
X161956546Y-110151145D01*
X161975842Y-110134425D01*
X161998026Y-110118891D01*
X162161401Y-110004495D01*
X162328495Y-109837401D01*
X162464035Y-109643830D01*
X162563903Y-109429663D01*
X162625063Y-109201408D01*
X162645659Y-108966000D01*
X162625063Y-108730592D01*
X162563903Y-108502337D01*
X162464035Y-108288171D01*
X162450960Y-108269497D01*
X162328494Y-108094597D01*
X162161402Y-107927506D01*
X162161396Y-107927501D01*
X161975842Y-107797575D01*
X161932217Y-107742998D01*
X161925023Y-107673500D01*
X161956546Y-107611145D01*
X161975842Y-107594425D01*
X162105693Y-107503502D01*
X162161401Y-107464495D01*
X162328495Y-107297401D01*
X162464035Y-107103830D01*
X162563903Y-106889663D01*
X162625063Y-106661408D01*
X162645659Y-106426000D01*
X162644571Y-106413570D01*
X162625063Y-106190596D01*
X162625063Y-106190592D01*
X162563903Y-105962337D01*
X162464035Y-105748171D01*
X162450960Y-105729497D01*
X162328494Y-105554597D01*
X162161402Y-105387506D01*
X162161396Y-105387501D01*
X161975842Y-105257575D01*
X161932217Y-105202998D01*
X161925023Y-105133500D01*
X161956546Y-105071145D01*
X161975842Y-105054425D01*
X162105693Y-104963502D01*
X162161401Y-104924495D01*
X162328495Y-104757401D01*
X162464035Y-104563830D01*
X162563903Y-104349663D01*
X162625063Y-104121408D01*
X162645659Y-103886000D01*
X162625063Y-103650592D01*
X162563903Y-103422337D01*
X162464035Y-103208171D01*
X162328495Y-103014599D01*
X162328494Y-103014597D01*
X162161402Y-102847506D01*
X162161396Y-102847501D01*
X161975842Y-102717575D01*
X161932217Y-102662998D01*
X161925023Y-102593500D01*
X161956546Y-102531145D01*
X161975842Y-102514425D01*
X162034936Y-102473047D01*
X162161401Y-102384495D01*
X162328495Y-102217401D01*
X162464035Y-102023830D01*
X162563903Y-101809663D01*
X162625063Y-101581408D01*
X162645659Y-101346000D01*
X162625063Y-101110592D01*
X162563903Y-100882337D01*
X162464035Y-100668171D01*
X162328495Y-100474599D01*
X162328494Y-100474597D01*
X162161402Y-100307506D01*
X162161396Y-100307501D01*
X161975842Y-100177575D01*
X161932217Y-100122998D01*
X161925023Y-100053500D01*
X161956546Y-99991145D01*
X161975842Y-99974425D01*
X161998026Y-99958891D01*
X162161401Y-99844495D01*
X162328495Y-99677401D01*
X162464035Y-99483830D01*
X162563903Y-99269663D01*
X162625063Y-99041408D01*
X162645659Y-98806000D01*
X162625063Y-98570592D01*
X162563903Y-98342337D01*
X162464035Y-98128171D01*
X162328495Y-97934599D01*
X162328494Y-97934597D01*
X162161402Y-97767506D01*
X162161396Y-97767501D01*
X161975842Y-97637575D01*
X161932217Y-97582998D01*
X161925023Y-97513500D01*
X161956546Y-97451145D01*
X161975842Y-97434425D01*
X161998026Y-97418891D01*
X162161401Y-97304495D01*
X162328495Y-97137401D01*
X162464035Y-96943830D01*
X162563903Y-96729663D01*
X162625063Y-96501408D01*
X162645659Y-96266000D01*
X162625063Y-96030592D01*
X162563903Y-95802337D01*
X162464035Y-95588171D01*
X162450959Y-95569497D01*
X162328496Y-95394600D01*
X162283582Y-95349686D01*
X162206567Y-95272671D01*
X162173084Y-95211351D01*
X162178068Y-95141659D01*
X162219939Y-95085725D01*
X162250915Y-95068810D01*
X162382331Y-95019796D01*
X162497546Y-94933546D01*
X162583796Y-94818331D01*
X162634091Y-94683483D01*
X162640500Y-94623873D01*
X162640499Y-92828128D01*
X162634091Y-92768517D01*
X162583796Y-92633669D01*
X162583795Y-92633668D01*
X162583793Y-92633664D01*
X162497547Y-92518455D01*
X162497544Y-92518452D01*
X162382335Y-92432206D01*
X162382328Y-92432202D01*
X162247482Y-92381908D01*
X162247483Y-92381908D01*
X162187883Y-92375501D01*
X162187881Y-92375500D01*
X162187873Y-92375500D01*
X162187864Y-92375500D01*
X160392129Y-92375500D01*
X160392123Y-92375501D01*
X160332516Y-92381908D01*
X160197671Y-92432202D01*
X160197664Y-92432206D01*
X160082455Y-92518452D01*
X160082452Y-92518455D01*
X159996206Y-92633664D01*
X159996202Y-92633671D01*
X159945908Y-92768517D01*
X159939501Y-92828116D01*
X159939501Y-92828123D01*
X159939500Y-92828135D01*
X159939500Y-94623870D01*
X159939501Y-94623876D01*
X159945908Y-94683483D01*
X159996202Y-94818328D01*
X159996206Y-94818335D01*
X160082452Y-94933544D01*
X160082455Y-94933547D01*
X160197664Y-95019793D01*
X160197671Y-95019797D01*
X160329081Y-95068810D01*
X160385015Y-95110681D01*
X160409432Y-95176145D01*
X160394580Y-95244418D01*
X160373430Y-95272673D01*
X160251503Y-95394600D01*
X160115965Y-95588169D01*
X160115964Y-95588171D01*
X160016098Y-95802335D01*
X160016094Y-95802344D01*
X159954938Y-96030586D01*
X159954936Y-96030596D01*
X159934341Y-96265999D01*
X159934341Y-96266000D01*
X159954936Y-96501403D01*
X159954938Y-96501413D01*
X160016094Y-96729655D01*
X160016096Y-96729659D01*
X160016097Y-96729663D01*
X160115965Y-96943830D01*
X160115967Y-96943834D01*
X160251501Y-97137395D01*
X160251506Y-97137402D01*
X160418597Y-97304493D01*
X160418603Y-97304498D01*
X160604158Y-97434425D01*
X160647783Y-97489002D01*
X160654977Y-97558500D01*
X160623454Y-97620855D01*
X160604158Y-97637575D01*
X160418597Y-97767505D01*
X160251505Y-97934597D01*
X160115965Y-98128169D01*
X160115964Y-98128171D01*
X160016098Y-98342335D01*
X160016094Y-98342344D01*
X159954938Y-98570586D01*
X159954936Y-98570596D01*
X159934341Y-98805999D01*
X159934341Y-98806000D01*
X159954936Y-99041403D01*
X159954938Y-99041413D01*
X160016094Y-99269655D01*
X160016096Y-99269659D01*
X160016097Y-99269663D01*
X160115965Y-99483830D01*
X160115967Y-99483834D01*
X160251501Y-99677395D01*
X160251506Y-99677402D01*
X160418597Y-99844493D01*
X160418603Y-99844498D01*
X160604158Y-99974425D01*
X160647783Y-100029002D01*
X160654977Y-100098500D01*
X160623454Y-100160855D01*
X160604158Y-100177575D01*
X160418597Y-100307505D01*
X160251505Y-100474597D01*
X160115965Y-100668169D01*
X160115964Y-100668171D01*
X160016098Y-100882335D01*
X160016094Y-100882344D01*
X159954938Y-101110586D01*
X159954936Y-101110596D01*
X159934341Y-101345999D01*
X159934341Y-101346000D01*
X159954936Y-101581403D01*
X159954938Y-101581413D01*
X160016094Y-101809655D01*
X160016096Y-101809659D01*
X160016097Y-101809663D01*
X160067313Y-101919496D01*
X160115965Y-102023830D01*
X160115967Y-102023834D01*
X160251501Y-102217395D01*
X160251506Y-102217402D01*
X160418597Y-102384493D01*
X160418603Y-102384498D01*
X160604158Y-102514425D01*
X160647783Y-102569002D01*
X160654977Y-102638500D01*
X160623454Y-102700855D01*
X160604158Y-102717575D01*
X160418597Y-102847505D01*
X160251505Y-103014597D01*
X160115965Y-103208169D01*
X160115964Y-103208171D01*
X160016098Y-103422335D01*
X160016094Y-103422344D01*
X159954938Y-103650586D01*
X159954936Y-103650596D01*
X159934341Y-103885999D01*
X159934341Y-103886000D01*
X159954936Y-104121403D01*
X159954938Y-104121413D01*
X160016094Y-104349655D01*
X160016096Y-104349659D01*
X160016097Y-104349663D01*
X160115965Y-104563830D01*
X160115967Y-104563834D01*
X160224281Y-104718521D01*
X160251410Y-104757266D01*
X160251501Y-104757395D01*
X160251506Y-104757402D01*
X160418597Y-104924493D01*
X160418603Y-104924498D01*
X160604158Y-105054425D01*
X160647783Y-105109002D01*
X160654977Y-105178500D01*
X160623454Y-105240855D01*
X160604158Y-105257575D01*
X160418597Y-105387505D01*
X160251505Y-105554597D01*
X160115965Y-105748169D01*
X160115964Y-105748171D01*
X160016098Y-105962335D01*
X160016094Y-105962344D01*
X159954938Y-106190586D01*
X159954936Y-106190596D01*
X159934341Y-106425999D01*
X159934341Y-106426000D01*
X159954936Y-106661403D01*
X159954938Y-106661413D01*
X160016094Y-106889655D01*
X160016096Y-106889659D01*
X160016097Y-106889663D01*
X160115965Y-107103830D01*
X160115967Y-107103834D01*
X160224281Y-107258521D01*
X160251410Y-107297266D01*
X160251501Y-107297395D01*
X160251506Y-107297402D01*
X160418597Y-107464493D01*
X160418603Y-107464498D01*
X160604158Y-107594425D01*
X160647783Y-107649002D01*
X160654977Y-107718500D01*
X160623454Y-107780855D01*
X160604158Y-107797575D01*
X160418597Y-107927505D01*
X160251505Y-108094597D01*
X160115965Y-108288169D01*
X160115964Y-108288171D01*
X160016098Y-108502335D01*
X160016094Y-108502344D01*
X159954938Y-108730586D01*
X159954936Y-108730596D01*
X159934341Y-108965999D01*
X159934341Y-108966000D01*
X159954936Y-109201403D01*
X159954938Y-109201413D01*
X160016094Y-109429655D01*
X160016096Y-109429659D01*
X160016097Y-109429663D01*
X160115965Y-109643830D01*
X160115967Y-109643834D01*
X160251501Y-109837395D01*
X160251506Y-109837402D01*
X160418597Y-110004493D01*
X160418603Y-110004498D01*
X160604158Y-110134425D01*
X160647783Y-110189002D01*
X160654977Y-110258500D01*
X160623454Y-110320855D01*
X160604158Y-110337575D01*
X160418597Y-110467505D01*
X160251505Y-110634597D01*
X160115965Y-110828169D01*
X160115964Y-110828171D01*
X160016098Y-111042335D01*
X160016094Y-111042344D01*
X159954938Y-111270586D01*
X159954936Y-111270596D01*
X159934341Y-111505999D01*
X159934341Y-111506000D01*
X159954936Y-111741403D01*
X159954938Y-111741413D01*
X160016094Y-111969655D01*
X160016096Y-111969659D01*
X160016097Y-111969663D01*
X160067313Y-112079496D01*
X160115965Y-112183830D01*
X160115967Y-112183834D01*
X160251501Y-112377395D01*
X160251506Y-112377402D01*
X160418597Y-112544493D01*
X160418603Y-112544498D01*
X160604158Y-112674425D01*
X160647783Y-112729002D01*
X160654977Y-112798500D01*
X160623454Y-112860855D01*
X160604158Y-112877575D01*
X160418597Y-113007505D01*
X160251505Y-113174597D01*
X160115965Y-113368169D01*
X160115964Y-113368171D01*
X160016098Y-113582335D01*
X160016094Y-113582344D01*
X159954938Y-113810586D01*
X159954936Y-113810596D01*
X159934341Y-114045999D01*
X159934341Y-114046000D01*
X159954936Y-114281403D01*
X159954938Y-114281413D01*
X160016094Y-114509655D01*
X160016096Y-114509659D01*
X160016097Y-114509663D01*
X160115965Y-114723830D01*
X160115967Y-114723834D01*
X160251501Y-114917395D01*
X160251506Y-114917402D01*
X160418597Y-115084493D01*
X160418603Y-115084498D01*
X160604158Y-115214425D01*
X160647783Y-115269002D01*
X160654977Y-115338500D01*
X160623454Y-115400855D01*
X160604158Y-115417575D01*
X160418597Y-115547505D01*
X160251505Y-115714597D01*
X160115965Y-115908169D01*
X160115964Y-115908171D01*
X160016098Y-116122335D01*
X160016094Y-116122344D01*
X159954938Y-116350586D01*
X159954936Y-116350596D01*
X159934341Y-116585999D01*
X159934341Y-116586000D01*
X159954936Y-116821403D01*
X159954938Y-116821413D01*
X160016094Y-117049655D01*
X160016096Y-117049659D01*
X160016097Y-117049663D01*
X160115965Y-117263830D01*
X160115967Y-117263834D01*
X160224281Y-117418521D01*
X160251410Y-117457266D01*
X160251501Y-117457395D01*
X160251506Y-117457402D01*
X160418597Y-117624493D01*
X160418603Y-117624498D01*
X160604158Y-117754425D01*
X160647783Y-117809002D01*
X160654977Y-117878500D01*
X160623454Y-117940855D01*
X160604158Y-117957575D01*
X160418597Y-118087505D01*
X160251505Y-118254597D01*
X160115965Y-118448169D01*
X160115964Y-118448171D01*
X160016098Y-118662335D01*
X160016094Y-118662344D01*
X159954938Y-118890586D01*
X159954936Y-118890596D01*
X159934341Y-119125999D01*
X159934341Y-119126000D01*
X159954936Y-119361403D01*
X159954938Y-119361413D01*
X160016094Y-119589655D01*
X160016096Y-119589659D01*
X160016097Y-119589663D01*
X160115965Y-119803830D01*
X160115967Y-119803834D01*
X160251501Y-119997395D01*
X160251506Y-119997402D01*
X160418597Y-120164493D01*
X160418603Y-120164498D01*
X160604158Y-120294425D01*
X160647783Y-120349002D01*
X160654977Y-120418500D01*
X160623454Y-120480855D01*
X160604158Y-120497575D01*
X160418597Y-120627505D01*
X160251505Y-120794597D01*
X160115965Y-120988169D01*
X160115964Y-120988171D01*
X160016098Y-121202335D01*
X160016094Y-121202344D01*
X159954938Y-121430586D01*
X159954936Y-121430596D01*
X159934341Y-121665999D01*
X159934341Y-121666000D01*
X159954936Y-121901403D01*
X159954938Y-121901413D01*
X160016094Y-122129655D01*
X160016096Y-122129659D01*
X160016097Y-122129663D01*
X160092209Y-122292886D01*
X160115965Y-122343830D01*
X160115967Y-122343834D01*
X160251501Y-122537395D01*
X160251506Y-122537402D01*
X160418597Y-122704493D01*
X160418603Y-122704498D01*
X160604158Y-122834425D01*
X160647783Y-122889002D01*
X160654977Y-122958500D01*
X160623454Y-123020855D01*
X160604158Y-123037575D01*
X160418597Y-123167505D01*
X160251505Y-123334597D01*
X160115965Y-123528169D01*
X160115964Y-123528171D01*
X160016098Y-123742335D01*
X160016094Y-123742344D01*
X159954938Y-123970586D01*
X159954936Y-123970596D01*
X159934341Y-124205999D01*
X159934341Y-124206000D01*
X159954936Y-124441403D01*
X159954938Y-124441413D01*
X160016094Y-124669655D01*
X160016096Y-124669659D01*
X160016097Y-124669663D01*
X160041837Y-124724862D01*
X160115965Y-124883830D01*
X160115967Y-124883834D01*
X160251501Y-125077395D01*
X160251506Y-125077402D01*
X160418597Y-125244493D01*
X160418603Y-125244498D01*
X160604158Y-125374425D01*
X160647783Y-125429002D01*
X160654977Y-125498500D01*
X160623454Y-125560855D01*
X160604158Y-125577575D01*
X160418597Y-125707505D01*
X160251505Y-125874597D01*
X160115965Y-126068169D01*
X160115964Y-126068171D01*
X160016098Y-126282335D01*
X160016094Y-126282344D01*
X159954938Y-126510586D01*
X159954936Y-126510596D01*
X159934341Y-126745999D01*
X159934341Y-126746000D01*
X159954936Y-126981403D01*
X159954938Y-126981413D01*
X160016094Y-127209655D01*
X160016096Y-127209659D01*
X160016097Y-127209663D01*
X160115965Y-127423830D01*
X160115967Y-127423834D01*
X160251501Y-127617395D01*
X160251506Y-127617402D01*
X160418597Y-127784493D01*
X160418603Y-127784498D01*
X160604158Y-127914425D01*
X160647783Y-127969002D01*
X160654977Y-128038500D01*
X160623454Y-128100855D01*
X160604158Y-128117575D01*
X160418597Y-128247505D01*
X160251505Y-128414597D01*
X160115965Y-128608169D01*
X160115964Y-128608171D01*
X160016098Y-128822335D01*
X160016094Y-128822344D01*
X159954938Y-129050586D01*
X159954936Y-129050596D01*
X159934341Y-129285999D01*
X159934341Y-129286000D01*
X159954936Y-129521403D01*
X159954938Y-129521413D01*
X160016094Y-129749655D01*
X160016096Y-129749659D01*
X160016097Y-129749663D01*
X160033974Y-129788000D01*
X160115965Y-129963830D01*
X160115967Y-129963834D01*
X160251501Y-130157395D01*
X160251506Y-130157402D01*
X160418597Y-130324493D01*
X160418603Y-130324498D01*
X160604158Y-130454425D01*
X160647783Y-130509002D01*
X160654977Y-130578500D01*
X160623454Y-130640855D01*
X160604158Y-130657575D01*
X160418597Y-130787505D01*
X160251505Y-130954597D01*
X160115965Y-131148169D01*
X160115964Y-131148171D01*
X160016098Y-131362335D01*
X160016094Y-131362344D01*
X159954938Y-131590586D01*
X159954936Y-131590596D01*
X159934341Y-131825999D01*
X159934341Y-131826000D01*
X159954936Y-132061403D01*
X159954938Y-132061413D01*
X160016094Y-132289655D01*
X160016096Y-132289659D01*
X160016097Y-132289663D01*
X160115965Y-132503830D01*
X160115967Y-132503834D01*
X160251501Y-132697395D01*
X160251506Y-132697402D01*
X160418597Y-132864493D01*
X160418603Y-132864498D01*
X160604158Y-132994425D01*
X160647783Y-133049002D01*
X160654977Y-133118500D01*
X160623454Y-133180855D01*
X160604158Y-133197575D01*
X160418597Y-133327505D01*
X160251505Y-133494597D01*
X160115965Y-133688169D01*
X160115964Y-133688171D01*
X160016098Y-133902335D01*
X160016094Y-133902344D01*
X159954938Y-134130586D01*
X159954936Y-134130596D01*
X159934341Y-134365999D01*
X159934341Y-134366000D01*
X159954936Y-134601403D01*
X159954938Y-134601413D01*
X160016094Y-134829655D01*
X160016096Y-134829659D01*
X160016097Y-134829663D01*
X160053864Y-134910654D01*
X160115965Y-135043830D01*
X160115967Y-135043834D01*
X160222325Y-135195728D01*
X160249390Y-135234381D01*
X160251501Y-135237395D01*
X160251506Y-135237402D01*
X160418597Y-135404493D01*
X160418603Y-135404498D01*
X160604158Y-135534425D01*
X160647783Y-135589002D01*
X160654977Y-135658500D01*
X160623454Y-135720855D01*
X160604158Y-135737575D01*
X160418597Y-135867505D01*
X160251505Y-136034597D01*
X160115965Y-136228169D01*
X160115964Y-136228171D01*
X160016098Y-136442335D01*
X160016094Y-136442344D01*
X159954938Y-136670586D01*
X159954936Y-136670596D01*
X159934341Y-136905999D01*
X159934341Y-136906000D01*
X159954936Y-137141403D01*
X159954938Y-137141413D01*
X160016094Y-137369655D01*
X160016096Y-137369659D01*
X160016097Y-137369663D01*
X160115965Y-137583830D01*
X160115967Y-137583834D01*
X160251501Y-137777395D01*
X160251506Y-137777402D01*
X160418597Y-137944493D01*
X160418603Y-137944498D01*
X160604158Y-138074425D01*
X160647783Y-138129002D01*
X160654977Y-138198500D01*
X160623454Y-138260855D01*
X160604158Y-138277575D01*
X160418597Y-138407505D01*
X160251505Y-138574597D01*
X160115965Y-138768169D01*
X160115964Y-138768171D01*
X160016098Y-138982335D01*
X160016094Y-138982344D01*
X159954938Y-139210586D01*
X159954936Y-139210596D01*
X159934341Y-139445999D01*
X159934341Y-139446000D01*
X159954936Y-139681403D01*
X159954938Y-139681413D01*
X160016094Y-139909655D01*
X160016096Y-139909659D01*
X160016097Y-139909663D01*
X160115965Y-140123830D01*
X160115967Y-140123834D01*
X160251501Y-140317395D01*
X160251506Y-140317402D01*
X160418597Y-140484493D01*
X160418603Y-140484498D01*
X160604158Y-140614425D01*
X160647783Y-140669002D01*
X160654977Y-140738500D01*
X160623454Y-140800855D01*
X160604158Y-140817575D01*
X160418597Y-140947505D01*
X160251505Y-141114597D01*
X160115965Y-141308169D01*
X160115964Y-141308171D01*
X160016098Y-141522335D01*
X160016094Y-141522344D01*
X159954938Y-141750586D01*
X159954936Y-141750596D01*
X159934341Y-141985999D01*
X159934341Y-141986000D01*
X144865659Y-141986000D01*
X144845063Y-141750592D01*
X144783903Y-141522337D01*
X144684035Y-141308171D01*
X144548495Y-141114599D01*
X144548494Y-141114597D01*
X144381402Y-140947506D01*
X144381396Y-140947501D01*
X144195842Y-140817575D01*
X144152217Y-140762998D01*
X144145023Y-140693500D01*
X144176546Y-140631145D01*
X144195842Y-140614425D01*
X144218026Y-140598891D01*
X144381401Y-140484495D01*
X144548495Y-140317401D01*
X144684035Y-140123830D01*
X144783903Y-139909663D01*
X144845063Y-139681408D01*
X144865659Y-139446000D01*
X144845063Y-139210592D01*
X144783903Y-138982337D01*
X144684035Y-138768171D01*
X144548495Y-138574599D01*
X144548494Y-138574597D01*
X144381402Y-138407506D01*
X144381396Y-138407501D01*
X144195842Y-138277575D01*
X144152217Y-138222998D01*
X144145023Y-138153500D01*
X144176546Y-138091145D01*
X144195842Y-138074425D01*
X144218026Y-138058891D01*
X144381401Y-137944495D01*
X144548495Y-137777401D01*
X144684035Y-137583830D01*
X144783903Y-137369663D01*
X144845063Y-137141408D01*
X144865659Y-136906000D01*
X144845063Y-136670592D01*
X144783903Y-136442337D01*
X144684035Y-136228171D01*
X144548495Y-136034599D01*
X144548494Y-136034597D01*
X144381402Y-135867506D01*
X144381396Y-135867501D01*
X144292678Y-135805380D01*
X146548500Y-135805380D01*
X146550927Y-135830019D01*
X146563337Y-135956031D01*
X146621978Y-136149345D01*
X146717198Y-136327488D01*
X146717203Y-136327495D01*
X146845352Y-136483647D01*
X146897561Y-136526493D01*
X147001506Y-136611798D01*
X147001509Y-136611799D01*
X147001511Y-136611801D01*
X147179654Y-136707021D01*
X147179656Y-136707021D01*
X147179659Y-136707023D01*
X147372967Y-136765662D01*
X147574000Y-136785462D01*
X147775033Y-136765662D01*
X147968341Y-136707023D01*
X148146494Y-136611798D01*
X148146498Y-136611794D01*
X148150546Y-136609631D01*
X148218949Y-136595389D01*
X148267454Y-136609631D01*
X148271502Y-136611794D01*
X148271506Y-136611798D01*
X148449659Y-136707023D01*
X148642967Y-136765662D01*
X148844000Y-136785462D01*
X149045033Y-136765662D01*
X149238341Y-136707023D01*
X149238344Y-136707020D01*
X149240016Y-136706514D01*
X149309883Y-136705890D01*
X149338585Y-136720097D01*
X149339128Y-136719103D01*
X149346913Y-136723354D01*
X149481620Y-136773596D01*
X149481627Y-136773598D01*
X149541155Y-136779999D01*
X149541172Y-136780000D01*
X149864000Y-136780000D01*
X149864000Y-135864270D01*
X149864299Y-135858190D01*
X149867073Y-135830019D01*
X149868629Y-135814220D01*
X149933052Y-135864363D01*
X150051424Y-135905000D01*
X150145073Y-135905000D01*
X150237446Y-135889586D01*
X150347514Y-135830019D01*
X150364000Y-135812110D01*
X150364000Y-136780000D01*
X150686828Y-136780000D01*
X150686844Y-136779999D01*
X150746372Y-136773598D01*
X150746379Y-136773596D01*
X150881086Y-136723354D01*
X150881093Y-136723350D01*
X150996187Y-136637190D01*
X150996190Y-136637187D01*
X151082350Y-136522093D01*
X151082354Y-136522086D01*
X151132596Y-136387379D01*
X151132598Y-136387372D01*
X151138999Y-136327844D01*
X151139000Y-136327827D01*
X151139000Y-135809780D01*
X153812900Y-135809780D01*
X153815327Y-135834419D01*
X153827737Y-135960431D01*
X153886378Y-136153745D01*
X153981598Y-136331888D01*
X153981603Y-136331895D01*
X154109752Y-136488047D01*
X154203399Y-136564900D01*
X154265906Y-136616198D01*
X154265909Y-136616199D01*
X154265911Y-136616201D01*
X154444054Y-136711421D01*
X154444056Y-136711421D01*
X154444059Y-136711423D01*
X154637367Y-136770062D01*
X154838400Y-136789862D01*
X155039433Y-136770062D01*
X155232741Y-136711423D01*
X155410894Y-136616198D01*
X155410898Y-136616194D01*
X155414946Y-136614031D01*
X155483349Y-136599789D01*
X155531854Y-136614031D01*
X155535902Y-136616194D01*
X155535906Y-136616198D01*
X155714059Y-136711423D01*
X155907367Y-136770062D01*
X156108400Y-136789862D01*
X156309433Y-136770062D01*
X156502741Y-136711423D01*
X156502744Y-136711420D01*
X156504416Y-136710914D01*
X156574283Y-136710290D01*
X156602985Y-136724497D01*
X156603528Y-136723503D01*
X156611313Y-136727754D01*
X156746020Y-136777996D01*
X156746027Y-136777998D01*
X156805555Y-136784399D01*
X156805572Y-136784400D01*
X157128400Y-136784400D01*
X157128400Y-135868670D01*
X157128699Y-135862590D01*
X157133029Y-135818620D01*
X157197452Y-135868763D01*
X157315824Y-135909400D01*
X157409473Y-135909400D01*
X157501846Y-135893986D01*
X157611914Y-135834419D01*
X157628400Y-135816510D01*
X157628400Y-136784400D01*
X157951228Y-136784400D01*
X157951244Y-136784399D01*
X158010772Y-136777998D01*
X158010779Y-136777996D01*
X158145486Y-136727754D01*
X158145493Y-136727750D01*
X158260587Y-136641590D01*
X158260590Y-136641587D01*
X158346750Y-136526493D01*
X158346754Y-136526486D01*
X158396996Y-136391779D01*
X158396998Y-136391772D01*
X158403399Y-136332244D01*
X158403400Y-136332227D01*
X158403400Y-135784400D01*
X157657960Y-135784400D01*
X157696678Y-135742341D01*
X157746951Y-135627730D01*
X157757286Y-135503005D01*
X157726563Y-135381681D01*
X157663006Y-135284400D01*
X158403400Y-135284400D01*
X158403400Y-134736572D01*
X158403399Y-134736555D01*
X158396998Y-134677027D01*
X158396996Y-134677020D01*
X158346754Y-134542313D01*
X158346750Y-134542306D01*
X158260590Y-134427212D01*
X158260587Y-134427209D01*
X158145493Y-134341049D01*
X158145486Y-134341045D01*
X158010779Y-134290803D01*
X158010772Y-134290801D01*
X157951244Y-134284400D01*
X157628400Y-134284400D01*
X157628400Y-135253782D01*
X157559348Y-135200037D01*
X157440976Y-135159400D01*
X157347327Y-135159400D01*
X157254954Y-135174814D01*
X157144886Y-135234381D01*
X157132769Y-135247542D01*
X157128699Y-135206208D01*
X157128400Y-135200128D01*
X157128400Y-134284400D01*
X156805555Y-134284400D01*
X156746027Y-134290801D01*
X156746020Y-134290803D01*
X156611313Y-134341045D01*
X156603532Y-134345295D01*
X156602340Y-134343113D01*
X156549242Y-134362910D01*
X156504418Y-134357886D01*
X156502742Y-134357377D01*
X156502741Y-134357377D01*
X156421571Y-134332754D01*
X156309431Y-134298737D01*
X156108400Y-134278938D01*
X155907368Y-134298737D01*
X155714054Y-134357378D01*
X155531853Y-134454767D01*
X155463450Y-134469009D01*
X155414947Y-134454767D01*
X155232745Y-134357378D01*
X155039431Y-134298737D01*
X154838400Y-134278938D01*
X154637368Y-134298737D01*
X154444054Y-134357378D01*
X154265911Y-134452598D01*
X154265904Y-134452603D01*
X154109752Y-134580752D01*
X153981603Y-134736904D01*
X153981598Y-134736911D01*
X153886378Y-134915054D01*
X153827737Y-135108368D01*
X153816562Y-135221833D01*
X153812900Y-135259020D01*
X153812900Y-135809780D01*
X151139000Y-135809780D01*
X151139000Y-135780000D01*
X150393560Y-135780000D01*
X150432278Y-135737941D01*
X150482551Y-135623330D01*
X150492886Y-135498605D01*
X150462163Y-135377281D01*
X150398606Y-135280000D01*
X151139000Y-135280000D01*
X151139000Y-134732172D01*
X151138999Y-134732155D01*
X151132598Y-134672627D01*
X151132596Y-134672620D01*
X151082354Y-134537913D01*
X151082350Y-134537906D01*
X150996190Y-134422812D01*
X150996187Y-134422809D01*
X150881093Y-134336649D01*
X150881086Y-134336645D01*
X150746379Y-134286403D01*
X150746372Y-134286401D01*
X150686844Y-134280000D01*
X150364000Y-134280000D01*
X150364000Y-135249382D01*
X150294948Y-135195637D01*
X150176576Y-135155000D01*
X150082927Y-135155000D01*
X149990554Y-135170414D01*
X149880486Y-135229981D01*
X149868369Y-135243142D01*
X149867804Y-135237401D01*
X149864299Y-135201808D01*
X149864000Y-135195728D01*
X149864000Y-134280000D01*
X149541155Y-134280000D01*
X149481627Y-134286401D01*
X149481620Y-134286403D01*
X149346913Y-134336645D01*
X149339132Y-134340895D01*
X149337940Y-134338713D01*
X149284842Y-134358510D01*
X149240018Y-134353486D01*
X149238342Y-134352977D01*
X149238341Y-134352977D01*
X149157171Y-134328354D01*
X149045031Y-134294337D01*
X148844000Y-134274538D01*
X148642968Y-134294337D01*
X148449654Y-134352978D01*
X148267453Y-134450367D01*
X148199050Y-134464609D01*
X148150547Y-134450367D01*
X147968345Y-134352978D01*
X147775031Y-134294337D01*
X147574000Y-134274538D01*
X147372968Y-134294337D01*
X147179654Y-134352978D01*
X147001511Y-134448198D01*
X147001504Y-134448203D01*
X146845352Y-134576352D01*
X146717203Y-134732504D01*
X146717198Y-134732511D01*
X146621978Y-134910654D01*
X146563337Y-135103968D01*
X146553268Y-135206208D01*
X146548500Y-135254620D01*
X146548500Y-135805380D01*
X144292678Y-135805380D01*
X144195842Y-135737575D01*
X144152217Y-135682998D01*
X144145023Y-135613500D01*
X144176546Y-135551145D01*
X144195842Y-135534425D01*
X144246998Y-135498605D01*
X144381401Y-135404495D01*
X144548495Y-135237401D01*
X144684035Y-135043830D01*
X144783903Y-134829663D01*
X144845063Y-134601408D01*
X144865659Y-134366000D01*
X144845063Y-134130592D01*
X144783903Y-133902337D01*
X144684035Y-133688171D01*
X144548495Y-133494599D01*
X144548494Y-133494597D01*
X144381402Y-133327506D01*
X144381396Y-133327501D01*
X144195842Y-133197575D01*
X144152217Y-133142998D01*
X144145023Y-133073500D01*
X144176546Y-133011145D01*
X144195842Y-132994425D01*
X144218026Y-132978891D01*
X144381401Y-132864495D01*
X144548495Y-132697401D01*
X144684035Y-132503830D01*
X144783903Y-132289663D01*
X144845063Y-132061408D01*
X144865659Y-131826000D01*
X144845063Y-131590592D01*
X144783903Y-131362337D01*
X144684035Y-131148171D01*
X144548495Y-130954599D01*
X144548494Y-130954597D01*
X144381402Y-130787506D01*
X144381396Y-130787501D01*
X144195842Y-130657575D01*
X144152217Y-130602998D01*
X144145023Y-130533500D01*
X144176546Y-130471145D01*
X144195842Y-130454425D01*
X144266305Y-130405086D01*
X144381401Y-130324495D01*
X144548495Y-130157401D01*
X144684035Y-129963830D01*
X144783903Y-129749663D01*
X144800325Y-129688376D01*
X150358500Y-129688376D01*
X150373337Y-129839031D01*
X150431978Y-130032345D01*
X150527198Y-130210488D01*
X150527203Y-130210495D01*
X150655352Y-130366647D01*
X150748999Y-130443500D01*
X150811506Y-130494798D01*
X150811509Y-130494799D01*
X150811511Y-130494801D01*
X150989654Y-130590021D01*
X150989656Y-130590021D01*
X150989659Y-130590023D01*
X151182967Y-130648662D01*
X151384000Y-130668462D01*
X151585033Y-130648662D01*
X151778341Y-130590023D01*
X151956494Y-130494798D01*
X151956498Y-130494794D01*
X151960546Y-130492631D01*
X152028949Y-130478389D01*
X152077454Y-130492631D01*
X152081502Y-130494794D01*
X152081506Y-130494798D01*
X152259659Y-130590023D01*
X152452967Y-130648662D01*
X152654000Y-130668462D01*
X152855033Y-130648662D01*
X153048341Y-130590023D01*
X153048344Y-130590020D01*
X153050016Y-130589514D01*
X153119883Y-130588890D01*
X153148585Y-130603097D01*
X153149128Y-130602103D01*
X153156913Y-130606354D01*
X153291620Y-130656596D01*
X153291627Y-130656598D01*
X153351155Y-130662999D01*
X153351172Y-130663000D01*
X153674000Y-130663000D01*
X153674000Y-129747270D01*
X153674299Y-129741190D01*
X153678629Y-129697220D01*
X153743052Y-129747363D01*
X153861424Y-129788000D01*
X153955073Y-129788000D01*
X154047446Y-129772586D01*
X154157514Y-129713019D01*
X154174000Y-129695110D01*
X154174000Y-130663000D01*
X154496828Y-130663000D01*
X154496844Y-130662999D01*
X154556372Y-130656598D01*
X154556379Y-130656596D01*
X154691086Y-130606354D01*
X154691093Y-130606350D01*
X154806187Y-130520190D01*
X154806190Y-130520187D01*
X154892350Y-130405093D01*
X154892354Y-130405086D01*
X154942596Y-130270379D01*
X154942598Y-130270372D01*
X154948999Y-130210844D01*
X154949000Y-130210827D01*
X154949000Y-129663000D01*
X154203560Y-129663000D01*
X154242278Y-129620941D01*
X154292551Y-129506330D01*
X154302886Y-129381605D01*
X154272163Y-129260281D01*
X154208606Y-129163000D01*
X154949000Y-129163000D01*
X154949000Y-128615172D01*
X154948999Y-128615155D01*
X154942598Y-128555627D01*
X154942596Y-128555620D01*
X154892354Y-128420913D01*
X154892350Y-128420906D01*
X154806190Y-128305812D01*
X154806187Y-128305809D01*
X154691093Y-128219649D01*
X154691086Y-128219645D01*
X154556379Y-128169403D01*
X154556372Y-128169401D01*
X154496844Y-128163000D01*
X154174000Y-128163000D01*
X154174000Y-129132382D01*
X154104948Y-129078637D01*
X153986576Y-129038000D01*
X153892927Y-129038000D01*
X153800554Y-129053414D01*
X153690486Y-129112981D01*
X153678369Y-129126142D01*
X153674299Y-129084808D01*
X153674000Y-129078728D01*
X153674000Y-128163000D01*
X153351155Y-128163000D01*
X153291627Y-128169401D01*
X153291620Y-128169403D01*
X153156913Y-128219645D01*
X153149132Y-128223895D01*
X153147940Y-128221713D01*
X153094842Y-128241510D01*
X153050018Y-128236486D01*
X153048342Y-128235977D01*
X153048341Y-128235977D01*
X152967171Y-128211354D01*
X152855031Y-128177337D01*
X152654000Y-128157538D01*
X152452968Y-128177337D01*
X152259654Y-128235978D01*
X152077453Y-128333367D01*
X152009050Y-128347609D01*
X151960547Y-128333367D01*
X151778345Y-128235978D01*
X151585031Y-128177337D01*
X151384000Y-128157538D01*
X151182968Y-128177337D01*
X150989654Y-128235978D01*
X150811511Y-128331198D01*
X150811504Y-128331203D01*
X150655352Y-128459352D01*
X150527203Y-128615504D01*
X150527198Y-128615511D01*
X150431978Y-128793654D01*
X150373337Y-128986968D01*
X150358500Y-129137623D01*
X150358500Y-129688376D01*
X144800325Y-129688376D01*
X144845063Y-129521408D01*
X144865659Y-129286000D01*
X144845063Y-129050592D01*
X144783903Y-128822337D01*
X144684035Y-128608171D01*
X144647244Y-128555627D01*
X144548494Y-128414597D01*
X144381402Y-128247506D01*
X144381396Y-128247501D01*
X144195842Y-128117575D01*
X144152217Y-128062998D01*
X144145023Y-127993500D01*
X144176546Y-127931145D01*
X144195842Y-127914425D01*
X144218026Y-127898891D01*
X144381401Y-127784495D01*
X144548495Y-127617401D01*
X144684035Y-127423830D01*
X144783903Y-127209663D01*
X144845063Y-126981408D01*
X144865659Y-126746000D01*
X144845063Y-126510592D01*
X144783903Y-126282337D01*
X144684035Y-126068171D01*
X144548495Y-125874599D01*
X144548494Y-125874597D01*
X144381402Y-125707506D01*
X144381396Y-125707501D01*
X144195842Y-125577575D01*
X144152217Y-125522998D01*
X144145023Y-125453500D01*
X144176546Y-125391145D01*
X144195842Y-125374425D01*
X144218026Y-125358891D01*
X144381401Y-125244495D01*
X144548495Y-125077401D01*
X144684035Y-124883830D01*
X144783903Y-124669663D01*
X144845063Y-124441408D01*
X144865659Y-124206000D01*
X144845063Y-123970592D01*
X144783903Y-123742337D01*
X144782990Y-123740380D01*
X146548500Y-123740380D01*
X146550927Y-123765019D01*
X146563337Y-123891031D01*
X146621978Y-124084345D01*
X146717198Y-124262488D01*
X146717203Y-124262495D01*
X146845352Y-124418647D01*
X146897561Y-124461493D01*
X147001506Y-124546798D01*
X147001509Y-124546799D01*
X147001511Y-124546801D01*
X147179654Y-124642021D01*
X147179656Y-124642021D01*
X147179659Y-124642023D01*
X147372967Y-124700662D01*
X147574000Y-124720462D01*
X147775033Y-124700662D01*
X147968341Y-124642023D01*
X148146494Y-124546798D01*
X148146498Y-124546794D01*
X148150546Y-124544631D01*
X148218949Y-124530389D01*
X148267454Y-124544631D01*
X148271502Y-124546794D01*
X148271506Y-124546798D01*
X148449659Y-124642023D01*
X148642967Y-124700662D01*
X148844000Y-124720462D01*
X149045033Y-124700662D01*
X149238341Y-124642023D01*
X149238344Y-124642020D01*
X149240016Y-124641514D01*
X149309883Y-124640890D01*
X149338585Y-124655097D01*
X149339128Y-124654103D01*
X149346913Y-124658354D01*
X149481620Y-124708596D01*
X149481627Y-124708598D01*
X149541155Y-124714999D01*
X149541172Y-124715000D01*
X149864000Y-124715000D01*
X149864000Y-123799270D01*
X149864299Y-123793190D01*
X149867073Y-123765019D01*
X149868629Y-123749220D01*
X149933052Y-123799363D01*
X150051424Y-123840000D01*
X150145073Y-123840000D01*
X150237446Y-123824586D01*
X150347514Y-123765019D01*
X150364000Y-123747110D01*
X150364000Y-124715000D01*
X150686828Y-124715000D01*
X150686844Y-124714999D01*
X150746372Y-124708598D01*
X150746379Y-124708596D01*
X150881086Y-124658354D01*
X150881093Y-124658350D01*
X150996187Y-124572190D01*
X150996190Y-124572187D01*
X151082350Y-124457093D01*
X151082354Y-124457086D01*
X151132596Y-124322379D01*
X151132598Y-124322372D01*
X151138999Y-124262844D01*
X151139000Y-124262827D01*
X151139000Y-123744780D01*
X153812900Y-123744780D01*
X153815327Y-123769419D01*
X153827737Y-123895431D01*
X153886378Y-124088745D01*
X153981598Y-124266888D01*
X153981603Y-124266895D01*
X154109752Y-124423047D01*
X154203399Y-124499900D01*
X154265906Y-124551198D01*
X154265909Y-124551199D01*
X154265911Y-124551201D01*
X154444054Y-124646421D01*
X154444056Y-124646421D01*
X154444059Y-124646423D01*
X154637367Y-124705062D01*
X154838400Y-124724862D01*
X155039433Y-124705062D01*
X155232741Y-124646423D01*
X155410894Y-124551198D01*
X155410898Y-124551194D01*
X155414946Y-124549031D01*
X155483349Y-124534789D01*
X155531854Y-124549031D01*
X155535902Y-124551194D01*
X155535906Y-124551198D01*
X155714059Y-124646423D01*
X155907367Y-124705062D01*
X156108400Y-124724862D01*
X156309433Y-124705062D01*
X156502741Y-124646423D01*
X156502744Y-124646420D01*
X156504416Y-124645914D01*
X156574283Y-124645290D01*
X156602985Y-124659497D01*
X156603528Y-124658503D01*
X156611313Y-124662754D01*
X156746020Y-124712996D01*
X156746027Y-124712998D01*
X156805555Y-124719399D01*
X156805572Y-124719400D01*
X157128400Y-124719400D01*
X157128400Y-123803670D01*
X157128699Y-123797590D01*
X157133029Y-123753620D01*
X157197452Y-123803763D01*
X157315824Y-123844400D01*
X157409473Y-123844400D01*
X157501846Y-123828986D01*
X157611914Y-123769419D01*
X157628400Y-123751510D01*
X157628400Y-124719400D01*
X157951228Y-124719400D01*
X157951244Y-124719399D01*
X158010772Y-124712998D01*
X158010779Y-124712996D01*
X158145486Y-124662754D01*
X158145493Y-124662750D01*
X158260587Y-124576590D01*
X158260590Y-124576587D01*
X158346750Y-124461493D01*
X158346754Y-124461486D01*
X158396996Y-124326779D01*
X158396998Y-124326772D01*
X158403399Y-124267244D01*
X158403400Y-124267227D01*
X158403400Y-123719400D01*
X157657960Y-123719400D01*
X157696678Y-123677341D01*
X157746951Y-123562730D01*
X157757286Y-123438005D01*
X157726563Y-123316681D01*
X157663006Y-123219400D01*
X158403400Y-123219400D01*
X158403400Y-122671572D01*
X158403399Y-122671555D01*
X158396998Y-122612027D01*
X158396996Y-122612020D01*
X158346754Y-122477313D01*
X158346750Y-122477306D01*
X158260590Y-122362212D01*
X158260587Y-122362209D01*
X158145493Y-122276049D01*
X158145486Y-122276045D01*
X158010779Y-122225803D01*
X158010772Y-122225801D01*
X157951244Y-122219400D01*
X157628400Y-122219400D01*
X157628400Y-123188782D01*
X157559348Y-123135037D01*
X157440976Y-123094400D01*
X157347327Y-123094400D01*
X157254954Y-123109814D01*
X157144886Y-123169381D01*
X157132769Y-123182542D01*
X157128699Y-123141208D01*
X157128400Y-123135128D01*
X157128400Y-122219400D01*
X156805555Y-122219400D01*
X156746027Y-122225801D01*
X156746020Y-122225803D01*
X156611313Y-122276045D01*
X156603532Y-122280295D01*
X156602340Y-122278113D01*
X156549242Y-122297910D01*
X156504418Y-122292886D01*
X156502742Y-122292377D01*
X156502741Y-122292377D01*
X156421571Y-122267754D01*
X156309431Y-122233737D01*
X156108400Y-122213938D01*
X155907368Y-122233737D01*
X155714054Y-122292378D01*
X155531853Y-122389767D01*
X155463450Y-122404009D01*
X155414947Y-122389767D01*
X155232745Y-122292378D01*
X155039431Y-122233737D01*
X154838400Y-122213938D01*
X154637368Y-122233737D01*
X154444054Y-122292378D01*
X154265911Y-122387598D01*
X154265904Y-122387603D01*
X154109752Y-122515752D01*
X153981603Y-122671904D01*
X153981598Y-122671911D01*
X153886378Y-122850054D01*
X153827737Y-123043368D01*
X153816562Y-123156833D01*
X153812900Y-123194020D01*
X153812900Y-123744780D01*
X151139000Y-123744780D01*
X151139000Y-123715000D01*
X150393560Y-123715000D01*
X150432278Y-123672941D01*
X150482551Y-123558330D01*
X150492886Y-123433605D01*
X150462163Y-123312281D01*
X150398606Y-123215000D01*
X151139000Y-123215000D01*
X151139000Y-122667172D01*
X151138999Y-122667155D01*
X151132598Y-122607627D01*
X151132596Y-122607620D01*
X151082354Y-122472913D01*
X151082350Y-122472906D01*
X150996190Y-122357812D01*
X150996187Y-122357809D01*
X150881093Y-122271649D01*
X150881086Y-122271645D01*
X150746379Y-122221403D01*
X150746372Y-122221401D01*
X150686844Y-122215000D01*
X150364000Y-122215000D01*
X150364000Y-123184382D01*
X150294948Y-123130637D01*
X150176576Y-123090000D01*
X150082927Y-123090000D01*
X149990554Y-123105414D01*
X149880486Y-123164981D01*
X149868369Y-123178142D01*
X149867322Y-123167505D01*
X149864299Y-123136808D01*
X149864000Y-123130728D01*
X149864000Y-122215000D01*
X149541155Y-122215000D01*
X149481627Y-122221401D01*
X149481620Y-122221403D01*
X149346913Y-122271645D01*
X149339132Y-122275895D01*
X149337940Y-122273713D01*
X149284842Y-122293510D01*
X149240018Y-122288486D01*
X149238342Y-122287977D01*
X149238341Y-122287977D01*
X149157171Y-122263354D01*
X149045031Y-122229337D01*
X148844000Y-122209538D01*
X148642968Y-122229337D01*
X148449654Y-122287978D01*
X148267453Y-122385367D01*
X148199050Y-122399609D01*
X148150547Y-122385367D01*
X147968345Y-122287978D01*
X147775031Y-122229337D01*
X147574000Y-122209538D01*
X147372968Y-122229337D01*
X147179654Y-122287978D01*
X147001511Y-122383198D01*
X147001504Y-122383203D01*
X146845352Y-122511352D01*
X146717203Y-122667504D01*
X146717198Y-122667511D01*
X146621978Y-122845654D01*
X146563337Y-123038968D01*
X146553268Y-123141208D01*
X146548500Y-123189620D01*
X146548500Y-123740380D01*
X144782990Y-123740380D01*
X144684035Y-123528171D01*
X144664867Y-123500795D01*
X144548494Y-123334597D01*
X144381402Y-123167506D01*
X144381396Y-123167501D01*
X144195842Y-123037575D01*
X144152217Y-122982998D01*
X144145023Y-122913500D01*
X144176546Y-122851145D01*
X144195842Y-122834425D01*
X144218026Y-122818891D01*
X144381401Y-122704495D01*
X144548495Y-122537401D01*
X144684035Y-122343830D01*
X144783903Y-122129663D01*
X144845063Y-121901408D01*
X144865659Y-121666000D01*
X144845063Y-121430592D01*
X144783903Y-121202337D01*
X144684035Y-120988171D01*
X144548495Y-120794599D01*
X144548494Y-120794597D01*
X144381402Y-120627506D01*
X144381396Y-120627501D01*
X144195842Y-120497575D01*
X144152217Y-120442998D01*
X144145023Y-120373500D01*
X144176546Y-120311145D01*
X144195842Y-120294425D01*
X144218026Y-120278891D01*
X144381401Y-120164495D01*
X144548495Y-119997401D01*
X144684035Y-119803830D01*
X144783903Y-119589663D01*
X144845063Y-119361408D01*
X144865659Y-119126000D01*
X144845063Y-118890592D01*
X144783903Y-118662337D01*
X144684035Y-118448171D01*
X144670960Y-118429497D01*
X144548494Y-118254597D01*
X144403897Y-118110001D01*
X146522532Y-118110001D01*
X146542364Y-118336686D01*
X146542366Y-118336697D01*
X146601258Y-118556488D01*
X146601261Y-118556497D01*
X146697431Y-118762732D01*
X146697432Y-118762734D01*
X146827954Y-118949141D01*
X146988858Y-119110045D01*
X147011643Y-119125999D01*
X147175266Y-119240568D01*
X147381504Y-119336739D01*
X147601308Y-119395635D01*
X147763230Y-119409801D01*
X147827998Y-119415468D01*
X147828000Y-119415468D01*
X147828002Y-119415468D01*
X147884673Y-119410509D01*
X148054692Y-119395635D01*
X148274496Y-119336739D01*
X148480734Y-119240568D01*
X148667139Y-119110047D01*
X148828047Y-118949139D01*
X148958568Y-118762734D01*
X149054739Y-118556496D01*
X149113635Y-118336692D01*
X149133468Y-118110000D01*
X149122357Y-117983001D01*
X155031532Y-117983001D01*
X155051364Y-118209686D01*
X155051366Y-118209697D01*
X155110258Y-118429488D01*
X155110261Y-118429497D01*
X155206431Y-118635732D01*
X155206432Y-118635734D01*
X155336954Y-118822141D01*
X155497858Y-118983045D01*
X155497861Y-118983047D01*
X155684266Y-119113568D01*
X155890504Y-119209739D01*
X156110308Y-119268635D01*
X156272230Y-119282801D01*
X156336998Y-119288468D01*
X156337000Y-119288468D01*
X156337002Y-119288468D01*
X156393673Y-119283509D01*
X156563692Y-119268635D01*
X156783496Y-119209739D01*
X156989734Y-119113568D01*
X157176139Y-118983047D01*
X157337047Y-118822139D01*
X157467568Y-118635734D01*
X157563739Y-118429496D01*
X157622635Y-118209692D01*
X157642468Y-117983000D01*
X157622635Y-117756308D01*
X157563739Y-117536504D01*
X157467568Y-117330266D01*
X157337047Y-117143861D01*
X157337045Y-117143858D01*
X157176141Y-116982954D01*
X156989734Y-116852432D01*
X156989732Y-116852431D01*
X156783497Y-116756261D01*
X156783488Y-116756258D01*
X156563697Y-116697366D01*
X156563693Y-116697365D01*
X156563692Y-116697365D01*
X156563691Y-116697364D01*
X156563686Y-116697364D01*
X156337002Y-116677532D01*
X156336998Y-116677532D01*
X156110313Y-116697364D01*
X156110302Y-116697366D01*
X155890511Y-116756258D01*
X155890502Y-116756261D01*
X155684267Y-116852431D01*
X155684265Y-116852432D01*
X155497858Y-116982954D01*
X155336954Y-117143858D01*
X155206432Y-117330265D01*
X155206431Y-117330267D01*
X155110261Y-117536502D01*
X155110258Y-117536511D01*
X155051366Y-117756302D01*
X155051364Y-117756313D01*
X155031532Y-117982998D01*
X155031532Y-117983001D01*
X149122357Y-117983001D01*
X149113635Y-117883308D01*
X149054739Y-117663504D01*
X148958568Y-117457266D01*
X148828047Y-117270861D01*
X148828045Y-117270858D01*
X148667141Y-117109954D01*
X148480734Y-116979432D01*
X148480732Y-116979431D01*
X148274497Y-116883261D01*
X148274488Y-116883258D01*
X148054697Y-116824366D01*
X148054693Y-116824365D01*
X148054692Y-116824365D01*
X148054691Y-116824364D01*
X148054686Y-116824364D01*
X147828002Y-116804532D01*
X147827998Y-116804532D01*
X147601313Y-116824364D01*
X147601302Y-116824366D01*
X147381511Y-116883258D01*
X147381502Y-116883261D01*
X147175267Y-116979431D01*
X147175265Y-116979432D01*
X146988858Y-117109954D01*
X146827954Y-117270858D01*
X146697432Y-117457265D01*
X146697431Y-117457267D01*
X146601261Y-117663502D01*
X146601258Y-117663511D01*
X146542366Y-117883302D01*
X146542364Y-117883313D01*
X146522532Y-118109998D01*
X146522532Y-118110001D01*
X144403897Y-118110001D01*
X144381402Y-118087506D01*
X144381396Y-118087501D01*
X144195842Y-117957575D01*
X144152217Y-117902998D01*
X144145023Y-117833500D01*
X144176546Y-117771145D01*
X144195842Y-117754425D01*
X144325693Y-117663502D01*
X144381401Y-117624495D01*
X144548495Y-117457401D01*
X144684035Y-117263830D01*
X144783903Y-117049663D01*
X144845063Y-116821408D01*
X144865659Y-116586000D01*
X144845063Y-116350592D01*
X144783903Y-116122337D01*
X144684035Y-115908171D01*
X144548495Y-115714599D01*
X144548494Y-115714597D01*
X144381402Y-115547506D01*
X144381396Y-115547501D01*
X144195842Y-115417575D01*
X144152217Y-115362998D01*
X144145023Y-115293500D01*
X144176546Y-115231145D01*
X144195842Y-115214425D01*
X144218026Y-115198891D01*
X144381401Y-115084495D01*
X144548495Y-114917401D01*
X144684035Y-114723830D01*
X144783903Y-114509663D01*
X144845063Y-114281408D01*
X144865659Y-114046000D01*
X144845063Y-113810592D01*
X144783903Y-113582337D01*
X144684035Y-113368171D01*
X144548495Y-113174599D01*
X144548494Y-113174597D01*
X144381402Y-113007506D01*
X144381396Y-113007501D01*
X144195842Y-112877575D01*
X144152217Y-112822998D01*
X144145023Y-112753500D01*
X144176546Y-112691145D01*
X144195842Y-112674425D01*
X144254936Y-112633047D01*
X144381401Y-112544495D01*
X144548495Y-112377401D01*
X144684035Y-112183830D01*
X144783903Y-111969663D01*
X144845063Y-111741408D01*
X144854548Y-111633001D01*
X150586532Y-111633001D01*
X150606364Y-111859686D01*
X150606366Y-111859697D01*
X150665258Y-112079488D01*
X150665261Y-112079497D01*
X150761431Y-112285732D01*
X150761432Y-112285734D01*
X150891954Y-112472141D01*
X151052858Y-112633045D01*
X151052861Y-112633047D01*
X151239266Y-112763568D01*
X151445504Y-112859739D01*
X151665308Y-112918635D01*
X151827230Y-112932801D01*
X151891998Y-112938468D01*
X151892000Y-112938468D01*
X151892002Y-112938468D01*
X151948673Y-112933509D01*
X152118692Y-112918635D01*
X152338496Y-112859739D01*
X152544734Y-112763568D01*
X152731139Y-112633047D01*
X152892047Y-112472139D01*
X153022568Y-112285734D01*
X153118739Y-112079496D01*
X153177635Y-111859692D01*
X153197468Y-111633000D01*
X153177635Y-111406308D01*
X153118739Y-111186504D01*
X153022568Y-110980266D01*
X152892047Y-110793861D01*
X152892045Y-110793858D01*
X152731141Y-110632954D01*
X152544734Y-110502432D01*
X152544732Y-110502431D01*
X152338497Y-110406261D01*
X152338488Y-110406258D01*
X152118697Y-110347366D01*
X152118693Y-110347365D01*
X152118692Y-110347365D01*
X152118691Y-110347364D01*
X152118686Y-110347364D01*
X151892002Y-110327532D01*
X151891998Y-110327532D01*
X151665313Y-110347364D01*
X151665302Y-110347366D01*
X151445511Y-110406258D01*
X151445502Y-110406261D01*
X151239267Y-110502431D01*
X151239265Y-110502432D01*
X151052858Y-110632954D01*
X150891954Y-110793858D01*
X150761432Y-110980265D01*
X150761431Y-110980267D01*
X150665261Y-111186502D01*
X150665258Y-111186511D01*
X150606366Y-111406302D01*
X150606364Y-111406313D01*
X150586532Y-111632998D01*
X150586532Y-111633001D01*
X144854548Y-111633001D01*
X144865659Y-111506000D01*
X144845063Y-111270592D01*
X144783903Y-111042337D01*
X144684035Y-110828171D01*
X144548495Y-110634599D01*
X144548494Y-110634597D01*
X144381402Y-110467506D01*
X144381396Y-110467501D01*
X144195842Y-110337575D01*
X144152217Y-110282998D01*
X144145023Y-110213500D01*
X144176546Y-110151145D01*
X144195842Y-110134425D01*
X144218026Y-110118891D01*
X144381401Y-110004495D01*
X144548495Y-109837401D01*
X144684035Y-109643830D01*
X144783903Y-109429663D01*
X144845063Y-109201408D01*
X144865659Y-108966000D01*
X144845063Y-108730592D01*
X144783903Y-108502337D01*
X144684035Y-108288171D01*
X144670960Y-108269497D01*
X144548494Y-108094597D01*
X144381402Y-107927506D01*
X144381396Y-107927501D01*
X144195842Y-107797575D01*
X144152217Y-107742998D01*
X144145023Y-107673500D01*
X144176546Y-107611145D01*
X144195842Y-107594425D01*
X144325693Y-107503502D01*
X144381401Y-107464495D01*
X144548495Y-107297401D01*
X144684035Y-107103830D01*
X144783903Y-106889663D01*
X144845063Y-106661408D01*
X144865659Y-106426000D01*
X144864571Y-106413570D01*
X144845063Y-106190596D01*
X144845063Y-106190592D01*
X144783903Y-105962337D01*
X144684035Y-105748171D01*
X144670960Y-105729497D01*
X144548494Y-105554597D01*
X144403897Y-105410001D01*
X146395532Y-105410001D01*
X146415364Y-105636686D01*
X146415366Y-105636697D01*
X146474258Y-105856488D01*
X146474261Y-105856497D01*
X146570431Y-106062732D01*
X146570432Y-106062734D01*
X146700954Y-106249141D01*
X146861858Y-106410045D01*
X146866892Y-106413570D01*
X147048266Y-106540568D01*
X147169839Y-106597258D01*
X147222276Y-106643429D01*
X147241428Y-106710623D01*
X147221212Y-106777504D01*
X147179442Y-106817020D01*
X147175272Y-106819427D01*
X146988858Y-106949954D01*
X146827954Y-107110858D01*
X146697432Y-107297265D01*
X146697431Y-107297267D01*
X146601261Y-107503502D01*
X146601258Y-107503511D01*
X146542366Y-107723302D01*
X146542364Y-107723313D01*
X146522532Y-107949998D01*
X146522532Y-107950001D01*
X146542364Y-108176686D01*
X146542366Y-108176697D01*
X146601258Y-108396488D01*
X146601261Y-108396497D01*
X146697431Y-108602732D01*
X146697432Y-108602734D01*
X146827954Y-108789141D01*
X146988858Y-108950045D01*
X147011643Y-108965999D01*
X147175266Y-109080568D01*
X147381504Y-109176739D01*
X147601308Y-109235635D01*
X147763230Y-109249801D01*
X147827998Y-109255468D01*
X147828000Y-109255468D01*
X147828002Y-109255468D01*
X147884673Y-109250509D01*
X148054692Y-109235635D01*
X148274496Y-109176739D01*
X148480734Y-109080568D01*
X148667139Y-108950047D01*
X148828047Y-108789139D01*
X148958568Y-108602734D01*
X149054739Y-108396496D01*
X149113635Y-108176692D01*
X149133468Y-107950000D01*
X149122357Y-107823001D01*
X155031532Y-107823001D01*
X155051364Y-108049686D01*
X155051366Y-108049697D01*
X155110258Y-108269488D01*
X155110261Y-108269497D01*
X155206431Y-108475732D01*
X155206432Y-108475734D01*
X155336954Y-108662141D01*
X155497858Y-108823045D01*
X155497861Y-108823047D01*
X155684266Y-108953568D01*
X155890504Y-109049739D01*
X156110308Y-109108635D01*
X156272230Y-109122801D01*
X156336998Y-109128468D01*
X156337000Y-109128468D01*
X156337002Y-109128468D01*
X156393673Y-109123509D01*
X156563692Y-109108635D01*
X156783496Y-109049739D01*
X156989734Y-108953568D01*
X157176139Y-108823047D01*
X157337047Y-108662139D01*
X157467568Y-108475734D01*
X157563739Y-108269496D01*
X157622635Y-108049692D01*
X157642468Y-107823000D01*
X157622635Y-107596308D01*
X157563739Y-107376504D01*
X157467568Y-107170266D01*
X157337047Y-106983861D01*
X157337045Y-106983858D01*
X157176141Y-106822954D01*
X156989734Y-106692432D01*
X156989728Y-106692429D01*
X156931725Y-106665382D01*
X156879285Y-106619210D01*
X156860133Y-106552017D01*
X156880348Y-106485135D01*
X156931725Y-106440618D01*
X156989734Y-106413568D01*
X157176139Y-106283047D01*
X157337047Y-106122139D01*
X157467568Y-105935734D01*
X157563739Y-105729496D01*
X157622635Y-105509692D01*
X157642468Y-105283000D01*
X157622635Y-105056308D01*
X157563739Y-104836504D01*
X157467568Y-104630266D01*
X157337047Y-104443861D01*
X157337045Y-104443858D01*
X157176141Y-104282954D01*
X156989734Y-104152432D01*
X156989732Y-104152431D01*
X156783497Y-104056261D01*
X156783488Y-104056258D01*
X156563697Y-103997366D01*
X156563693Y-103997365D01*
X156563692Y-103997365D01*
X156563691Y-103997364D01*
X156563686Y-103997364D01*
X156337002Y-103977532D01*
X156336998Y-103977532D01*
X156110313Y-103997364D01*
X156110302Y-103997366D01*
X155890511Y-104056258D01*
X155890502Y-104056261D01*
X155684267Y-104152431D01*
X155684265Y-104152432D01*
X155497858Y-104282954D01*
X155336954Y-104443858D01*
X155206432Y-104630265D01*
X155206431Y-104630267D01*
X155110261Y-104836502D01*
X155110258Y-104836511D01*
X155051366Y-105056302D01*
X155051364Y-105056313D01*
X155031532Y-105282998D01*
X155031532Y-105283001D01*
X155051364Y-105509686D01*
X155051366Y-105509697D01*
X155110258Y-105729488D01*
X155110261Y-105729497D01*
X155206431Y-105935732D01*
X155206432Y-105935734D01*
X155336954Y-106122141D01*
X155497858Y-106283045D01*
X155497861Y-106283047D01*
X155684266Y-106413568D01*
X155742275Y-106440618D01*
X155794714Y-106486791D01*
X155813866Y-106553984D01*
X155793650Y-106620865D01*
X155742275Y-106665382D01*
X155684267Y-106692431D01*
X155684265Y-106692432D01*
X155497858Y-106822954D01*
X155336954Y-106983858D01*
X155206432Y-107170265D01*
X155206431Y-107170267D01*
X155110261Y-107376502D01*
X155110258Y-107376511D01*
X155051366Y-107596302D01*
X155051364Y-107596313D01*
X155031532Y-107822998D01*
X155031532Y-107823001D01*
X149122357Y-107823001D01*
X149113635Y-107723308D01*
X149054739Y-107503504D01*
X148958568Y-107297266D01*
X148828047Y-107110861D01*
X148828045Y-107110858D01*
X148667141Y-106949954D01*
X148480734Y-106819432D01*
X148480732Y-106819431D01*
X148460252Y-106809881D01*
X148359161Y-106762741D01*
X148306723Y-106716570D01*
X148287571Y-106649376D01*
X148307787Y-106582495D01*
X148349571Y-106542971D01*
X148353728Y-106540570D01*
X148353734Y-106540568D01*
X148540139Y-106410047D01*
X148701047Y-106249139D01*
X148831568Y-106062734D01*
X148927739Y-105856496D01*
X148986635Y-105636692D01*
X149006468Y-105410000D01*
X148986635Y-105183308D01*
X148927739Y-104963504D01*
X148831568Y-104757266D01*
X148701047Y-104570861D01*
X148701045Y-104570858D01*
X148540141Y-104409954D01*
X148353734Y-104279432D01*
X148353732Y-104279431D01*
X148147497Y-104183261D01*
X148147488Y-104183258D01*
X147927697Y-104124366D01*
X147927693Y-104124365D01*
X147927692Y-104124365D01*
X147927691Y-104124364D01*
X147927686Y-104124364D01*
X147701002Y-104104532D01*
X147700998Y-104104532D01*
X147474313Y-104124364D01*
X147474302Y-104124366D01*
X147254511Y-104183258D01*
X147254502Y-104183261D01*
X147048267Y-104279431D01*
X147048265Y-104279432D01*
X146861858Y-104409954D01*
X146700954Y-104570858D01*
X146570432Y-104757265D01*
X146570431Y-104757267D01*
X146474261Y-104963502D01*
X146474258Y-104963511D01*
X146415366Y-105183302D01*
X146415364Y-105183313D01*
X146395532Y-105409998D01*
X146395532Y-105410001D01*
X144403897Y-105410001D01*
X144381402Y-105387506D01*
X144381396Y-105387501D01*
X144195842Y-105257575D01*
X144152217Y-105202998D01*
X144145023Y-105133500D01*
X144176546Y-105071145D01*
X144195842Y-105054425D01*
X144325693Y-104963502D01*
X144381401Y-104924495D01*
X144548495Y-104757401D01*
X144684035Y-104563830D01*
X144783903Y-104349663D01*
X144845063Y-104121408D01*
X144865659Y-103886000D01*
X144845063Y-103650592D01*
X144783903Y-103422337D01*
X144684035Y-103208171D01*
X144548495Y-103014599D01*
X144548494Y-103014597D01*
X144381402Y-102847506D01*
X144381396Y-102847501D01*
X144195842Y-102717575D01*
X144152217Y-102662998D01*
X144145023Y-102593500D01*
X144176546Y-102531145D01*
X144195842Y-102514425D01*
X144254936Y-102473047D01*
X144381401Y-102384495D01*
X144548495Y-102217401D01*
X144684035Y-102023830D01*
X144783903Y-101809663D01*
X144845063Y-101581408D01*
X144854548Y-101473001D01*
X150586532Y-101473001D01*
X150606364Y-101699686D01*
X150606366Y-101699697D01*
X150665258Y-101919488D01*
X150665261Y-101919497D01*
X150761431Y-102125732D01*
X150761432Y-102125734D01*
X150891954Y-102312141D01*
X151052858Y-102473045D01*
X151052861Y-102473047D01*
X151239266Y-102603568D01*
X151445504Y-102699739D01*
X151665308Y-102758635D01*
X151827230Y-102772801D01*
X151891998Y-102778468D01*
X151892000Y-102778468D01*
X151892002Y-102778468D01*
X151948673Y-102773509D01*
X152118692Y-102758635D01*
X152338496Y-102699739D01*
X152544734Y-102603568D01*
X152731139Y-102473047D01*
X152892047Y-102312139D01*
X153022568Y-102125734D01*
X153118739Y-101919496D01*
X153177635Y-101699692D01*
X153197468Y-101473000D01*
X153177635Y-101246308D01*
X153118739Y-101026504D01*
X153022568Y-100820266D01*
X152892047Y-100633861D01*
X152892045Y-100633858D01*
X152731141Y-100472954D01*
X152544734Y-100342432D01*
X152544732Y-100342431D01*
X152338497Y-100246261D01*
X152338488Y-100246258D01*
X152118697Y-100187366D01*
X152118693Y-100187365D01*
X152118692Y-100187365D01*
X152118691Y-100187364D01*
X152118686Y-100187364D01*
X151892002Y-100167532D01*
X151891998Y-100167532D01*
X151665313Y-100187364D01*
X151665302Y-100187366D01*
X151445511Y-100246258D01*
X151445502Y-100246261D01*
X151239267Y-100342431D01*
X151239265Y-100342432D01*
X151052858Y-100472954D01*
X150891954Y-100633858D01*
X150761432Y-100820265D01*
X150761431Y-100820267D01*
X150665261Y-101026502D01*
X150665258Y-101026511D01*
X150606366Y-101246302D01*
X150606364Y-101246313D01*
X150586532Y-101472998D01*
X150586532Y-101473001D01*
X144854548Y-101473001D01*
X144865659Y-101346000D01*
X144845063Y-101110592D01*
X144783903Y-100882337D01*
X144684035Y-100668171D01*
X144548495Y-100474599D01*
X144548494Y-100474597D01*
X144381402Y-100307506D01*
X144381396Y-100307501D01*
X144195842Y-100177575D01*
X144152217Y-100122998D01*
X144145023Y-100053500D01*
X144176546Y-99991145D01*
X144195842Y-99974425D01*
X144218026Y-99958891D01*
X144381401Y-99844495D01*
X144548495Y-99677401D01*
X144684035Y-99483830D01*
X144783903Y-99269663D01*
X144845063Y-99041408D01*
X144865659Y-98806000D01*
X144845063Y-98570592D01*
X144783903Y-98342337D01*
X144684035Y-98128171D01*
X144548495Y-97934599D01*
X144548494Y-97934597D01*
X144381402Y-97767506D01*
X144381396Y-97767501D01*
X144195842Y-97637575D01*
X144152217Y-97582998D01*
X144145023Y-97513500D01*
X144176546Y-97451145D01*
X144195842Y-97434425D01*
X144218026Y-97418891D01*
X144381401Y-97304495D01*
X144548495Y-97137401D01*
X144684035Y-96943830D01*
X144783903Y-96729663D01*
X144845063Y-96501408D01*
X144865659Y-96266000D01*
X144845063Y-96030592D01*
X144783903Y-95802337D01*
X144684035Y-95588171D01*
X144670959Y-95569497D01*
X144548496Y-95394600D01*
X144503582Y-95349686D01*
X144426567Y-95272671D01*
X144414188Y-95250001D01*
X146395532Y-95250001D01*
X146415364Y-95476686D01*
X146415366Y-95476697D01*
X146474258Y-95696488D01*
X146474261Y-95696497D01*
X146570431Y-95902732D01*
X146570432Y-95902734D01*
X146700954Y-96089141D01*
X146861858Y-96250045D01*
X146884643Y-96265999D01*
X147048266Y-96380568D01*
X147254504Y-96476739D01*
X147474308Y-96535635D01*
X147636230Y-96549801D01*
X147700998Y-96555468D01*
X147701000Y-96555468D01*
X147701002Y-96555468D01*
X147757673Y-96550509D01*
X147927692Y-96535635D01*
X148147496Y-96476739D01*
X148353734Y-96380568D01*
X148540139Y-96250047D01*
X148701047Y-96089139D01*
X148831568Y-95902734D01*
X148927739Y-95696496D01*
X148986635Y-95476692D01*
X149006468Y-95250000D01*
X148995357Y-95123001D01*
X155031532Y-95123001D01*
X155051364Y-95349686D01*
X155051366Y-95349697D01*
X155110258Y-95569488D01*
X155110261Y-95569497D01*
X155206431Y-95775732D01*
X155206432Y-95775734D01*
X155336954Y-95962141D01*
X155497858Y-96123045D01*
X155497861Y-96123047D01*
X155684266Y-96253568D01*
X155890504Y-96349739D01*
X156110308Y-96408635D01*
X156272230Y-96422801D01*
X156336998Y-96428468D01*
X156337000Y-96428468D01*
X156337002Y-96428468D01*
X156393673Y-96423509D01*
X156563692Y-96408635D01*
X156783496Y-96349739D01*
X156989734Y-96253568D01*
X157176139Y-96123047D01*
X157337047Y-95962139D01*
X157467568Y-95775734D01*
X157563739Y-95569496D01*
X157622635Y-95349692D01*
X157642468Y-95123000D01*
X157622635Y-94896308D01*
X157563739Y-94676504D01*
X157467568Y-94470266D01*
X157337047Y-94283861D01*
X157337045Y-94283858D01*
X157176141Y-94122954D01*
X156989734Y-93992432D01*
X156989732Y-93992431D01*
X156783497Y-93896261D01*
X156783488Y-93896258D01*
X156563697Y-93837366D01*
X156563693Y-93837365D01*
X156563692Y-93837365D01*
X156563691Y-93837364D01*
X156563686Y-93837364D01*
X156337002Y-93817532D01*
X156336998Y-93817532D01*
X156110313Y-93837364D01*
X156110302Y-93837366D01*
X155890511Y-93896258D01*
X155890502Y-93896261D01*
X155684267Y-93992431D01*
X155684265Y-93992432D01*
X155497858Y-94122954D01*
X155336954Y-94283858D01*
X155206432Y-94470265D01*
X155206431Y-94470267D01*
X155110261Y-94676502D01*
X155110258Y-94676511D01*
X155051366Y-94896302D01*
X155051364Y-94896313D01*
X155031532Y-95122998D01*
X155031532Y-95123001D01*
X148995357Y-95123001D01*
X148986635Y-95023308D01*
X148927739Y-94803504D01*
X148831568Y-94597266D01*
X148701047Y-94410861D01*
X148701045Y-94410858D01*
X148540141Y-94249954D01*
X148353734Y-94119432D01*
X148353732Y-94119431D01*
X148147497Y-94023261D01*
X148147488Y-94023258D01*
X147927697Y-93964366D01*
X147927693Y-93964365D01*
X147927692Y-93964365D01*
X147927691Y-93964364D01*
X147927686Y-93964364D01*
X147701002Y-93944532D01*
X147700998Y-93944532D01*
X147474313Y-93964364D01*
X147474302Y-93964366D01*
X147254511Y-94023258D01*
X147254502Y-94023261D01*
X147048267Y-94119431D01*
X147048265Y-94119432D01*
X146861858Y-94249954D01*
X146700954Y-94410858D01*
X146570432Y-94597265D01*
X146570431Y-94597267D01*
X146474261Y-94803502D01*
X146474258Y-94803511D01*
X146415366Y-95023302D01*
X146415364Y-95023313D01*
X146395532Y-95249998D01*
X146395532Y-95250001D01*
X144414188Y-95250001D01*
X144393084Y-95211351D01*
X144398068Y-95141659D01*
X144439939Y-95085725D01*
X144470915Y-95068810D01*
X144602331Y-95019796D01*
X144717546Y-94933546D01*
X144803796Y-94818331D01*
X144854091Y-94683483D01*
X144860500Y-94623873D01*
X144860499Y-92828128D01*
X144854091Y-92768517D01*
X144803796Y-92633669D01*
X144803795Y-92633668D01*
X144803793Y-92633664D01*
X144717547Y-92518455D01*
X144717544Y-92518452D01*
X144602335Y-92432206D01*
X144602328Y-92432202D01*
X144467482Y-92381908D01*
X144467483Y-92381908D01*
X144407883Y-92375501D01*
X144407881Y-92375500D01*
X144407873Y-92375500D01*
X144407864Y-92375500D01*
X142612129Y-92375500D01*
X142612123Y-92375501D01*
X142552516Y-92381908D01*
X142417671Y-92432202D01*
X142417664Y-92432206D01*
X142302455Y-92518452D01*
X142302452Y-92518455D01*
X142216206Y-92633664D01*
X142216202Y-92633671D01*
X142165908Y-92768517D01*
X142159501Y-92828116D01*
X142159501Y-92828123D01*
X142159500Y-92828135D01*
X142159500Y-94623870D01*
X142159501Y-94623876D01*
X142165908Y-94683483D01*
X142216202Y-94818328D01*
X142216206Y-94818335D01*
X142302452Y-94933544D01*
X142302455Y-94933547D01*
X142417664Y-95019793D01*
X142417671Y-95019797D01*
X142549081Y-95068810D01*
X142605015Y-95110681D01*
X142629432Y-95176145D01*
X142614580Y-95244418D01*
X142593430Y-95272673D01*
X142471503Y-95394600D01*
X142335965Y-95588169D01*
X142335964Y-95588171D01*
X142236098Y-95802335D01*
X142236094Y-95802344D01*
X142174938Y-96030586D01*
X142174936Y-96030596D01*
X142154341Y-96265999D01*
X142154341Y-96266000D01*
X142174936Y-96501403D01*
X142174938Y-96501413D01*
X142236094Y-96729655D01*
X142236096Y-96729659D01*
X142236097Y-96729663D01*
X142335965Y-96943830D01*
X142335967Y-96943834D01*
X142471501Y-97137395D01*
X142471506Y-97137402D01*
X142638597Y-97304493D01*
X142638603Y-97304498D01*
X142824158Y-97434425D01*
X142867783Y-97489002D01*
X142874977Y-97558500D01*
X142843454Y-97620855D01*
X142824158Y-97637575D01*
X142638597Y-97767505D01*
X142471505Y-97934597D01*
X142335965Y-98128169D01*
X142335964Y-98128171D01*
X142236098Y-98342335D01*
X142236094Y-98342344D01*
X142174938Y-98570586D01*
X142174936Y-98570596D01*
X142154341Y-98805999D01*
X142154341Y-98806000D01*
X142174936Y-99041403D01*
X142174938Y-99041413D01*
X142236094Y-99269655D01*
X142236096Y-99269659D01*
X142236097Y-99269663D01*
X142335965Y-99483830D01*
X142335967Y-99483834D01*
X142471501Y-99677395D01*
X142471506Y-99677402D01*
X142638597Y-99844493D01*
X142638603Y-99844498D01*
X142824158Y-99974425D01*
X142867783Y-100029002D01*
X142874977Y-100098500D01*
X142843454Y-100160855D01*
X142824158Y-100177575D01*
X142638597Y-100307505D01*
X142471505Y-100474597D01*
X142335965Y-100668169D01*
X142335964Y-100668171D01*
X142236098Y-100882335D01*
X142236094Y-100882344D01*
X142174938Y-101110586D01*
X142174936Y-101110596D01*
X142154341Y-101345999D01*
X142154341Y-101346000D01*
X142174936Y-101581403D01*
X142174938Y-101581413D01*
X142236094Y-101809655D01*
X142236096Y-101809659D01*
X142236097Y-101809663D01*
X142287313Y-101919496D01*
X142335965Y-102023830D01*
X142335967Y-102023834D01*
X142471501Y-102217395D01*
X142471506Y-102217402D01*
X142638597Y-102384493D01*
X142638603Y-102384498D01*
X142824158Y-102514425D01*
X142867783Y-102569002D01*
X142874977Y-102638500D01*
X142843454Y-102700855D01*
X142824158Y-102717575D01*
X142638597Y-102847505D01*
X142471505Y-103014597D01*
X142335965Y-103208169D01*
X142335964Y-103208171D01*
X142236098Y-103422335D01*
X142236094Y-103422344D01*
X142174938Y-103650586D01*
X142174936Y-103650596D01*
X142154341Y-103885999D01*
X142154341Y-103886000D01*
X142174936Y-104121403D01*
X142174938Y-104121413D01*
X142236094Y-104349655D01*
X142236096Y-104349659D01*
X142236097Y-104349663D01*
X142335965Y-104563830D01*
X142335967Y-104563834D01*
X142444281Y-104718521D01*
X142471410Y-104757266D01*
X142471501Y-104757395D01*
X142471506Y-104757402D01*
X142638597Y-104924493D01*
X142638603Y-104924498D01*
X142824158Y-105054425D01*
X142867783Y-105109002D01*
X142874977Y-105178500D01*
X142843454Y-105240855D01*
X142824158Y-105257575D01*
X142638597Y-105387505D01*
X142471505Y-105554597D01*
X142335965Y-105748169D01*
X142335964Y-105748171D01*
X142236098Y-105962335D01*
X142236094Y-105962344D01*
X142174938Y-106190586D01*
X142174936Y-106190596D01*
X142154341Y-106425999D01*
X142154341Y-106426000D01*
X142174936Y-106661403D01*
X142174938Y-106661413D01*
X142236094Y-106889655D01*
X142236096Y-106889659D01*
X142236097Y-106889663D01*
X142335965Y-107103830D01*
X142335967Y-107103834D01*
X142444281Y-107258521D01*
X142471410Y-107297266D01*
X142471501Y-107297395D01*
X142471506Y-107297402D01*
X142638597Y-107464493D01*
X142638603Y-107464498D01*
X142824158Y-107594425D01*
X142867783Y-107649002D01*
X142874977Y-107718500D01*
X142843454Y-107780855D01*
X142824158Y-107797575D01*
X142638597Y-107927505D01*
X142471505Y-108094597D01*
X142335965Y-108288169D01*
X142335964Y-108288171D01*
X142236098Y-108502335D01*
X142236094Y-108502344D01*
X142174938Y-108730586D01*
X142174936Y-108730596D01*
X142154341Y-108965999D01*
X142154341Y-108966000D01*
X142174936Y-109201403D01*
X142174938Y-109201413D01*
X142236094Y-109429655D01*
X142236096Y-109429659D01*
X142236097Y-109429663D01*
X142335965Y-109643830D01*
X142335967Y-109643834D01*
X142471501Y-109837395D01*
X142471506Y-109837402D01*
X142638597Y-110004493D01*
X142638603Y-110004498D01*
X142824158Y-110134425D01*
X142867783Y-110189002D01*
X142874977Y-110258500D01*
X142843454Y-110320855D01*
X142824158Y-110337575D01*
X142638597Y-110467505D01*
X142471505Y-110634597D01*
X142335965Y-110828169D01*
X142335964Y-110828171D01*
X142236098Y-111042335D01*
X142236094Y-111042344D01*
X142174938Y-111270586D01*
X142174936Y-111270596D01*
X142154341Y-111505999D01*
X142154341Y-111506000D01*
X142174936Y-111741403D01*
X142174938Y-111741413D01*
X142236094Y-111969655D01*
X142236096Y-111969659D01*
X142236097Y-111969663D01*
X142287313Y-112079496D01*
X142335965Y-112183830D01*
X142335967Y-112183834D01*
X142471501Y-112377395D01*
X142471506Y-112377402D01*
X142638597Y-112544493D01*
X142638603Y-112544498D01*
X142824158Y-112674425D01*
X142867783Y-112729002D01*
X142874977Y-112798500D01*
X142843454Y-112860855D01*
X142824158Y-112877575D01*
X142638597Y-113007505D01*
X142471505Y-113174597D01*
X142335965Y-113368169D01*
X142335964Y-113368171D01*
X142236098Y-113582335D01*
X142236094Y-113582344D01*
X142174938Y-113810586D01*
X142174936Y-113810596D01*
X142154341Y-114045999D01*
X142154341Y-114046000D01*
X142174936Y-114281403D01*
X142174938Y-114281413D01*
X142236094Y-114509655D01*
X142236096Y-114509659D01*
X142236097Y-114509663D01*
X142335965Y-114723830D01*
X142335967Y-114723834D01*
X142471501Y-114917395D01*
X142471506Y-114917402D01*
X142638597Y-115084493D01*
X142638603Y-115084498D01*
X142824158Y-115214425D01*
X142867783Y-115269002D01*
X142874977Y-115338500D01*
X142843454Y-115400855D01*
X142824158Y-115417575D01*
X142638597Y-115547505D01*
X142471505Y-115714597D01*
X142335965Y-115908169D01*
X142335964Y-115908171D01*
X142236098Y-116122335D01*
X142236094Y-116122344D01*
X142174938Y-116350586D01*
X142174936Y-116350596D01*
X142154341Y-116585999D01*
X142154341Y-116586000D01*
X142174936Y-116821403D01*
X142174938Y-116821413D01*
X142236094Y-117049655D01*
X142236096Y-117049659D01*
X142236097Y-117049663D01*
X142335965Y-117263830D01*
X142335967Y-117263834D01*
X142444281Y-117418521D01*
X142471410Y-117457266D01*
X142471501Y-117457395D01*
X142471506Y-117457402D01*
X142638597Y-117624493D01*
X142638603Y-117624498D01*
X142824158Y-117754425D01*
X142867783Y-117809002D01*
X142874977Y-117878500D01*
X142843454Y-117940855D01*
X142824158Y-117957575D01*
X142638597Y-118087505D01*
X142471505Y-118254597D01*
X142335965Y-118448169D01*
X142335964Y-118448171D01*
X142236098Y-118662335D01*
X142236094Y-118662344D01*
X142174938Y-118890586D01*
X142174936Y-118890596D01*
X142154341Y-119125999D01*
X142154341Y-119126000D01*
X142174936Y-119361403D01*
X142174938Y-119361413D01*
X142236094Y-119589655D01*
X142236096Y-119589659D01*
X142236097Y-119589663D01*
X142335965Y-119803830D01*
X142335967Y-119803834D01*
X142471501Y-119997395D01*
X142471506Y-119997402D01*
X142638597Y-120164493D01*
X142638603Y-120164498D01*
X142824158Y-120294425D01*
X142867783Y-120349002D01*
X142874977Y-120418500D01*
X142843454Y-120480855D01*
X142824158Y-120497575D01*
X142638597Y-120627505D01*
X142471505Y-120794597D01*
X142335965Y-120988169D01*
X142335964Y-120988171D01*
X142236098Y-121202335D01*
X142236094Y-121202344D01*
X142174938Y-121430586D01*
X142174936Y-121430596D01*
X142154341Y-121665999D01*
X142154341Y-121666000D01*
X142174936Y-121901403D01*
X142174938Y-121901413D01*
X142236094Y-122129655D01*
X142236096Y-122129659D01*
X142236097Y-122129663D01*
X142312209Y-122292886D01*
X142335965Y-122343830D01*
X142335967Y-122343834D01*
X142471501Y-122537395D01*
X142471506Y-122537402D01*
X142638597Y-122704493D01*
X142638603Y-122704498D01*
X142824158Y-122834425D01*
X142867783Y-122889002D01*
X142874977Y-122958500D01*
X142843454Y-123020855D01*
X142824158Y-123037575D01*
X142638597Y-123167505D01*
X142471505Y-123334597D01*
X142335965Y-123528169D01*
X142335964Y-123528171D01*
X142236098Y-123742335D01*
X142236094Y-123742344D01*
X142174938Y-123970586D01*
X142174936Y-123970596D01*
X142154341Y-124205999D01*
X142154341Y-124206000D01*
X142174936Y-124441403D01*
X142174938Y-124441413D01*
X142236094Y-124669655D01*
X142236096Y-124669659D01*
X142236097Y-124669663D01*
X142261837Y-124724862D01*
X142335965Y-124883830D01*
X142335967Y-124883834D01*
X142471501Y-125077395D01*
X142471506Y-125077402D01*
X142638597Y-125244493D01*
X142638603Y-125244498D01*
X142824158Y-125374425D01*
X142867783Y-125429002D01*
X142874977Y-125498500D01*
X142843454Y-125560855D01*
X142824158Y-125577575D01*
X142638597Y-125707505D01*
X142471505Y-125874597D01*
X142335965Y-126068169D01*
X142335964Y-126068171D01*
X142236098Y-126282335D01*
X142236094Y-126282344D01*
X142174938Y-126510586D01*
X142174936Y-126510596D01*
X142154341Y-126745999D01*
X142154341Y-126746000D01*
X142174936Y-126981403D01*
X142174938Y-126981413D01*
X142236094Y-127209655D01*
X142236096Y-127209659D01*
X142236097Y-127209663D01*
X142335965Y-127423830D01*
X142335967Y-127423834D01*
X142471501Y-127617395D01*
X142471506Y-127617402D01*
X142638597Y-127784493D01*
X142638603Y-127784498D01*
X142824158Y-127914425D01*
X142867783Y-127969002D01*
X142874977Y-128038500D01*
X142843454Y-128100855D01*
X142824158Y-128117575D01*
X142638597Y-128247505D01*
X142471505Y-128414597D01*
X142335965Y-128608169D01*
X142335964Y-128608171D01*
X142236098Y-128822335D01*
X142236094Y-128822344D01*
X142174938Y-129050586D01*
X142174936Y-129050596D01*
X142154341Y-129285999D01*
X142154341Y-129286000D01*
X142174936Y-129521403D01*
X142174938Y-129521413D01*
X142236094Y-129749655D01*
X142236096Y-129749659D01*
X142236097Y-129749663D01*
X142253974Y-129788000D01*
X142335965Y-129963830D01*
X142335967Y-129963834D01*
X142471501Y-130157395D01*
X142471506Y-130157402D01*
X142638597Y-130324493D01*
X142638603Y-130324498D01*
X142824158Y-130454425D01*
X142867783Y-130509002D01*
X142874977Y-130578500D01*
X142843454Y-130640855D01*
X142824158Y-130657575D01*
X142638597Y-130787505D01*
X142471505Y-130954597D01*
X142335965Y-131148169D01*
X142335964Y-131148171D01*
X142236098Y-131362335D01*
X142236094Y-131362344D01*
X142174938Y-131590586D01*
X142174936Y-131590596D01*
X142154341Y-131825999D01*
X142154341Y-131826000D01*
X142174936Y-132061403D01*
X142174938Y-132061413D01*
X142236094Y-132289655D01*
X142236096Y-132289659D01*
X142236097Y-132289663D01*
X142335965Y-132503830D01*
X142335967Y-132503834D01*
X142471501Y-132697395D01*
X142471506Y-132697402D01*
X142638597Y-132864493D01*
X142638603Y-132864498D01*
X142824158Y-132994425D01*
X142867783Y-133049002D01*
X142874977Y-133118500D01*
X142843454Y-133180855D01*
X142824158Y-133197575D01*
X142638597Y-133327505D01*
X142471505Y-133494597D01*
X142335965Y-133688169D01*
X142335964Y-133688171D01*
X142236098Y-133902335D01*
X142236094Y-133902344D01*
X142174938Y-134130586D01*
X142174936Y-134130596D01*
X142154341Y-134365999D01*
X142154341Y-134366000D01*
X142174936Y-134601403D01*
X142174938Y-134601413D01*
X142236094Y-134829655D01*
X142236096Y-134829659D01*
X142236097Y-134829663D01*
X142273864Y-134910654D01*
X142335965Y-135043830D01*
X142335967Y-135043834D01*
X142442325Y-135195728D01*
X142469390Y-135234381D01*
X142471501Y-135237395D01*
X142471506Y-135237402D01*
X142638597Y-135404493D01*
X142638603Y-135404498D01*
X142824158Y-135534425D01*
X142867783Y-135589002D01*
X142874977Y-135658500D01*
X142843454Y-135720855D01*
X142824158Y-135737575D01*
X142638597Y-135867505D01*
X142471505Y-136034597D01*
X142335965Y-136228169D01*
X142335964Y-136228171D01*
X142236098Y-136442335D01*
X142236094Y-136442344D01*
X142174938Y-136670586D01*
X142174936Y-136670596D01*
X142154341Y-136905999D01*
X142154341Y-136906000D01*
X142174936Y-137141403D01*
X142174938Y-137141413D01*
X142236094Y-137369655D01*
X142236096Y-137369659D01*
X142236097Y-137369663D01*
X142335965Y-137583830D01*
X142335967Y-137583834D01*
X142471501Y-137777395D01*
X142471506Y-137777402D01*
X142638597Y-137944493D01*
X142638603Y-137944498D01*
X142824158Y-138074425D01*
X142867783Y-138129002D01*
X142874977Y-138198500D01*
X142843454Y-138260855D01*
X142824158Y-138277575D01*
X142638597Y-138407505D01*
X142471505Y-138574597D01*
X142335965Y-138768169D01*
X142335964Y-138768171D01*
X142236098Y-138982335D01*
X142236094Y-138982344D01*
X142174938Y-139210586D01*
X142174936Y-139210596D01*
X142154341Y-139445999D01*
X142154341Y-139446000D01*
X142174936Y-139681403D01*
X142174938Y-139681413D01*
X142236094Y-139909655D01*
X142236096Y-139909659D01*
X142236097Y-139909663D01*
X142335965Y-140123830D01*
X142335967Y-140123834D01*
X142471501Y-140317395D01*
X142471506Y-140317402D01*
X142638597Y-140484493D01*
X142638603Y-140484498D01*
X142824158Y-140614425D01*
X142867783Y-140669002D01*
X142874977Y-140738500D01*
X142843454Y-140800855D01*
X142824158Y-140817575D01*
X142638597Y-140947505D01*
X142471505Y-141114597D01*
X142335965Y-141308169D01*
X142335964Y-141308171D01*
X142236098Y-141522335D01*
X142236094Y-141522344D01*
X142174938Y-141750586D01*
X142174936Y-141750596D01*
X142154341Y-141985999D01*
X142154341Y-141986000D01*
X140000500Y-141986000D01*
X140000500Y-91855270D01*
X146401300Y-91855270D01*
X146401301Y-91855276D01*
X146407708Y-91914883D01*
X146458002Y-92049728D01*
X146458006Y-92049735D01*
X146544252Y-92164944D01*
X146544255Y-92164947D01*
X146659464Y-92251193D01*
X146659471Y-92251197D01*
X146794317Y-92301491D01*
X146794316Y-92301491D01*
X146801244Y-92302235D01*
X146853927Y-92307900D01*
X148649672Y-92307899D01*
X148709283Y-92301491D01*
X148844131Y-92251196D01*
X148959346Y-92164946D01*
X149045596Y-92049731D01*
X149094610Y-91918316D01*
X149136481Y-91862384D01*
X149201945Y-91837966D01*
X149270218Y-91852817D01*
X149298473Y-91873969D01*
X149420399Y-91995895D01*
X149517184Y-92063665D01*
X149613965Y-92131432D01*
X149613967Y-92131433D01*
X149613970Y-92131435D01*
X149828137Y-92231303D01*
X150056392Y-92292463D01*
X150232834Y-92307900D01*
X150291799Y-92313059D01*
X150291800Y-92313059D01*
X150291801Y-92313059D01*
X150350766Y-92307900D01*
X150527208Y-92292463D01*
X150755463Y-92231303D01*
X150969630Y-92131435D01*
X151163201Y-91995895D01*
X151330295Y-91828801D01*
X151465835Y-91635230D01*
X151565703Y-91421063D01*
X151626863Y-91192808D01*
X151647459Y-90957400D01*
X151634125Y-90805000D01*
X153254141Y-90805000D01*
X153274736Y-91040403D01*
X153274738Y-91040413D01*
X153335894Y-91268655D01*
X153335896Y-91268659D01*
X153335897Y-91268663D01*
X153406963Y-91421064D01*
X153435765Y-91482830D01*
X153435767Y-91482834D01*
X153542477Y-91635230D01*
X153571305Y-91676401D01*
X153738399Y-91843495D01*
X153835184Y-91911265D01*
X153931965Y-91979032D01*
X153931967Y-91979033D01*
X153931970Y-91979035D01*
X154146137Y-92078903D01*
X154374392Y-92140063D01*
X154550834Y-92155500D01*
X154609799Y-92160659D01*
X154609800Y-92160659D01*
X154609801Y-92160659D01*
X154668766Y-92155500D01*
X154845208Y-92140063D01*
X155073463Y-92078903D01*
X155287630Y-91979035D01*
X155481201Y-91843495D01*
X155603129Y-91721566D01*
X155664448Y-91688084D01*
X155734140Y-91693068D01*
X155790074Y-91734939D01*
X155806989Y-91765917D01*
X155856002Y-91897328D01*
X155856006Y-91897335D01*
X155942252Y-92012544D01*
X155942255Y-92012547D01*
X156057464Y-92098793D01*
X156057471Y-92098797D01*
X156192317Y-92149091D01*
X156192316Y-92149091D01*
X156199244Y-92149835D01*
X156251927Y-92155500D01*
X158047672Y-92155499D01*
X158107283Y-92149091D01*
X158242131Y-92098796D01*
X158357346Y-92012546D01*
X158443596Y-91897331D01*
X158493891Y-91762483D01*
X158500300Y-91702873D01*
X158500299Y-89907128D01*
X158493891Y-89847517D01*
X158492610Y-89844083D01*
X158443597Y-89712671D01*
X158443593Y-89712664D01*
X158357347Y-89597455D01*
X158357344Y-89597452D01*
X158242135Y-89511206D01*
X158242128Y-89511202D01*
X158107282Y-89460908D01*
X158107283Y-89460908D01*
X158047683Y-89454501D01*
X158047681Y-89454500D01*
X158047673Y-89454500D01*
X158047664Y-89454500D01*
X156251929Y-89454500D01*
X156251923Y-89454501D01*
X156192316Y-89460908D01*
X156057471Y-89511202D01*
X156057464Y-89511206D01*
X155942255Y-89597452D01*
X155942252Y-89597455D01*
X155856006Y-89712664D01*
X155856003Y-89712669D01*
X155806989Y-89844083D01*
X155765117Y-89900016D01*
X155699653Y-89924433D01*
X155631380Y-89909581D01*
X155603126Y-89888430D01*
X155481202Y-89766506D01*
X155481195Y-89766501D01*
X155287634Y-89630967D01*
X155287630Y-89630965D01*
X155269125Y-89622336D01*
X155073463Y-89531097D01*
X155073459Y-89531096D01*
X155073455Y-89531094D01*
X154845213Y-89469938D01*
X154845203Y-89469936D01*
X154609801Y-89449341D01*
X154609799Y-89449341D01*
X154374396Y-89469936D01*
X154374386Y-89469938D01*
X154146144Y-89531094D01*
X154146135Y-89531098D01*
X153931971Y-89630964D01*
X153931969Y-89630965D01*
X153738397Y-89766505D01*
X153571305Y-89933597D01*
X153435765Y-90127169D01*
X153435764Y-90127171D01*
X153335898Y-90341335D01*
X153335894Y-90341344D01*
X153274738Y-90569586D01*
X153274736Y-90569596D01*
X153254141Y-90804999D01*
X153254141Y-90805000D01*
X151634125Y-90805000D01*
X151626863Y-90721992D01*
X151565703Y-90493737D01*
X151465835Y-90279571D01*
X151382346Y-90160335D01*
X151330294Y-90085997D01*
X151163202Y-89918906D01*
X151163195Y-89918901D01*
X151146374Y-89907123D01*
X151086318Y-89865071D01*
X150969634Y-89783367D01*
X150969630Y-89783365D01*
X150933465Y-89766501D01*
X150755463Y-89683497D01*
X150755459Y-89683496D01*
X150755455Y-89683494D01*
X150527213Y-89622338D01*
X150527203Y-89622336D01*
X150291801Y-89601741D01*
X150291799Y-89601741D01*
X150056396Y-89622336D01*
X150056386Y-89622338D01*
X149828144Y-89683494D01*
X149828135Y-89683498D01*
X149613971Y-89783364D01*
X149613969Y-89783365D01*
X149420400Y-89918903D01*
X149298473Y-90040830D01*
X149237150Y-90074314D01*
X149167458Y-90069330D01*
X149111525Y-90027458D01*
X149094610Y-89996481D01*
X149045597Y-89865071D01*
X149045593Y-89865064D01*
X148959347Y-89749855D01*
X148959344Y-89749852D01*
X148844135Y-89663606D01*
X148844128Y-89663602D01*
X148709282Y-89613308D01*
X148709283Y-89613308D01*
X148649683Y-89606901D01*
X148649681Y-89606900D01*
X148649673Y-89606900D01*
X148649664Y-89606900D01*
X146853929Y-89606900D01*
X146853923Y-89606901D01*
X146794316Y-89613308D01*
X146659471Y-89663602D01*
X146659464Y-89663606D01*
X146544255Y-89749852D01*
X146544252Y-89749855D01*
X146458006Y-89865064D01*
X146458002Y-89865071D01*
X146407708Y-89999917D01*
X146401301Y-90059516D01*
X146401300Y-90059535D01*
X146401300Y-91855270D01*
X140000500Y-91855270D01*
X140000500Y-89124500D01*
X140020185Y-89057461D01*
X140072989Y-89011706D01*
X140124500Y-89000500D01*
X164875500Y-89000500D01*
X164942539Y-89020185D01*
G37*
%TD.AperFunction*%
%TD*%
M02*
