%TF.GenerationSoftware,KiCad,Pcbnew,7.0.9-7.0.9~ubuntu22.04.1*%
%TF.CreationDate,2023-11-26T13:03:37+11:00*%
%TF.ProjectId,usbcontroller-c64,75736263-6f6e-4747-926f-6c6c65722d63,v02*%
%TF.SameCoordinates,Original*%
%TF.FileFunction,Legend,Bot*%
%TF.FilePolarity,Positive*%
%FSLAX46Y46*%
G04 Gerber Fmt 4.6, Leading zero omitted, Abs format (unit mm)*
G04 Created by KiCad (PCBNEW 7.0.9-7.0.9~ubuntu22.04.1) date 2023-11-26 13:03:37*
%MOMM*%
%LPD*%
G01*
G04 APERTURE LIST*
%ADD10C,0.150000*%
G04 APERTURE END LIST*
D10*
X170141658Y-90973352D02*
X169903563Y-91640019D01*
X169903563Y-91640019D02*
X169665468Y-90973352D01*
X169094039Y-90640019D02*
X168998801Y-90640019D01*
X168998801Y-90640019D02*
X168903563Y-90687638D01*
X168903563Y-90687638D02*
X168855944Y-90735257D01*
X168855944Y-90735257D02*
X168808325Y-90830495D01*
X168808325Y-90830495D02*
X168760706Y-91020971D01*
X168760706Y-91020971D02*
X168760706Y-91259066D01*
X168760706Y-91259066D02*
X168808325Y-91449542D01*
X168808325Y-91449542D02*
X168855944Y-91544780D01*
X168855944Y-91544780D02*
X168903563Y-91592400D01*
X168903563Y-91592400D02*
X168998801Y-91640019D01*
X168998801Y-91640019D02*
X169094039Y-91640019D01*
X169094039Y-91640019D02*
X169189277Y-91592400D01*
X169189277Y-91592400D02*
X169236896Y-91544780D01*
X169236896Y-91544780D02*
X169284515Y-91449542D01*
X169284515Y-91449542D02*
X169332134Y-91259066D01*
X169332134Y-91259066D02*
X169332134Y-91020971D01*
X169332134Y-91020971D02*
X169284515Y-90830495D01*
X169284515Y-90830495D02*
X169236896Y-90735257D01*
X169236896Y-90735257D02*
X169189277Y-90687638D01*
X169189277Y-90687638D02*
X169094039Y-90640019D01*
X168379753Y-90735257D02*
X168332134Y-90687638D01*
X168332134Y-90687638D02*
X168236896Y-90640019D01*
X168236896Y-90640019D02*
X167998801Y-90640019D01*
X167998801Y-90640019D02*
X167903563Y-90687638D01*
X167903563Y-90687638D02*
X167855944Y-90735257D01*
X167855944Y-90735257D02*
X167808325Y-90830495D01*
X167808325Y-90830495D02*
X167808325Y-90925733D01*
X167808325Y-90925733D02*
X167855944Y-91068590D01*
X167855944Y-91068590D02*
X168427372Y-91640019D01*
X168427372Y-91640019D02*
X167808325Y-91640019D01*
%TO.C,G\u002A\u002A\u002A*%
G36*
X158103262Y-141221431D02*
G01*
X158024677Y-141652432D01*
X157904545Y-141965861D01*
X157635982Y-142411211D01*
X157282564Y-142811839D01*
X156871834Y-143138214D01*
X156431334Y-143360805D01*
X156114667Y-143474962D01*
X156115858Y-144075981D01*
X156117049Y-144677000D01*
X158532525Y-145536109D01*
X158594261Y-145558085D01*
X159142416Y-145754821D01*
X159658749Y-145942902D01*
X160127590Y-146116424D01*
X160533272Y-146269483D01*
X160860124Y-146396172D01*
X161092479Y-146490589D01*
X161214667Y-146546828D01*
X161431715Y-146688243D01*
X161750107Y-147001172D01*
X161986817Y-147407089D01*
X161995403Y-147426632D01*
X162038692Y-147533828D01*
X162071576Y-147643603D01*
X162095307Y-147774637D01*
X162111135Y-147945605D01*
X162119917Y-148165348D01*
X162120310Y-148175187D01*
X162124085Y-148482059D01*
X162123708Y-148884898D01*
X162120432Y-149402383D01*
X162120155Y-149439314D01*
X162113740Y-150016361D01*
X162111668Y-150093558D01*
X162101315Y-150479192D01*
X162078447Y-150845878D01*
X162040702Y-151134494D01*
X161983647Y-151363113D01*
X161902848Y-151549808D01*
X161793873Y-151712652D01*
X161652288Y-151869718D01*
X161473659Y-152039081D01*
X161387993Y-152116085D01*
X161300291Y-152187886D01*
X161203347Y-152254450D01*
X161084140Y-152321060D01*
X160929646Y-152393002D01*
X160726844Y-152475557D01*
X160462713Y-152574010D01*
X160124229Y-152693645D01*
X159698371Y-152839746D01*
X159172117Y-153017595D01*
X158532445Y-153232477D01*
X158104007Y-153376009D01*
X157523555Y-153569097D01*
X157047005Y-153725115D01*
X156660798Y-153847942D01*
X156351372Y-153941456D01*
X156105167Y-154009535D01*
X155908622Y-154056058D01*
X155748178Y-154084903D01*
X155610272Y-154099947D01*
X155481344Y-154105070D01*
X155470740Y-154105173D01*
X155346499Y-154103131D01*
X155217582Y-154092396D01*
X155070480Y-154069169D01*
X154891685Y-154029652D01*
X154667689Y-153970046D01*
X154384984Y-153886554D01*
X154030061Y-153775376D01*
X153589413Y-153632714D01*
X153049530Y-153454770D01*
X152396905Y-153237746D01*
X152370190Y-153228840D01*
X151730559Y-153015416D01*
X151204031Y-152838670D01*
X150777680Y-152693392D01*
X150438582Y-152574376D01*
X150173814Y-152476412D01*
X149970451Y-152394294D01*
X149815567Y-152322812D01*
X149696240Y-152256758D01*
X149599543Y-152190925D01*
X149512554Y-152120104D01*
X149422348Y-152039086D01*
X149411021Y-152028722D01*
X149234636Y-151860552D01*
X149095040Y-151703642D01*
X148987800Y-151539918D01*
X148908483Y-151351307D01*
X148852655Y-151119736D01*
X148815883Y-150827131D01*
X148793733Y-150455420D01*
X148784979Y-150112200D01*
X150124357Y-150112200D01*
X150124877Y-150259422D01*
X150143728Y-150465890D01*
X150148801Y-150503833D01*
X150219774Y-150787550D01*
X150341213Y-150970623D01*
X150360086Y-150984897D01*
X150504759Y-151057941D01*
X150768608Y-151166766D01*
X151145164Y-151308979D01*
X151627958Y-151482187D01*
X152210520Y-151683997D01*
X152886382Y-151912017D01*
X152934991Y-151928220D01*
X153478352Y-152107313D01*
X153987299Y-152271513D01*
X154446531Y-152416140D01*
X154840747Y-152536515D01*
X155154647Y-152627958D01*
X155372929Y-152685790D01*
X155480292Y-152705331D01*
X155485369Y-152705019D01*
X155603918Y-152678999D01*
X155831790Y-152614779D01*
X156153725Y-152517158D01*
X156554465Y-152390937D01*
X157018749Y-152240915D01*
X157531316Y-152071891D01*
X158076908Y-151888665D01*
X158338240Y-151800140D01*
X158934119Y-151597656D01*
X159419993Y-151429460D01*
X159807483Y-151289028D01*
X160108207Y-151169837D01*
X160333784Y-151065361D01*
X160495832Y-150969077D01*
X160605971Y-150874461D01*
X160675820Y-150774988D01*
X160716997Y-150664135D01*
X160741122Y-150535377D01*
X160759813Y-150382191D01*
X160777119Y-150220694D01*
X160778357Y-150093558D01*
X160746876Y-150048469D01*
X160675200Y-150056655D01*
X160592589Y-150084054D01*
X160397506Y-150152474D01*
X160106378Y-150256164D01*
X159734200Y-150389743D01*
X159295970Y-150547827D01*
X158806683Y-150725033D01*
X158281334Y-150915977D01*
X158271888Y-150919417D01*
X157629169Y-151155145D01*
X157090523Y-151351524D01*
X156636692Y-151508454D01*
X156248420Y-151625836D01*
X155906448Y-151703568D01*
X155591518Y-151741552D01*
X155284374Y-151739686D01*
X154965758Y-151697871D01*
X154616412Y-151616006D01*
X154217078Y-151493991D01*
X153748500Y-151331727D01*
X153191419Y-151129112D01*
X152526578Y-150886048D01*
X152463619Y-150863203D01*
X151936787Y-150673464D01*
X151451456Y-150501135D01*
X151021566Y-150350985D01*
X150661054Y-150227786D01*
X150383860Y-150136307D01*
X150203923Y-150081320D01*
X150135183Y-150067595D01*
X150124357Y-150112200D01*
X148784979Y-150112200D01*
X148781773Y-149986528D01*
X148775569Y-149402383D01*
X148774853Y-149304394D01*
X148771987Y-148807959D01*
X148772235Y-148422958D01*
X148775192Y-148235727D01*
X150176199Y-148235727D01*
X150255020Y-148443300D01*
X150395010Y-148584319D01*
X150400028Y-148586819D01*
X150506290Y-148630238D01*
X150721574Y-148712444D01*
X151031238Y-148828036D01*
X151420645Y-148971614D01*
X151875153Y-149137775D01*
X152380126Y-149321119D01*
X152920921Y-149516245D01*
X152993796Y-149542432D01*
X153531060Y-149733848D01*
X154031415Y-149909320D01*
X154480139Y-150063884D01*
X154862508Y-150192578D01*
X155163799Y-150290435D01*
X155369290Y-150352492D01*
X155464257Y-150373785D01*
X155475702Y-150372158D01*
X155594125Y-150338919D01*
X155817683Y-150267119D01*
X156130323Y-150162406D01*
X156515998Y-150030428D01*
X156958656Y-149876831D01*
X157442247Y-149707263D01*
X157950721Y-149527371D01*
X158468030Y-149342803D01*
X158978121Y-149159205D01*
X159464946Y-148982225D01*
X159912455Y-148817509D01*
X160304596Y-148670706D01*
X160521606Y-148548614D01*
X160678455Y-148367761D01*
X160741233Y-148165348D01*
X160701944Y-147969217D01*
X160552592Y-147807211D01*
X160513855Y-147787461D01*
X160354983Y-147720462D01*
X160095633Y-147618467D01*
X159752040Y-147487627D01*
X159340439Y-147334092D01*
X158877066Y-147164012D01*
X158378157Y-146983536D01*
X158093046Y-146881098D01*
X157614966Y-146709149D01*
X157182773Y-146553480D01*
X156812390Y-146419839D01*
X156519740Y-146313974D01*
X156320747Y-146241633D01*
X156231334Y-146208565D01*
X156199875Y-146200158D01*
X156166264Y-146214541D01*
X156142841Y-146275075D01*
X156127788Y-146399197D01*
X156119287Y-146604343D01*
X156115519Y-146907946D01*
X156114667Y-147327443D01*
X156114667Y-148492151D01*
X155938910Y-148667909D01*
X155839626Y-148753703D01*
X155677673Y-148824884D01*
X155448000Y-148843666D01*
X155286640Y-148836143D01*
X155108381Y-148785521D01*
X154957091Y-148667909D01*
X154781334Y-148492151D01*
X154781334Y-147327443D01*
X154780277Y-146972597D01*
X154775334Y-146639642D01*
X154765185Y-146411458D01*
X154748564Y-146272237D01*
X154724204Y-146206174D01*
X154690840Y-146197460D01*
X154675216Y-146203268D01*
X154551879Y-146248083D01*
X154324979Y-146330010D01*
X154010805Y-146443183D01*
X153625643Y-146581739D01*
X153185781Y-146739813D01*
X152707507Y-146911542D01*
X152525418Y-146976916D01*
X151938708Y-147188136D01*
X151462386Y-147361261D01*
X151084482Y-147501418D01*
X150793029Y-147613732D01*
X150576060Y-147703330D01*
X150421605Y-147775337D01*
X150317698Y-147834879D01*
X150252371Y-147887082D01*
X150213654Y-147937072D01*
X150189581Y-147989975D01*
X150179482Y-148022167D01*
X150176199Y-148235727D01*
X148775192Y-148235727D01*
X148776850Y-148130711D01*
X148787081Y-147912542D01*
X148804179Y-147749773D01*
X148829395Y-147623726D01*
X148863980Y-147515724D01*
X148909184Y-147407089D01*
X149029163Y-147173334D01*
X149307413Y-146821095D01*
X149681334Y-146546248D01*
X149688874Y-146542111D01*
X149823921Y-146481277D01*
X150067422Y-146382946D01*
X150403708Y-146253022D01*
X150817105Y-146097413D01*
X151291943Y-145922023D01*
X151812550Y-145732760D01*
X152363253Y-145535529D01*
X154778506Y-144677000D01*
X154779920Y-144075981D01*
X154781334Y-143474962D01*
X154464667Y-143360805D01*
X154163097Y-143222087D01*
X153739853Y-142925686D01*
X153365114Y-142545589D01*
X153066423Y-142111328D01*
X152871324Y-141652432D01*
X152828379Y-141472728D01*
X152779689Y-141014160D01*
X152788323Y-140766837D01*
X154155314Y-140766837D01*
X154191542Y-141156589D01*
X154286486Y-141400466D01*
X154507081Y-141708610D01*
X154800250Y-141953120D01*
X155131266Y-142099165D01*
X155230774Y-142123189D01*
X155402374Y-142159059D01*
X155494189Y-142170109D01*
X155837814Y-142084766D01*
X156190145Y-141893026D01*
X156467586Y-141621962D01*
X156655525Y-141291367D01*
X156739353Y-140921030D01*
X156704459Y-140530743D01*
X156611632Y-140290572D01*
X156390758Y-139980424D01*
X156095680Y-139734461D01*
X155760923Y-139587208D01*
X155736775Y-139581370D01*
X155348053Y-139552680D01*
X154985655Y-139638231D01*
X154667382Y-139820222D01*
X154411034Y-140080854D01*
X154234411Y-140402325D01*
X154155314Y-140766837D01*
X152788323Y-140766837D01*
X152796649Y-140528345D01*
X152875701Y-140064857D01*
X153013291Y-139673266D01*
X153121311Y-139478145D01*
X153443749Y-139053822D01*
X153843387Y-138683636D01*
X154281334Y-138406441D01*
X154348179Y-138374051D01*
X154520491Y-138298755D01*
X154680137Y-138250869D01*
X154863609Y-138224260D01*
X155107400Y-138212792D01*
X155448000Y-138210333D01*
X155575033Y-138210532D01*
X155879168Y-138215324D01*
X156098708Y-138231176D01*
X156270142Y-138264224D01*
X156429965Y-138320601D01*
X156614667Y-138406441D01*
X156810870Y-138515250D01*
X157236648Y-138838425D01*
X157606892Y-139237382D01*
X157882710Y-139673266D01*
X157949994Y-139832874D01*
X158062364Y-140262080D01*
X158114639Y-140741456D01*
X158110383Y-140921030D01*
X158103262Y-141221431D01*
G37*
G36*
X154658795Y-97645746D02*
G01*
X154895676Y-97764882D01*
X155038387Y-97978387D01*
X155086134Y-98285466D01*
X155078611Y-98446827D01*
X155027989Y-98625085D01*
X154910376Y-98776375D01*
X154811092Y-98862169D01*
X154649140Y-98933351D01*
X154419467Y-98952133D01*
X154258106Y-98944610D01*
X154079848Y-98893988D01*
X153928558Y-98776375D01*
X153794114Y-98569271D01*
X153740750Y-98297670D01*
X153785565Y-98024061D01*
X153928558Y-97794557D01*
X154027842Y-97708763D01*
X154189794Y-97637581D01*
X154419467Y-97618800D01*
X154658795Y-97645746D01*
G37*
G36*
X153325462Y-98979079D02*
G01*
X153562343Y-99098216D01*
X153705054Y-99311721D01*
X153752800Y-99618800D01*
X153745277Y-99780160D01*
X153694655Y-99958419D01*
X153577043Y-100109709D01*
X153477759Y-100195503D01*
X153315807Y-100266684D01*
X153086134Y-100285466D01*
X152924773Y-100277943D01*
X152746515Y-100227321D01*
X152595225Y-100109709D01*
X152460780Y-99902604D01*
X152407417Y-99631003D01*
X152452232Y-99357395D01*
X152595225Y-99127890D01*
X152694509Y-99042096D01*
X152856461Y-98970915D01*
X153086134Y-98952133D01*
X153325462Y-98979079D01*
G37*
G36*
X153325462Y-96312412D02*
G01*
X153562343Y-96431549D01*
X153705054Y-96645054D01*
X153752800Y-96952133D01*
X153745277Y-97113494D01*
X153694655Y-97291752D01*
X153577043Y-97443042D01*
X153477759Y-97528836D01*
X153315807Y-97600018D01*
X153086134Y-97618800D01*
X152924773Y-97611276D01*
X152746515Y-97560654D01*
X152595225Y-97443042D01*
X152460780Y-97235937D01*
X152407417Y-96964337D01*
X152452232Y-96690728D01*
X152595225Y-96461224D01*
X152694509Y-96375430D01*
X152856461Y-96304248D01*
X153086134Y-96285466D01*
X153325462Y-96312412D01*
G37*
G36*
X151992129Y-97645746D02*
G01*
X152229010Y-97764882D01*
X152371721Y-97978387D01*
X152419467Y-98285466D01*
X152411944Y-98446827D01*
X152361322Y-98625085D01*
X152243710Y-98776375D01*
X152144426Y-98862169D01*
X151982473Y-98933351D01*
X151752800Y-98952133D01*
X151591440Y-98944610D01*
X151413181Y-98893988D01*
X151261891Y-98776375D01*
X151127447Y-98569271D01*
X151074084Y-98297670D01*
X151118899Y-98024061D01*
X151261891Y-97794557D01*
X151361175Y-97708763D01*
X151523128Y-97637581D01*
X151752800Y-97618800D01*
X151992129Y-97645746D01*
G37*
G36*
X158592880Y-96959934D02*
G01*
X158999349Y-97055926D01*
X159329765Y-97261382D01*
X159584362Y-97576429D01*
X159678939Y-97766347D01*
X159736884Y-97992778D01*
X159752800Y-98285466D01*
X159746064Y-98446100D01*
X159652410Y-98855389D01*
X159448714Y-99189597D01*
X159135218Y-99448270D01*
X158933621Y-99549273D01*
X158714011Y-99603167D01*
X158425324Y-99618169D01*
X158332761Y-99616085D01*
X157907822Y-99539543D01*
X157561747Y-99359311D01*
X157303479Y-99084289D01*
X157141961Y-98723374D01*
X157086134Y-98285466D01*
X157088104Y-98198941D01*
X157164481Y-97774745D01*
X157345051Y-97428721D01*
X157620570Y-97170114D01*
X157981790Y-97008169D01*
X158419467Y-96952133D01*
X158592880Y-96959934D01*
G37*
G36*
X162426388Y-100577113D02*
G01*
X162420963Y-101163043D01*
X162412107Y-101717491D01*
X162399849Y-102223488D01*
X162384216Y-102664064D01*
X162365239Y-103022252D01*
X162342945Y-103281084D01*
X162317364Y-103423590D01*
X162261483Y-103565386D01*
X162015312Y-103985846D01*
X161679763Y-104360907D01*
X161284632Y-104661258D01*
X160859714Y-104857586D01*
X160670755Y-104903178D01*
X160310582Y-104943134D01*
X159928841Y-104941658D01*
X159575347Y-104899973D01*
X159299913Y-104819302D01*
X159198750Y-104766312D01*
X158910387Y-104562150D01*
X158564203Y-104255479D01*
X158168645Y-103854130D01*
X157732162Y-103365935D01*
X157645865Y-103266382D01*
X157419016Y-103020886D01*
X157222837Y-102844345D01*
X157021534Y-102707237D01*
X156779315Y-102580040D01*
X156705815Y-102545035D01*
X156467491Y-102442249D01*
X156264107Y-102384010D01*
X156039647Y-102358059D01*
X155738096Y-102352133D01*
X155625522Y-102352603D01*
X155360031Y-102363180D01*
X155155009Y-102396997D01*
X154956086Y-102466260D01*
X154708890Y-102583174D01*
X154696785Y-102589252D01*
X154451502Y-102726343D01*
X154239668Y-102881681D01*
X154024884Y-103085759D01*
X153770748Y-103369069D01*
X153665822Y-103490208D01*
X153212743Y-103985290D01*
X152810671Y-104376294D01*
X152464160Y-104659046D01*
X152177762Y-104829371D01*
X151945979Y-104902124D01*
X151564392Y-104948201D01*
X151146006Y-104936593D01*
X150737646Y-104869407D01*
X150386134Y-104748749D01*
X150211728Y-104652507D01*
X149846225Y-104372408D01*
X149522246Y-104024534D01*
X149283283Y-103652133D01*
X149119467Y-103318800D01*
X149100272Y-100189080D01*
X149099641Y-100085466D01*
X150452800Y-100085466D01*
X150452807Y-100197781D01*
X150453316Y-100864015D01*
X150454997Y-101411742D01*
X150458369Y-101853832D01*
X150463948Y-102203155D01*
X150472250Y-102472582D01*
X150483793Y-102674984D01*
X150499093Y-102823231D01*
X150518667Y-102930193D01*
X150543031Y-103008742D01*
X150572704Y-103071748D01*
X150770118Y-103315688D01*
X151055434Y-103488789D01*
X151380961Y-103551884D01*
X151437868Y-103550123D01*
X151528783Y-103534591D01*
X151625073Y-103494147D01*
X151738741Y-103418217D01*
X151881787Y-103296226D01*
X152066214Y-103117601D01*
X152304023Y-102871766D01*
X152607217Y-102548148D01*
X152987797Y-102136172D01*
X153124285Y-101990647D01*
X153340224Y-101781259D01*
X153549064Y-101618778D01*
X153794491Y-101471199D01*
X154120191Y-101306514D01*
X154784255Y-100985466D01*
X155752800Y-100985466D01*
X156721346Y-100985466D01*
X157385410Y-101306514D01*
X157575746Y-101400439D01*
X157852220Y-101551821D01*
X158072263Y-101703566D01*
X158279563Y-101887681D01*
X158517804Y-102136172D01*
X158601042Y-102226261D01*
X158880179Y-102525321D01*
X159171733Y-102834116D01*
X159424640Y-103098458D01*
X159579907Y-103256744D01*
X159748156Y-103413815D01*
X159875926Y-103502989D01*
X159991869Y-103542825D01*
X160124640Y-103551884D01*
X160433276Y-103495211D01*
X160721764Y-103327450D01*
X160932897Y-103071748D01*
X160937764Y-103062673D01*
X160966598Y-102998136D01*
X160990202Y-102916102D01*
X161009094Y-102803701D01*
X161023790Y-102648061D01*
X161034807Y-102436312D01*
X161042663Y-102155584D01*
X161047873Y-101793006D01*
X161050955Y-101335707D01*
X161052425Y-100770817D01*
X161052800Y-100085466D01*
X161052800Y-100076921D01*
X161052387Y-99337123D01*
X161049800Y-98717439D01*
X161043013Y-98204790D01*
X161030000Y-97786096D01*
X161008737Y-97448278D01*
X160977197Y-97178255D01*
X160933355Y-96962947D01*
X160875186Y-96789276D01*
X160800662Y-96644161D01*
X160707760Y-96514521D01*
X160594453Y-96387279D01*
X160458716Y-96249353D01*
X160403942Y-96194440D01*
X160285393Y-96077831D01*
X160173785Y-95979469D01*
X160057430Y-95897720D01*
X159924637Y-95830949D01*
X159763718Y-95777519D01*
X159562984Y-95735797D01*
X159310747Y-95704147D01*
X158995316Y-95680934D01*
X158605004Y-95664523D01*
X158128122Y-95653278D01*
X157552980Y-95645565D01*
X156867890Y-95639748D01*
X156061162Y-95634193D01*
X155634103Y-95631679D01*
X154884122Y-95629443D01*
X154205472Y-95630317D01*
X153608483Y-95634183D01*
X153103485Y-95640926D01*
X152700808Y-95650428D01*
X152410783Y-95662574D01*
X152243739Y-95677246D01*
X152030239Y-95719327D01*
X151533404Y-95898076D01*
X151117912Y-96172234D01*
X150794291Y-96533632D01*
X150573065Y-96974098D01*
X150545212Y-97062586D01*
X150520265Y-97170336D01*
X150500203Y-97303699D01*
X150484504Y-97476141D01*
X150472648Y-97701127D01*
X150464115Y-97992120D01*
X150458384Y-98362586D01*
X150454935Y-98825989D01*
X150453247Y-99395794D01*
X150452800Y-100085466D01*
X149099641Y-100085466D01*
X149099352Y-100037977D01*
X149095388Y-99331215D01*
X149093069Y-98742394D01*
X149092807Y-98258619D01*
X149095013Y-97866991D01*
X149100099Y-97554615D01*
X149108478Y-97308594D01*
X149120561Y-97116030D01*
X149136759Y-96964026D01*
X149157485Y-96839687D01*
X149183151Y-96730115D01*
X149214168Y-96622413D01*
X149461630Y-96025809D01*
X149819503Y-95488661D01*
X150271789Y-95032458D01*
X150804841Y-94670933D01*
X151405014Y-94417816D01*
X151457146Y-94402142D01*
X151553562Y-94376623D01*
X151660129Y-94355115D01*
X151788044Y-94337274D01*
X151948507Y-94322760D01*
X152152715Y-94311232D01*
X152411868Y-94302349D01*
X152737163Y-94295768D01*
X153139799Y-94291149D01*
X153630975Y-94288151D01*
X154221888Y-94286432D01*
X154923738Y-94285651D01*
X155747723Y-94285466D01*
X156529262Y-94285530D01*
X157270314Y-94286283D01*
X157899795Y-94288600D01*
X158429092Y-94293358D01*
X158869594Y-94301436D01*
X159232692Y-94313709D01*
X159529774Y-94331054D01*
X159772230Y-94354350D01*
X159971447Y-94384473D01*
X160138817Y-94422299D01*
X160285727Y-94468707D01*
X160423566Y-94524572D01*
X160563725Y-94590773D01*
X160717592Y-94668186D01*
X161092729Y-94907928D01*
X161496711Y-95278924D01*
X161853585Y-95725042D01*
X162139026Y-96215321D01*
X162328710Y-96718800D01*
X162342819Y-96792486D01*
X162365878Y-97019418D01*
X162385275Y-97350615D01*
X162401040Y-97769107D01*
X162413202Y-98257927D01*
X162421789Y-98800106D01*
X162426830Y-99378676D01*
X162428353Y-99976667D01*
X162427997Y-100085466D01*
X162426388Y-100577113D01*
G37*
%TD*%
M02*
