%TF.GenerationSoftware,KiCad,Pcbnew,7.0.8-7.0.8~ubuntu22.04.1*%
%TF.CreationDate,2023-10-22T16:35:48+11:00*%
%TF.ProjectId,usbcontroller-c64,75736263-6f6e-4747-926f-6c6c65722d63,v01*%
%TF.SameCoordinates,Original*%
%TF.FileFunction,Legend,Bot*%
%TF.FilePolarity,Positive*%
%FSLAX46Y46*%
G04 Gerber Fmt 4.6, Leading zero omitted, Abs format (unit mm)*
G04 Created by KiCad (PCBNEW 7.0.8-7.0.8~ubuntu22.04.1) date 2023-10-22 16:35:48*
%MOMM*%
%LPD*%
G01*
G04 APERTURE LIST*
%ADD10C,0.150000*%
G04 APERTURE END LIST*
D10*
X163817058Y-90643152D02*
X163578963Y-91309819D01*
X163578963Y-91309819D02*
X163340868Y-90643152D01*
X162769439Y-90309819D02*
X162674201Y-90309819D01*
X162674201Y-90309819D02*
X162578963Y-90357438D01*
X162578963Y-90357438D02*
X162531344Y-90405057D01*
X162531344Y-90405057D02*
X162483725Y-90500295D01*
X162483725Y-90500295D02*
X162436106Y-90690771D01*
X162436106Y-90690771D02*
X162436106Y-90928866D01*
X162436106Y-90928866D02*
X162483725Y-91119342D01*
X162483725Y-91119342D02*
X162531344Y-91214580D01*
X162531344Y-91214580D02*
X162578963Y-91262200D01*
X162578963Y-91262200D02*
X162674201Y-91309819D01*
X162674201Y-91309819D02*
X162769439Y-91309819D01*
X162769439Y-91309819D02*
X162864677Y-91262200D01*
X162864677Y-91262200D02*
X162912296Y-91214580D01*
X162912296Y-91214580D02*
X162959915Y-91119342D01*
X162959915Y-91119342D02*
X163007534Y-90928866D01*
X163007534Y-90928866D02*
X163007534Y-90690771D01*
X163007534Y-90690771D02*
X162959915Y-90500295D01*
X162959915Y-90500295D02*
X162912296Y-90405057D01*
X162912296Y-90405057D02*
X162864677Y-90357438D01*
X162864677Y-90357438D02*
X162769439Y-90309819D01*
X161483725Y-91309819D02*
X162055153Y-91309819D01*
X161769439Y-91309819D02*
X161769439Y-90309819D01*
X161769439Y-90309819D02*
X161864677Y-90452676D01*
X161864677Y-90452676D02*
X161959915Y-90547914D01*
X161959915Y-90547914D02*
X162055153Y-90595533D01*
%TO.C,G\u002A\u002A\u002A*%
G36*
X151204395Y-97696546D02*
G01*
X151441276Y-97815682D01*
X151583987Y-98029187D01*
X151631734Y-98336266D01*
X151624211Y-98497627D01*
X151573589Y-98675885D01*
X151455976Y-98827175D01*
X151356692Y-98912969D01*
X151194740Y-98984151D01*
X150965067Y-99002933D01*
X150803706Y-98995410D01*
X150625448Y-98944788D01*
X150474158Y-98827175D01*
X150339714Y-98620071D01*
X150286350Y-98348470D01*
X150331165Y-98074861D01*
X150474158Y-97845357D01*
X150573442Y-97759563D01*
X150735394Y-97688381D01*
X150965067Y-97669600D01*
X151204395Y-97696546D01*
G37*
G36*
X149871062Y-99029879D02*
G01*
X150107943Y-99149016D01*
X150250654Y-99362521D01*
X150298400Y-99669600D01*
X150290877Y-99830960D01*
X150240255Y-100009219D01*
X150122643Y-100160509D01*
X150023359Y-100246303D01*
X149861407Y-100317484D01*
X149631734Y-100336266D01*
X149470373Y-100328743D01*
X149292115Y-100278121D01*
X149140825Y-100160509D01*
X149006380Y-99953404D01*
X148953017Y-99681803D01*
X148997832Y-99408195D01*
X149140825Y-99178690D01*
X149240109Y-99092896D01*
X149402061Y-99021715D01*
X149631734Y-99002933D01*
X149871062Y-99029879D01*
G37*
G36*
X149871062Y-96363212D02*
G01*
X150107943Y-96482349D01*
X150250654Y-96695854D01*
X150298400Y-97002933D01*
X150290877Y-97164294D01*
X150240255Y-97342552D01*
X150122643Y-97493842D01*
X150023359Y-97579636D01*
X149861407Y-97650818D01*
X149631734Y-97669600D01*
X149470373Y-97662076D01*
X149292115Y-97611454D01*
X149140825Y-97493842D01*
X149006380Y-97286737D01*
X148953017Y-97015137D01*
X148997832Y-96741528D01*
X149140825Y-96512024D01*
X149240109Y-96426230D01*
X149402061Y-96355048D01*
X149631734Y-96336266D01*
X149871062Y-96363212D01*
G37*
G36*
X148537729Y-97696546D02*
G01*
X148774610Y-97815682D01*
X148917321Y-98029187D01*
X148965067Y-98336266D01*
X148957544Y-98497627D01*
X148906922Y-98675885D01*
X148789310Y-98827175D01*
X148690026Y-98912969D01*
X148528073Y-98984151D01*
X148298400Y-99002933D01*
X148137040Y-98995410D01*
X147958781Y-98944788D01*
X147807491Y-98827175D01*
X147673047Y-98620071D01*
X147619684Y-98348470D01*
X147664499Y-98074861D01*
X147807491Y-97845357D01*
X147906775Y-97759563D01*
X148068728Y-97688381D01*
X148298400Y-97669600D01*
X148537729Y-97696546D01*
G37*
G36*
X155138480Y-97010734D02*
G01*
X155544949Y-97106726D01*
X155875365Y-97312182D01*
X156129962Y-97627229D01*
X156224539Y-97817147D01*
X156282484Y-98043578D01*
X156298400Y-98336266D01*
X156291664Y-98496900D01*
X156198010Y-98906189D01*
X155994314Y-99240397D01*
X155680818Y-99499070D01*
X155479221Y-99600073D01*
X155259611Y-99653967D01*
X154970924Y-99668969D01*
X154878361Y-99666885D01*
X154453422Y-99590343D01*
X154107347Y-99410111D01*
X153849079Y-99135089D01*
X153687561Y-98774174D01*
X153631734Y-98336266D01*
X153633704Y-98249741D01*
X153710081Y-97825545D01*
X153890651Y-97479521D01*
X154166170Y-97220914D01*
X154527390Y-97058969D01*
X154965067Y-97002933D01*
X155138480Y-97010734D01*
G37*
G36*
X158971988Y-100627913D02*
G01*
X158966563Y-101213843D01*
X158957707Y-101768291D01*
X158945449Y-102274288D01*
X158929816Y-102714864D01*
X158910839Y-103073052D01*
X158888545Y-103331884D01*
X158862964Y-103474390D01*
X158807083Y-103616186D01*
X158560912Y-104036646D01*
X158225363Y-104411707D01*
X157830232Y-104712058D01*
X157405314Y-104908386D01*
X157216355Y-104953978D01*
X156856182Y-104993934D01*
X156474441Y-104992458D01*
X156120947Y-104950773D01*
X155845513Y-104870102D01*
X155744350Y-104817112D01*
X155455987Y-104612950D01*
X155109803Y-104306279D01*
X154714245Y-103904930D01*
X154277762Y-103416735D01*
X154191465Y-103317182D01*
X153964616Y-103071686D01*
X153768437Y-102895145D01*
X153567134Y-102758037D01*
X153324915Y-102630840D01*
X153251415Y-102595835D01*
X153013091Y-102493049D01*
X152809707Y-102434810D01*
X152585247Y-102408859D01*
X152283696Y-102402933D01*
X152171122Y-102403403D01*
X151905631Y-102413980D01*
X151700609Y-102447797D01*
X151501686Y-102517060D01*
X151254490Y-102633974D01*
X151242385Y-102640052D01*
X150997102Y-102777143D01*
X150785268Y-102932481D01*
X150570484Y-103136559D01*
X150316348Y-103419869D01*
X150211422Y-103541008D01*
X149758343Y-104036090D01*
X149356271Y-104427094D01*
X149009760Y-104709846D01*
X148723362Y-104880171D01*
X148491579Y-104952924D01*
X148109992Y-104999001D01*
X147691606Y-104987393D01*
X147283246Y-104920207D01*
X146931734Y-104799549D01*
X146757328Y-104703307D01*
X146391825Y-104423208D01*
X146067846Y-104075334D01*
X145828883Y-103702933D01*
X145665067Y-103369600D01*
X145645872Y-100239880D01*
X145645241Y-100136266D01*
X146998400Y-100136266D01*
X146998407Y-100248581D01*
X146998916Y-100914815D01*
X147000597Y-101462542D01*
X147003969Y-101904632D01*
X147009548Y-102253955D01*
X147017850Y-102523382D01*
X147029393Y-102725784D01*
X147044693Y-102874031D01*
X147064267Y-102980993D01*
X147088631Y-103059542D01*
X147118304Y-103122548D01*
X147315718Y-103366488D01*
X147601034Y-103539589D01*
X147926561Y-103602684D01*
X147983468Y-103600923D01*
X148074383Y-103585391D01*
X148170673Y-103544947D01*
X148284341Y-103469017D01*
X148427387Y-103347026D01*
X148611814Y-103168401D01*
X148849623Y-102922566D01*
X149152817Y-102598948D01*
X149533397Y-102186972D01*
X149669885Y-102041447D01*
X149885824Y-101832059D01*
X150094664Y-101669578D01*
X150340091Y-101521999D01*
X150665791Y-101357314D01*
X151329855Y-101036266D01*
X152298400Y-101036266D01*
X153266946Y-101036266D01*
X153931010Y-101357314D01*
X154121346Y-101451239D01*
X154397820Y-101602621D01*
X154617863Y-101754366D01*
X154825163Y-101938481D01*
X155063404Y-102186972D01*
X155146642Y-102277061D01*
X155425779Y-102576121D01*
X155717333Y-102884916D01*
X155970240Y-103149258D01*
X156125507Y-103307544D01*
X156293756Y-103464615D01*
X156421526Y-103553789D01*
X156537469Y-103593625D01*
X156670240Y-103602684D01*
X156978876Y-103546011D01*
X157267364Y-103378250D01*
X157478497Y-103122548D01*
X157483364Y-103113473D01*
X157512198Y-103048936D01*
X157535802Y-102966902D01*
X157554694Y-102854501D01*
X157569390Y-102698861D01*
X157580407Y-102487112D01*
X157588263Y-102206384D01*
X157593473Y-101843806D01*
X157596555Y-101386507D01*
X157598025Y-100821617D01*
X157598400Y-100136266D01*
X157598400Y-100127721D01*
X157597987Y-99387923D01*
X157595400Y-98768239D01*
X157588613Y-98255590D01*
X157575600Y-97836896D01*
X157554337Y-97499078D01*
X157522797Y-97229055D01*
X157478955Y-97013747D01*
X157420786Y-96840076D01*
X157346262Y-96694961D01*
X157253360Y-96565321D01*
X157140053Y-96438079D01*
X157004316Y-96300153D01*
X156949542Y-96245240D01*
X156830993Y-96128631D01*
X156719385Y-96030269D01*
X156603030Y-95948520D01*
X156470237Y-95881749D01*
X156309318Y-95828319D01*
X156108584Y-95786597D01*
X155856347Y-95754947D01*
X155540916Y-95731734D01*
X155150604Y-95715323D01*
X154673722Y-95704078D01*
X154098580Y-95696365D01*
X153413490Y-95690548D01*
X152606762Y-95684993D01*
X152179703Y-95682479D01*
X151429722Y-95680243D01*
X150751072Y-95681117D01*
X150154083Y-95684983D01*
X149649085Y-95691726D01*
X149246408Y-95701228D01*
X148956383Y-95713374D01*
X148789339Y-95728046D01*
X148575839Y-95770127D01*
X148079004Y-95948876D01*
X147663512Y-96223034D01*
X147339891Y-96584432D01*
X147118665Y-97024898D01*
X147090812Y-97113386D01*
X147065865Y-97221136D01*
X147045803Y-97354499D01*
X147030104Y-97526941D01*
X147018248Y-97751927D01*
X147009715Y-98042920D01*
X147003984Y-98413386D01*
X147000535Y-98876789D01*
X146998847Y-99446594D01*
X146998400Y-100136266D01*
X145645241Y-100136266D01*
X145644952Y-100088777D01*
X145640988Y-99382015D01*
X145638669Y-98793194D01*
X145638407Y-98309419D01*
X145640613Y-97917791D01*
X145645699Y-97605415D01*
X145654078Y-97359394D01*
X145666161Y-97166830D01*
X145682359Y-97014826D01*
X145703085Y-96890487D01*
X145728751Y-96780915D01*
X145759768Y-96673213D01*
X146007230Y-96076609D01*
X146365103Y-95539461D01*
X146817389Y-95083258D01*
X147350441Y-94721733D01*
X147950614Y-94468616D01*
X148002746Y-94452942D01*
X148099162Y-94427423D01*
X148205729Y-94405915D01*
X148333644Y-94388074D01*
X148494107Y-94373560D01*
X148698315Y-94362032D01*
X148957468Y-94353149D01*
X149282763Y-94346568D01*
X149685399Y-94341949D01*
X150176575Y-94338951D01*
X150767488Y-94337232D01*
X151469338Y-94336451D01*
X152293323Y-94336266D01*
X153074862Y-94336330D01*
X153815914Y-94337083D01*
X154445395Y-94339400D01*
X154974692Y-94344158D01*
X155415194Y-94352236D01*
X155778292Y-94364509D01*
X156075374Y-94381854D01*
X156317830Y-94405150D01*
X156517047Y-94435273D01*
X156684417Y-94473099D01*
X156831327Y-94519507D01*
X156969166Y-94575372D01*
X157109325Y-94641573D01*
X157263192Y-94718986D01*
X157638329Y-94958728D01*
X158042311Y-95329724D01*
X158399185Y-95775842D01*
X158684626Y-96266121D01*
X158874310Y-96769600D01*
X158888419Y-96843286D01*
X158911478Y-97070218D01*
X158930875Y-97401415D01*
X158946640Y-97819907D01*
X158958802Y-98308727D01*
X158967389Y-98850906D01*
X158972430Y-99429476D01*
X158973953Y-100027467D01*
X158973597Y-100136266D01*
X158971988Y-100627913D01*
G37*
G36*
X155207662Y-130350231D02*
G01*
X155129077Y-130781232D01*
X155008945Y-131094661D01*
X154740382Y-131540011D01*
X154386964Y-131940639D01*
X153976234Y-132267014D01*
X153535734Y-132489605D01*
X153219067Y-132603762D01*
X153220258Y-133204781D01*
X153221449Y-133805800D01*
X155636925Y-134664909D01*
X155698661Y-134686885D01*
X156246816Y-134883621D01*
X156763149Y-135071702D01*
X157231990Y-135245224D01*
X157637672Y-135398283D01*
X157964524Y-135524972D01*
X158196879Y-135619389D01*
X158319067Y-135675628D01*
X158536115Y-135817043D01*
X158854507Y-136129972D01*
X159091217Y-136535889D01*
X159099803Y-136555432D01*
X159143092Y-136662628D01*
X159175976Y-136772403D01*
X159199707Y-136903437D01*
X159215535Y-137074405D01*
X159224317Y-137294148D01*
X159224710Y-137303987D01*
X159228485Y-137610859D01*
X159228108Y-138013698D01*
X159224832Y-138531183D01*
X159224555Y-138568114D01*
X159218140Y-139145161D01*
X159216068Y-139222358D01*
X159205715Y-139607992D01*
X159182847Y-139974678D01*
X159145102Y-140263294D01*
X159088047Y-140491913D01*
X159007248Y-140678608D01*
X158898273Y-140841452D01*
X158756688Y-140998518D01*
X158578059Y-141167881D01*
X158492393Y-141244885D01*
X158404691Y-141316686D01*
X158307747Y-141383250D01*
X158188540Y-141449860D01*
X158034046Y-141521802D01*
X157831244Y-141604357D01*
X157567113Y-141702810D01*
X157228629Y-141822445D01*
X156802771Y-141968546D01*
X156276517Y-142146395D01*
X155636845Y-142361277D01*
X155208407Y-142504809D01*
X154627955Y-142697897D01*
X154151405Y-142853915D01*
X153765198Y-142976742D01*
X153455772Y-143070256D01*
X153209567Y-143138335D01*
X153013022Y-143184858D01*
X152852578Y-143213703D01*
X152714672Y-143228747D01*
X152585744Y-143233870D01*
X152575140Y-143233973D01*
X152450899Y-143231931D01*
X152321982Y-143221196D01*
X152174880Y-143197969D01*
X151996085Y-143158452D01*
X151772089Y-143098846D01*
X151489384Y-143015354D01*
X151134461Y-142904176D01*
X150693813Y-142761514D01*
X150153930Y-142583570D01*
X149501305Y-142366546D01*
X149474590Y-142357640D01*
X148834959Y-142144216D01*
X148308431Y-141967470D01*
X147882080Y-141822192D01*
X147542982Y-141703176D01*
X147278214Y-141605212D01*
X147074851Y-141523094D01*
X146919967Y-141451612D01*
X146800640Y-141385558D01*
X146703943Y-141319725D01*
X146616954Y-141248904D01*
X146526748Y-141167886D01*
X146515421Y-141157522D01*
X146339036Y-140989352D01*
X146199440Y-140832442D01*
X146092200Y-140668718D01*
X146012883Y-140480107D01*
X145957055Y-140248536D01*
X145920283Y-139955931D01*
X145898133Y-139584220D01*
X145889379Y-139241000D01*
X147228757Y-139241000D01*
X147229277Y-139388222D01*
X147248128Y-139594690D01*
X147253201Y-139632633D01*
X147324174Y-139916350D01*
X147445613Y-140099423D01*
X147464486Y-140113697D01*
X147609159Y-140186741D01*
X147873008Y-140295566D01*
X148249564Y-140437779D01*
X148732358Y-140610987D01*
X149314920Y-140812797D01*
X149990782Y-141040817D01*
X150039391Y-141057020D01*
X150582752Y-141236113D01*
X151091699Y-141400313D01*
X151550931Y-141544940D01*
X151945147Y-141665315D01*
X152259047Y-141756758D01*
X152477329Y-141814590D01*
X152584692Y-141834131D01*
X152589769Y-141833819D01*
X152708318Y-141807799D01*
X152936190Y-141743579D01*
X153258125Y-141645958D01*
X153658865Y-141519737D01*
X154123149Y-141369715D01*
X154635716Y-141200691D01*
X155181308Y-141017465D01*
X155442640Y-140928940D01*
X156038519Y-140726456D01*
X156524393Y-140558260D01*
X156911883Y-140417828D01*
X157212607Y-140298637D01*
X157438184Y-140194161D01*
X157600232Y-140097877D01*
X157710371Y-140003261D01*
X157780220Y-139903788D01*
X157821397Y-139792935D01*
X157845522Y-139664177D01*
X157864213Y-139510991D01*
X157881519Y-139349494D01*
X157882757Y-139222358D01*
X157851276Y-139177269D01*
X157779600Y-139185455D01*
X157696989Y-139212854D01*
X157501906Y-139281274D01*
X157210778Y-139384964D01*
X156838600Y-139518543D01*
X156400370Y-139676627D01*
X155911083Y-139853833D01*
X155385734Y-140044777D01*
X155376288Y-140048217D01*
X154733569Y-140283945D01*
X154194923Y-140480324D01*
X153741092Y-140637254D01*
X153352820Y-140754636D01*
X153010848Y-140832368D01*
X152695918Y-140870352D01*
X152388774Y-140868486D01*
X152070158Y-140826671D01*
X151720812Y-140744806D01*
X151321478Y-140622791D01*
X150852900Y-140460527D01*
X150295819Y-140257912D01*
X149630978Y-140014848D01*
X149568019Y-139992003D01*
X149041187Y-139802264D01*
X148555856Y-139629935D01*
X148125966Y-139479785D01*
X147765454Y-139356586D01*
X147488260Y-139265107D01*
X147308323Y-139210120D01*
X147239583Y-139196395D01*
X147228757Y-139241000D01*
X145889379Y-139241000D01*
X145886173Y-139115328D01*
X145879969Y-138531183D01*
X145879253Y-138433194D01*
X145876387Y-137936759D01*
X145876635Y-137551758D01*
X145879592Y-137364527D01*
X147280599Y-137364527D01*
X147359420Y-137572100D01*
X147499410Y-137713119D01*
X147504428Y-137715619D01*
X147610690Y-137759038D01*
X147825974Y-137841244D01*
X148135638Y-137956836D01*
X148525045Y-138100414D01*
X148979553Y-138266575D01*
X149484526Y-138449919D01*
X150025321Y-138645045D01*
X150098196Y-138671232D01*
X150635460Y-138862648D01*
X151135815Y-139038120D01*
X151584539Y-139192684D01*
X151966908Y-139321378D01*
X152268199Y-139419235D01*
X152473690Y-139481292D01*
X152568657Y-139502585D01*
X152580102Y-139500958D01*
X152698525Y-139467719D01*
X152922083Y-139395919D01*
X153234723Y-139291206D01*
X153620398Y-139159228D01*
X154063056Y-139005631D01*
X154546647Y-138836063D01*
X155055121Y-138656171D01*
X155572430Y-138471603D01*
X156082521Y-138288005D01*
X156569346Y-138111025D01*
X157016855Y-137946309D01*
X157408996Y-137799506D01*
X157626006Y-137677414D01*
X157782855Y-137496561D01*
X157845633Y-137294148D01*
X157806344Y-137098017D01*
X157656992Y-136936011D01*
X157618255Y-136916261D01*
X157459383Y-136849262D01*
X157200033Y-136747267D01*
X156856440Y-136616427D01*
X156444839Y-136462892D01*
X155981466Y-136292812D01*
X155482557Y-136112336D01*
X155197446Y-136009898D01*
X154719366Y-135837949D01*
X154287173Y-135682280D01*
X153916790Y-135548639D01*
X153624140Y-135442774D01*
X153425147Y-135370433D01*
X153335734Y-135337365D01*
X153304275Y-135328958D01*
X153270664Y-135343341D01*
X153247241Y-135403875D01*
X153232188Y-135527997D01*
X153223687Y-135733143D01*
X153219919Y-136036746D01*
X153219067Y-136456243D01*
X153219067Y-137620951D01*
X153043310Y-137796709D01*
X152944026Y-137882503D01*
X152782073Y-137953684D01*
X152552400Y-137972466D01*
X152391040Y-137964943D01*
X152212781Y-137914321D01*
X152061491Y-137796709D01*
X151885734Y-137620951D01*
X151885734Y-136456243D01*
X151884677Y-136101397D01*
X151879734Y-135768442D01*
X151869585Y-135540258D01*
X151852964Y-135401037D01*
X151828604Y-135334974D01*
X151795240Y-135326260D01*
X151779616Y-135332068D01*
X151656279Y-135376883D01*
X151429379Y-135458810D01*
X151115205Y-135571983D01*
X150730043Y-135710539D01*
X150290181Y-135868613D01*
X149811907Y-136040342D01*
X149629818Y-136105716D01*
X149043108Y-136316936D01*
X148566786Y-136490061D01*
X148188882Y-136630218D01*
X147897429Y-136742532D01*
X147680460Y-136832130D01*
X147526005Y-136904137D01*
X147422098Y-136963679D01*
X147356771Y-137015882D01*
X147318054Y-137065872D01*
X147293981Y-137118775D01*
X147283882Y-137150967D01*
X147280599Y-137364527D01*
X145879592Y-137364527D01*
X145881250Y-137259511D01*
X145891481Y-137041342D01*
X145908579Y-136878573D01*
X145933795Y-136752526D01*
X145968380Y-136644524D01*
X146013584Y-136535889D01*
X146133563Y-136302134D01*
X146411813Y-135949895D01*
X146785734Y-135675048D01*
X146793274Y-135670911D01*
X146928321Y-135610077D01*
X147171822Y-135511746D01*
X147508108Y-135381822D01*
X147921505Y-135226213D01*
X148396343Y-135050823D01*
X148916950Y-134861560D01*
X149467653Y-134664329D01*
X151882906Y-133805800D01*
X151884320Y-133204781D01*
X151885734Y-132603762D01*
X151569067Y-132489605D01*
X151267497Y-132350887D01*
X150844253Y-132054486D01*
X150469514Y-131674389D01*
X150170823Y-131240128D01*
X149975724Y-130781232D01*
X149932779Y-130601528D01*
X149884089Y-130142960D01*
X149892723Y-129895637D01*
X151259714Y-129895637D01*
X151295942Y-130285389D01*
X151390886Y-130529266D01*
X151611481Y-130837410D01*
X151904650Y-131081920D01*
X152235666Y-131227965D01*
X152335174Y-131251989D01*
X152506774Y-131287859D01*
X152598589Y-131298909D01*
X152942214Y-131213566D01*
X153294545Y-131021826D01*
X153571986Y-130750762D01*
X153759925Y-130420167D01*
X153843753Y-130049830D01*
X153808859Y-129659543D01*
X153716032Y-129419372D01*
X153495158Y-129109224D01*
X153200080Y-128863261D01*
X152865323Y-128716008D01*
X152841175Y-128710170D01*
X152452453Y-128681480D01*
X152090055Y-128767031D01*
X151771782Y-128949022D01*
X151515434Y-129209654D01*
X151338811Y-129531125D01*
X151259714Y-129895637D01*
X149892723Y-129895637D01*
X149901049Y-129657145D01*
X149980101Y-129193657D01*
X150117691Y-128802066D01*
X150225711Y-128606945D01*
X150548149Y-128182622D01*
X150947787Y-127812436D01*
X151385734Y-127535241D01*
X151452579Y-127502851D01*
X151624891Y-127427555D01*
X151784537Y-127379669D01*
X151968009Y-127353060D01*
X152211800Y-127341592D01*
X152552400Y-127339133D01*
X152679433Y-127339332D01*
X152983568Y-127344124D01*
X153203108Y-127359976D01*
X153374542Y-127393024D01*
X153534365Y-127449401D01*
X153719067Y-127535241D01*
X153915270Y-127644050D01*
X154341048Y-127967225D01*
X154711292Y-128366182D01*
X154987110Y-128802066D01*
X155054394Y-128961674D01*
X155166764Y-129390880D01*
X155219039Y-129870256D01*
X155214783Y-130049830D01*
X155207662Y-130350231D01*
G37*
%TD*%
M02*
