%TF.GenerationSoftware,KiCad,Pcbnew,7.0.9-7.0.9~ubuntu22.04.1*%
%TF.CreationDate,2023-11-26T13:03:37+11:00*%
%TF.ProjectId,usbcontroller-c64,75736263-6f6e-4747-926f-6c6c65722d63,v02*%
%TF.SameCoordinates,Original*%
%TF.FileFunction,Legend,Top*%
%TF.FilePolarity,Positive*%
%FSLAX46Y46*%
G04 Gerber Fmt 4.6, Leading zero omitted, Abs format (unit mm)*
G04 Created by KiCad (PCBNEW 7.0.9-7.0.9~ubuntu22.04.1) date 2023-11-26 13:03:37*
%MOMM*%
%LPD*%
G01*
G04 APERTURE LIST*
%ADD10C,0.150000*%
%ADD11C,0.120000*%
G04 APERTURE END LIST*
D10*
X166147979Y-113652419D02*
X166147979Y-114461942D01*
X166147979Y-114461942D02*
X166195598Y-114557180D01*
X166195598Y-114557180D02*
X166243217Y-114604800D01*
X166243217Y-114604800D02*
X166338455Y-114652419D01*
X166338455Y-114652419D02*
X166528931Y-114652419D01*
X166528931Y-114652419D02*
X166624169Y-114604800D01*
X166624169Y-114604800D02*
X166671788Y-114557180D01*
X166671788Y-114557180D02*
X166719407Y-114461942D01*
X166719407Y-114461942D02*
X166719407Y-113652419D01*
X167195598Y-114652419D02*
X167195598Y-113652419D01*
X167195598Y-113652419D02*
X167576550Y-113652419D01*
X167576550Y-113652419D02*
X167671788Y-113700038D01*
X167671788Y-113700038D02*
X167719407Y-113747657D01*
X167719407Y-113747657D02*
X167767026Y-113842895D01*
X167767026Y-113842895D02*
X167767026Y-113985752D01*
X167767026Y-113985752D02*
X167719407Y-114080990D01*
X167719407Y-114080990D02*
X167671788Y-114128609D01*
X167671788Y-114128609D02*
X167576550Y-114176228D01*
X167576550Y-114176228D02*
X167195598Y-114176228D01*
X166147979Y-109470819D02*
X166147979Y-108470819D01*
X166147979Y-108470819D02*
X166386074Y-108470819D01*
X166386074Y-108470819D02*
X166528931Y-108518438D01*
X166528931Y-108518438D02*
X166624169Y-108613676D01*
X166624169Y-108613676D02*
X166671788Y-108708914D01*
X166671788Y-108708914D02*
X166719407Y-108899390D01*
X166719407Y-108899390D02*
X166719407Y-109042247D01*
X166719407Y-109042247D02*
X166671788Y-109232723D01*
X166671788Y-109232723D02*
X166624169Y-109327961D01*
X166624169Y-109327961D02*
X166528931Y-109423200D01*
X166528931Y-109423200D02*
X166386074Y-109470819D01*
X166386074Y-109470819D02*
X166147979Y-109470819D01*
X167338455Y-108470819D02*
X167528931Y-108470819D01*
X167528931Y-108470819D02*
X167624169Y-108518438D01*
X167624169Y-108518438D02*
X167719407Y-108613676D01*
X167719407Y-108613676D02*
X167767026Y-108804152D01*
X167767026Y-108804152D02*
X167767026Y-109137485D01*
X167767026Y-109137485D02*
X167719407Y-109327961D01*
X167719407Y-109327961D02*
X167624169Y-109423200D01*
X167624169Y-109423200D02*
X167528931Y-109470819D01*
X167528931Y-109470819D02*
X167338455Y-109470819D01*
X167338455Y-109470819D02*
X167243217Y-109423200D01*
X167243217Y-109423200D02*
X167147979Y-109327961D01*
X167147979Y-109327961D02*
X167100360Y-109137485D01*
X167100360Y-109137485D02*
X167100360Y-108804152D01*
X167100360Y-108804152D02*
X167147979Y-108613676D01*
X167147979Y-108613676D02*
X167243217Y-108518438D01*
X167243217Y-108518438D02*
X167338455Y-108470819D01*
X168100360Y-108470819D02*
X168338455Y-109470819D01*
X168338455Y-109470819D02*
X168528931Y-108756533D01*
X168528931Y-108756533D02*
X168719407Y-109470819D01*
X168719407Y-109470819D02*
X168957503Y-108470819D01*
X169338455Y-109470819D02*
X169338455Y-108470819D01*
X169338455Y-108470819D02*
X169909883Y-109470819D01*
X169909883Y-109470819D02*
X169909883Y-108470819D01*
X141751207Y-106981619D02*
X141417874Y-106505428D01*
X141179779Y-106981619D02*
X141179779Y-105981619D01*
X141179779Y-105981619D02*
X141560731Y-105981619D01*
X141560731Y-105981619D02*
X141655969Y-106029238D01*
X141655969Y-106029238D02*
X141703588Y-106076857D01*
X141703588Y-106076857D02*
X141751207Y-106172095D01*
X141751207Y-106172095D02*
X141751207Y-106314952D01*
X141751207Y-106314952D02*
X141703588Y-106410190D01*
X141703588Y-106410190D02*
X141655969Y-106457809D01*
X141655969Y-106457809D02*
X141560731Y-106505428D01*
X141560731Y-106505428D02*
X141179779Y-106505428D01*
X142179779Y-106981619D02*
X142179779Y-105981619D01*
X143179778Y-106029238D02*
X143084540Y-105981619D01*
X143084540Y-105981619D02*
X142941683Y-105981619D01*
X142941683Y-105981619D02*
X142798826Y-106029238D01*
X142798826Y-106029238D02*
X142703588Y-106124476D01*
X142703588Y-106124476D02*
X142655969Y-106219714D01*
X142655969Y-106219714D02*
X142608350Y-106410190D01*
X142608350Y-106410190D02*
X142608350Y-106553047D01*
X142608350Y-106553047D02*
X142655969Y-106743523D01*
X142655969Y-106743523D02*
X142703588Y-106838761D01*
X142703588Y-106838761D02*
X142798826Y-106934000D01*
X142798826Y-106934000D02*
X142941683Y-106981619D01*
X142941683Y-106981619D02*
X143036921Y-106981619D01*
X143036921Y-106981619D02*
X143179778Y-106934000D01*
X143179778Y-106934000D02*
X143227397Y-106886380D01*
X143227397Y-106886380D02*
X143227397Y-106553047D01*
X143227397Y-106553047D02*
X143036921Y-106553047D01*
X143655969Y-106981619D02*
X143655969Y-105981619D01*
X143655969Y-106457809D02*
X144227397Y-106457809D01*
X144227397Y-106981619D02*
X144227397Y-105981619D01*
X144560731Y-105981619D02*
X145132159Y-105981619D01*
X144846445Y-106981619D02*
X144846445Y-105981619D01*
X142560731Y-103816209D02*
X142227398Y-103816209D01*
X142227398Y-104340019D02*
X142227398Y-103340019D01*
X142227398Y-103340019D02*
X142703588Y-103340019D01*
X143084541Y-104340019D02*
X143084541Y-103340019D01*
X144132159Y-104340019D02*
X143798826Y-103863828D01*
X143560731Y-104340019D02*
X143560731Y-103340019D01*
X143560731Y-103340019D02*
X143941683Y-103340019D01*
X143941683Y-103340019D02*
X144036921Y-103387638D01*
X144036921Y-103387638D02*
X144084540Y-103435257D01*
X144084540Y-103435257D02*
X144132159Y-103530495D01*
X144132159Y-103530495D02*
X144132159Y-103673352D01*
X144132159Y-103673352D02*
X144084540Y-103768590D01*
X144084540Y-103768590D02*
X144036921Y-103816209D01*
X144036921Y-103816209D02*
X143941683Y-103863828D01*
X143941683Y-103863828D02*
X143560731Y-103863828D01*
X144560731Y-103816209D02*
X144894064Y-103816209D01*
X145036921Y-104340019D02*
X144560731Y-104340019D01*
X144560731Y-104340019D02*
X144560731Y-103340019D01*
X144560731Y-103340019D02*
X145036921Y-103340019D01*
X142608349Y-101800019D02*
X142132159Y-101800019D01*
X142132159Y-101800019D02*
X142132159Y-100800019D01*
X142941683Y-101276209D02*
X143275016Y-101276209D01*
X143417873Y-101800019D02*
X142941683Y-101800019D01*
X142941683Y-101800019D02*
X142941683Y-100800019D01*
X142941683Y-100800019D02*
X143417873Y-100800019D01*
X144179778Y-101276209D02*
X143846445Y-101276209D01*
X143846445Y-101800019D02*
X143846445Y-100800019D01*
X143846445Y-100800019D02*
X144322635Y-100800019D01*
X144560731Y-100800019D02*
X145132159Y-100800019D01*
X144846445Y-101800019D02*
X144846445Y-100800019D01*
X140928912Y-96669219D02*
X140595579Y-96193028D01*
X140357484Y-96669219D02*
X140357484Y-95669219D01*
X140357484Y-95669219D02*
X140738436Y-95669219D01*
X140738436Y-95669219D02*
X140833674Y-95716838D01*
X140833674Y-95716838D02*
X140881293Y-95764457D01*
X140881293Y-95764457D02*
X140928912Y-95859695D01*
X140928912Y-95859695D02*
X140928912Y-96002552D01*
X140928912Y-96002552D02*
X140881293Y-96097790D01*
X140881293Y-96097790D02*
X140833674Y-96145409D01*
X140833674Y-96145409D02*
X140738436Y-96193028D01*
X140738436Y-96193028D02*
X140357484Y-96193028D01*
X141262246Y-96669219D02*
X141786055Y-96002552D01*
X141262246Y-96002552D02*
X141786055Y-96669219D01*
X140452722Y-93103819D02*
X141024150Y-93103819D01*
X140738436Y-94103819D02*
X140738436Y-93103819D01*
X141262246Y-94103819D02*
X141786055Y-93437152D01*
X141262246Y-93437152D02*
X141786055Y-94103819D01*
D11*
%TO.C,J6*%
X160798800Y-143688531D02*
X161298800Y-143688531D01*
X140023800Y-144582869D02*
X170993800Y-144582869D01*
X170993800Y-144582869D02*
X170993800Y-156922869D01*
X140023800Y-156922869D02*
X140023800Y-144582869D01*
X161048800Y-144121544D02*
X160798800Y-143688531D01*
X161298800Y-143688531D02*
X161048800Y-144121544D01*
%TO.C,J1*%
X145280000Y-94996000D02*
X145280000Y-143316000D01*
X145280000Y-94996000D02*
X147940000Y-94996000D01*
X145280000Y-143316000D02*
X147940000Y-143316000D01*
X146610000Y-92396000D02*
X147940000Y-92396000D01*
X147940000Y-92396000D02*
X147940000Y-93726000D01*
X147940000Y-94996000D02*
X147940000Y-143316000D01*
%TO.C,Q5*%
X161210400Y-122335000D02*
X157610400Y-122335000D01*
X159410400Y-126785000D02*
G75*
G03*
X161248878Y-122346522I0J2600000D01*
G01*
X157571922Y-122346522D02*
G75*
G03*
X159410400Y-126785000I1838478J-1838478D01*
G01*
%TO.C,Q3*%
X153946000Y-122330600D02*
X150346000Y-122330600D01*
X152146000Y-126780600D02*
G75*
G03*
X153984478Y-122342122I0J2600000D01*
G01*
X150307522Y-122342122D02*
G75*
G03*
X152146000Y-126780600I1838478J-1838478D01*
G01*
%TO.C,R2*%
X155194000Y-102508600D02*
X155194000Y-103278600D01*
X156564000Y-103278600D02*
X153824000Y-103278600D01*
X153824000Y-103278600D02*
X153824000Y-109818600D01*
X156564000Y-109818600D02*
X156564000Y-103278600D01*
X153824000Y-109818600D02*
X156564000Y-109818600D01*
X155194000Y-110588600D02*
X155194000Y-109818600D01*
%TO.C,Q1*%
X153844400Y-136164800D02*
X150244400Y-136164800D01*
X152044400Y-140614800D02*
G75*
G03*
X153882878Y-136176322I0J2600000D01*
G01*
X150205922Y-136176322D02*
G75*
G03*
X152044400Y-140614800I1838478J-1838478D01*
G01*
%TO.C,R1*%
X151003000Y-96285600D02*
X151003000Y-97055600D01*
X152373000Y-97055600D02*
X149633000Y-97055600D01*
X149633000Y-97055600D02*
X149633000Y-103595600D01*
X152373000Y-103595600D02*
X152373000Y-97055600D01*
X149633000Y-103595600D02*
X152373000Y-103595600D01*
X151003000Y-104365600D02*
X151003000Y-103595600D01*
%TO.C,R3*%
X151130000Y-108985600D02*
X151130000Y-109755600D01*
X152500000Y-109755600D02*
X149760000Y-109755600D01*
X149760000Y-109755600D02*
X149760000Y-116295600D01*
X152500000Y-116295600D02*
X152500000Y-109755600D01*
X149760000Y-116295600D02*
X152500000Y-116295600D01*
X151130000Y-117065600D02*
X151130000Y-116295600D01*
%TO.C,Q2*%
X157705200Y-129057200D02*
X154105200Y-129057200D01*
X155905200Y-133507200D02*
G75*
G03*
X157743678Y-129068722I0J2600000D01*
G01*
X154066722Y-129068722D02*
G75*
G03*
X155905200Y-133507200I1838478J-1838478D01*
G01*
%TO.C,R4*%
X159639000Y-96158600D02*
X159639000Y-96928600D01*
X161009000Y-96928600D02*
X158269000Y-96928600D01*
X158269000Y-96928600D02*
X158269000Y-103468600D01*
X161009000Y-103468600D02*
X161009000Y-96928600D01*
X158269000Y-103468600D02*
X161009000Y-103468600D01*
X159639000Y-104238600D02*
X159639000Y-103468600D01*
%TO.C,R5*%
X159639000Y-108858600D02*
X159639000Y-109628600D01*
X161009000Y-109628600D02*
X158269000Y-109628600D01*
X158269000Y-109628600D02*
X158269000Y-116168600D01*
X161009000Y-116168600D02*
X161009000Y-109628600D01*
X158269000Y-116168600D02*
X161009000Y-116168600D01*
X159639000Y-116938600D02*
X159639000Y-116168600D01*
%TO.C,Q4*%
X161108800Y-136169200D02*
X157508800Y-136169200D01*
X159308800Y-140619200D02*
G75*
G03*
X161147278Y-136180722I0J2600000D01*
G01*
X157470322Y-136180722D02*
G75*
G03*
X159308800Y-140619200I1838478J-1838478D01*
G01*
%TO.C,J5*%
X141672000Y-94996000D02*
X141672000Y-97596000D01*
X141672000Y-94996000D02*
X144332000Y-94996000D01*
X141672000Y-97596000D02*
X144332000Y-97596000D01*
X143002000Y-92396000D02*
X144332000Y-92396000D01*
X144332000Y-92396000D02*
X144332000Y-93726000D01*
X144332000Y-94996000D02*
X144332000Y-97596000D01*
%TO.C,J2*%
X163060000Y-94996000D02*
X163060000Y-143316000D01*
X163060000Y-94996000D02*
X165720000Y-94996000D01*
X163060000Y-143316000D02*
X165720000Y-143316000D01*
X164390000Y-92396000D02*
X165720000Y-92396000D01*
X165720000Y-92396000D02*
X165720000Y-93726000D01*
X165720000Y-94996000D02*
X165720000Y-143316000D01*
%TD*%
M02*
