M48
; DRILL file {KiCad 7.0.9-7.0.9~ubuntu22.04.1} date Sun 26 Nov 2023 13:03:52
; FORMAT={-:-/ absolute / inch / decimal}
; #@! TF.CreationDate,2023-11-26T13:03:52+11:00
; #@! TF.GenerationSoftware,Kicad,Pcbnew,7.0.9-7.0.9~ubuntu22.04.1
; #@! TF.FileFunction,MixedPlating,1,2
FMAT,2
INCH
; #@! TA.AperFunction,Plated,PTH,ComponentDrill
T1C0.0295
; #@! TA.AperFunction,Plated,PTH,ComponentDrill
T2C0.0315
; #@! TA.AperFunction,Plated,PTH,ComponentDrill
T3C0.0394
; #@! TA.AperFunction,Plated,PTH,ComponentDrill
T4C0.1260
%
G90
G05
T1
X5.936Y-5.4337
X5.94Y-4.889
X5.986Y-5.4337
X5.99Y-4.889
X6.036Y-5.4337
X6.04Y-4.889
X6.088Y-5.1538
X6.138Y-5.1538
X6.188Y-5.1538
X6.222Y-5.4338
X6.226Y-4.8892
X6.272Y-5.4338
X6.276Y-4.8892
X6.322Y-5.4338
X6.326Y-4.8892
T2
X5.945Y-3.7498
X5.945Y-4.1498
X5.95Y-4.2498
X5.95Y-4.6498
X6.11Y-3.9948
X6.11Y-4.3948
X6.285Y-3.7448
X6.285Y-4.1448
X6.285Y-4.2448
X6.285Y-4.6448
T3
X5.63Y-3.69
X5.63Y-3.79
X5.772Y-3.69
X5.772Y-3.79
X5.772Y-3.89
X5.772Y-3.99
X5.772Y-4.09
X5.772Y-4.19
X5.772Y-4.29
X5.772Y-4.39
X5.772Y-4.49
X5.772Y-4.59
X5.772Y-4.69
X5.772Y-4.79
X5.772Y-4.89
X5.772Y-4.99
X5.772Y-5.09
X5.772Y-5.19
X5.772Y-5.29
X5.772Y-5.39
X5.772Y-5.49
X5.772Y-5.59
X5.9043Y-5.7655
X5.9588Y-5.8773
X6.0133Y-5.7655
X6.0679Y-5.8773
X6.1224Y-5.7655
X6.1769Y-5.8773
X6.2314Y-5.7655
X6.286Y-5.8773
X6.3405Y-5.7655
X6.472Y-3.69
X6.472Y-3.79
X6.472Y-3.89
X6.472Y-3.99
X6.472Y-4.09
X6.472Y-4.19
X6.472Y-4.29
X6.472Y-4.39
X6.472Y-4.49
X6.472Y-4.59
X6.472Y-4.69
X6.472Y-4.79
X6.472Y-4.89
X6.472Y-4.99
X6.472Y-5.09
X6.472Y-5.19
X6.472Y-5.29
X6.472Y-5.39
X6.472Y-5.49
X6.472Y-5.59
T4
X5.6303Y-5.8214
X6.6145Y-5.8214
T0
M30
