%TF.GenerationSoftware,KiCad,Pcbnew,7.0.9-7.0.9~ubuntu22.04.1*%
%TF.CreationDate,2023-11-26T13:03:36+11:00*%
%TF.ProjectId,usbcontroller-c64,75736263-6f6e-4747-926f-6c6c65722d63,v02*%
%TF.SameCoordinates,Original*%
%TF.FileFunction,Copper,L1,Top*%
%TF.FilePolarity,Positive*%
%FSLAX46Y46*%
G04 Gerber Fmt 4.6, Leading zero omitted, Abs format (unit mm)*
G04 Created by KiCad (PCBNEW 7.0.9-7.0.9~ubuntu22.04.1) date 2023-11-26 13:03:36*
%MOMM*%
%LPD*%
G01*
G04 APERTURE LIST*
%TA.AperFunction,ComponentPad*%
%ADD10C,4.000000*%
%TD*%
%TA.AperFunction,ComponentPad*%
%ADD11R,1.600000X1.600000*%
%TD*%
%TA.AperFunction,ComponentPad*%
%ADD12C,1.600000*%
%TD*%
%TA.AperFunction,ComponentPad*%
%ADD13R,1.700000X1.700000*%
%TD*%
%TA.AperFunction,ComponentPad*%
%ADD14O,1.700000X1.700000*%
%TD*%
%TA.AperFunction,ComponentPad*%
%ADD15R,1.050000X1.500000*%
%TD*%
%TA.AperFunction,ComponentPad*%
%ADD16O,1.050000X1.500000*%
%TD*%
%TA.AperFunction,ComponentPad*%
%ADD17O,1.600000X1.600000*%
%TD*%
%TA.AperFunction,Conductor*%
%ADD18C,0.250000*%
%TD*%
%TA.AperFunction,Conductor*%
%ADD19C,0.400000*%
%TD*%
G04 APERTURE END LIST*
D10*
%TO.P,J6,0*%
%TO.N,N/C*%
X143008800Y-147862869D03*
X168008800Y-147862869D03*
D11*
%TO.P,J6,1,1*%
%TO.N,/UP*%
X161048800Y-146442869D03*
D12*
%TO.P,J6,2,2*%
%TO.N,/DOWN*%
X158278800Y-146442869D03*
%TO.P,J6,3,3*%
%TO.N,/LEFT*%
X155508800Y-146442869D03*
%TO.P,J6,4,4*%
%TO.N,/RIGHT*%
X152738800Y-146442869D03*
%TO.P,J6,5,5*%
%TO.N,/POTAY*%
X149968800Y-146442869D03*
%TO.P,J6,6,6*%
%TO.N,/FIRE*%
X159663800Y-149282869D03*
%TO.P,J6,7,7*%
%TO.N,/VBUS*%
X156893800Y-149282869D03*
%TO.P,J6,8,8*%
%TO.N,GND*%
X154123800Y-149282869D03*
%TO.P,J6,9,9*%
%TO.N,/POTAX*%
X151353800Y-149282869D03*
%TD*%
D13*
%TO.P,J1,1,Pin_1*%
%TO.N,/TX*%
X146610000Y-93726000D03*
D14*
%TO.P,J1,2,Pin_2*%
%TO.N,/RX*%
X146610000Y-96266000D03*
%TO.P,J1,3,Pin_3*%
%TO.N,unconnected-(J1-Pin_3-Pad3)*%
X146610000Y-98806000D03*
%TO.P,J1,4,Pin_4*%
%TO.N,Net-(J1-Pin_4)*%
X146610000Y-101346000D03*
%TO.P,J1,5,Pin_5*%
%TO.N,Net-(J1-Pin_5)*%
X146610000Y-103886000D03*
%TO.P,J1,6,Pin_6*%
%TO.N,Net-(J1-Pin_6)*%
X146610000Y-106426000D03*
%TO.P,J1,7,Pin_7*%
%TO.N,unconnected-(J1-Pin_7-Pad7)*%
X146610000Y-108966000D03*
%TO.P,J1,8,Pin_8*%
%TO.N,unconnected-(J1-Pin_8-Pad8)*%
X146610000Y-111506000D03*
%TO.P,J1,9,Pin_9*%
%TO.N,unconnected-(J1-Pin_9-Pad9)*%
X146610000Y-114046000D03*
%TO.P,J1,10,Pin_10*%
%TO.N,unconnected-(J1-Pin_10-Pad10)*%
X146610000Y-116586000D03*
%TO.P,J1,11,Pin_11*%
%TO.N,unconnected-(J1-Pin_11-Pad11)*%
X146610000Y-119126000D03*
%TO.P,J1,12,Pin_12*%
%TO.N,unconnected-(J1-Pin_12-Pad12)*%
X146610000Y-121666000D03*
%TO.P,J1,13,Pin_13*%
%TO.N,unconnected-(J1-Pin_13-Pad13)*%
X146610000Y-124206000D03*
%TO.P,J1,14,Pin_14*%
%TO.N,unconnected-(J1-Pin_14-Pad14)*%
X146610000Y-126746000D03*
%TO.P,J1,15,Pin_15*%
%TO.N,unconnected-(J1-Pin_15-Pad15)*%
X146610000Y-129286000D03*
%TO.P,J1,16,Pin_16*%
%TO.N,unconnected-(J1-Pin_16-Pad16)*%
X146610000Y-131826000D03*
%TO.P,J1,17,Pin_17*%
%TO.N,unconnected-(J1-Pin_17-Pad17)*%
X146610000Y-134366000D03*
%TO.P,J1,18,Pin_18*%
%TO.N,unconnected-(J1-Pin_18-Pad18)*%
X146610000Y-136906000D03*
%TO.P,J1,19,Pin_19*%
%TO.N,unconnected-(J1-Pin_19-Pad19)*%
X146610000Y-139446000D03*
%TO.P,J1,20,Pin_20*%
%TO.N,unconnected-(J1-Pin_20-Pad20)*%
X146610000Y-141986000D03*
%TD*%
D15*
%TO.P,Q5,1,E*%
%TO.N,GND*%
X160680400Y-124185000D03*
D16*
%TO.P,Q5,2,B*%
%TO.N,Net-(Q5-B)*%
X159410400Y-124185000D03*
%TO.P,Q5,3,C*%
%TO.N,/UP*%
X158140400Y-124185000D03*
%TD*%
D15*
%TO.P,Q3,1,E*%
%TO.N,GND*%
X153416000Y-124180600D03*
D16*
%TO.P,Q3,2,B*%
%TO.N,Net-(Q3-B)*%
X152146000Y-124180600D03*
%TO.P,Q3,3,C*%
%TO.N,/RIGHT*%
X150876000Y-124180600D03*
%TD*%
D12*
%TO.P,R2,1*%
%TO.N,Net-(J1-Pin_5)*%
X155194000Y-101468600D03*
D17*
%TO.P,R2,2*%
%TO.N,Net-(Q2-B)*%
X155194000Y-111628600D03*
%TD*%
D15*
%TO.P,Q1,1,E*%
%TO.N,GND*%
X153314400Y-138014800D03*
D16*
%TO.P,Q1,2,B*%
%TO.N,Net-(Q1-B)*%
X152044400Y-138014800D03*
%TO.P,Q1,3,C*%
%TO.N,/LEFT*%
X150774400Y-138014800D03*
%TD*%
D12*
%TO.P,R1,1*%
%TO.N,Net-(J1-Pin_4)*%
X151003000Y-95245600D03*
D17*
%TO.P,R1,2*%
%TO.N,Net-(Q1-B)*%
X151003000Y-105405600D03*
%TD*%
D12*
%TO.P,R3,1*%
%TO.N,Net-(J1-Pin_6)*%
X151130000Y-107945600D03*
D17*
%TO.P,R3,2*%
%TO.N,Net-(Q3-B)*%
X151130000Y-118105600D03*
%TD*%
D15*
%TO.P,Q2,1,E*%
%TO.N,GND*%
X157175200Y-130907200D03*
D16*
%TO.P,Q2,2,B*%
%TO.N,Net-(Q2-B)*%
X155905200Y-130907200D03*
%TO.P,Q2,3,C*%
%TO.N,/FIRE*%
X154635200Y-130907200D03*
%TD*%
D12*
%TO.P,R4,1*%
%TO.N,Net-(J2-Pin_7)*%
X159639000Y-95118600D03*
D17*
%TO.P,R4,2*%
%TO.N,Net-(Q4-B)*%
X159639000Y-105278600D03*
%TD*%
D12*
%TO.P,R5,1*%
%TO.N,Net-(J2-Pin_9)*%
X159639000Y-107818600D03*
D17*
%TO.P,R5,2*%
%TO.N,Net-(Q5-B)*%
X159639000Y-117978600D03*
%TD*%
D15*
%TO.P,Q4,1,E*%
%TO.N,GND*%
X160578800Y-138019200D03*
D16*
%TO.P,Q4,2,B*%
%TO.N,Net-(Q4-B)*%
X159308800Y-138019200D03*
%TO.P,Q4,3,C*%
%TO.N,/DOWN*%
X158038800Y-138019200D03*
%TD*%
D13*
%TO.P,J5,1,Pin_1*%
%TO.N,/TX*%
X143002000Y-93726000D03*
D14*
%TO.P,J5,2,Pin_2*%
%TO.N,/RX*%
X143002000Y-96266000D03*
%TD*%
D13*
%TO.P,J2,1,Pin_1*%
%TO.N,/VBUS*%
X164390000Y-93726000D03*
D14*
%TO.P,J2,2,Pin_2*%
%TO.N,unconnected-(J2-Pin_2-Pad2)*%
X164390000Y-96266000D03*
%TO.P,J2,3,Pin_3*%
%TO.N,GND*%
X164390000Y-98806000D03*
%TO.P,J2,4,Pin_4*%
%TO.N,unconnected-(J2-Pin_4-Pad4)*%
X164390000Y-101346000D03*
%TO.P,J2,5,Pin_5*%
%TO.N,unconnected-(J2-Pin_5-Pad5)*%
X164390000Y-103886000D03*
%TO.P,J2,6,Pin_6*%
%TO.N,unconnected-(J2-Pin_6-Pad6)*%
X164390000Y-106426000D03*
%TO.P,J2,7,Pin_7*%
%TO.N,Net-(J2-Pin_7)*%
X164390000Y-108966000D03*
%TO.P,J2,8,Pin_8*%
%TO.N,unconnected-(J2-Pin_8-Pad8)*%
X164390000Y-111506000D03*
%TO.P,J2,9,Pin_9*%
%TO.N,Net-(J2-Pin_9)*%
X164390000Y-114046000D03*
%TO.P,J2,10,Pin_10*%
%TO.N,unconnected-(J2-Pin_10-Pad10)*%
X164390000Y-116586000D03*
%TO.P,J2,11,Pin_11*%
%TO.N,unconnected-(J2-Pin_11-Pad11)*%
X164390000Y-119126000D03*
%TO.P,J2,12,Pin_12*%
%TO.N,unconnected-(J2-Pin_12-Pad12)*%
X164390000Y-121666000D03*
%TO.P,J2,13,Pin_13*%
%TO.N,unconnected-(J2-Pin_13-Pad13)*%
X164390000Y-124206000D03*
%TO.P,J2,14,Pin_14*%
%TO.N,unconnected-(J2-Pin_14-Pad14)*%
X164390000Y-126746000D03*
%TO.P,J2,15,Pin_15*%
%TO.N,unconnected-(J2-Pin_15-Pad15)*%
X164390000Y-129286000D03*
%TO.P,J2,16,Pin_16*%
%TO.N,unconnected-(J2-Pin_16-Pad16)*%
X164390000Y-131826000D03*
%TO.P,J2,17,Pin_17*%
%TO.N,unconnected-(J2-Pin_17-Pad17)*%
X164390000Y-134366000D03*
%TO.P,J2,18,Pin_18*%
%TO.N,unconnected-(J2-Pin_18-Pad18)*%
X164390000Y-136906000D03*
%TO.P,J2,19,Pin_19*%
%TO.N,unconnected-(J2-Pin_19-Pad19)*%
X164390000Y-139446000D03*
%TO.P,J2,20,Pin_20*%
%TO.N,unconnected-(J2-Pin_20-Pad20)*%
X164390000Y-141986000D03*
%TD*%
D18*
%TO.N,/RX*%
X146610000Y-96266000D02*
X143002000Y-96266000D01*
%TO.N,/TX*%
X146610000Y-93726000D02*
X143002000Y-93726000D01*
%TO.N,Net-(Q1-B)*%
X152044400Y-138014800D02*
X152044400Y-127990600D01*
X152044400Y-127990600D02*
X154266000Y-125769000D01*
X154266000Y-125769000D02*
X154266000Y-113956200D01*
X153085800Y-107488400D02*
X151003000Y-105405600D01*
X154266000Y-113956200D02*
X153085800Y-112776000D01*
X153085800Y-112776000D02*
X153085800Y-107488400D01*
%TO.N,Net-(Q4-B)*%
X159308800Y-138019200D02*
X159308800Y-128879600D01*
X159308800Y-128879600D02*
X157200600Y-126771400D01*
X158729000Y-105278600D02*
X159639000Y-105278600D01*
X157200600Y-126771400D02*
X157200600Y-106807000D01*
X157200600Y-106807000D02*
X158729000Y-105278600D01*
%TO.N,Net-(J1-Pin_5)*%
X146610000Y-103886000D02*
X147880000Y-102616000D01*
X147880000Y-102616000D02*
X154046600Y-102616000D01*
X154046600Y-102616000D02*
X155194000Y-101468600D01*
%TO.N,/RIGHT*%
X150876000Y-124180600D02*
X149098000Y-125958600D01*
X149098000Y-125958600D02*
X149098000Y-142802069D01*
X149098000Y-142802069D02*
X152738800Y-146442869D01*
%TO.N,/FIRE*%
X154635200Y-130907200D02*
X154635200Y-142875000D01*
X154635200Y-142875000D02*
X156895800Y-145135600D01*
X156895800Y-145135600D02*
X156895800Y-147116800D01*
X156895800Y-147116800D02*
X159061869Y-149282869D01*
X159061869Y-149282869D02*
X159663800Y-149282869D01*
%TO.N,/LEFT*%
X150774400Y-138014800D02*
X150774400Y-141708469D01*
X150774400Y-141708469D02*
X155508800Y-146442869D01*
%TO.N,/DOWN*%
X158038800Y-138019200D02*
X158038800Y-146202869D01*
X158038800Y-146202869D02*
X158278800Y-146442869D01*
%TO.N,/UP*%
X158140400Y-124185000D02*
X158140400Y-124975686D01*
X158140400Y-124975686D02*
X161428800Y-128264086D01*
X161428800Y-128264086D02*
X161428800Y-146062869D01*
X161428800Y-146062869D02*
X161048800Y-146442869D01*
%TO.N,Net-(Q2-B)*%
X155905200Y-130907200D02*
X155905200Y-112339800D01*
X155905200Y-112339800D02*
X155194000Y-111628600D01*
%TO.N,Net-(Q5-B)*%
X159639000Y-117978600D02*
X159639000Y-123956400D01*
X159639000Y-123956400D02*
X159410400Y-124185000D01*
%TO.N,Net-(Q3-B)*%
X151130000Y-118105600D02*
X152146000Y-119121600D01*
X152146000Y-119121600D02*
X152146000Y-124180600D01*
%TO.N,/FIRE*%
X158960269Y-149282869D02*
X159663800Y-149282869D01*
D19*
%TO.N,/VBUS*%
X156893800Y-149282869D02*
X158639331Y-151028400D01*
X167055800Y-144627600D02*
X167055800Y-96391800D01*
X158639331Y-151028400D02*
X160655000Y-151028400D01*
X160655000Y-151028400D02*
X167055800Y-144627600D01*
X167055800Y-96391800D02*
X164390000Y-93726000D01*
D18*
%TO.N,Net-(J2-Pin_7)*%
X159639000Y-95118600D02*
X162509200Y-97988800D01*
X162509200Y-97988800D02*
X162509200Y-107085200D01*
X162509200Y-107085200D02*
X164390000Y-108966000D01*
%TO.N,Net-(J2-Pin_9)*%
X159639000Y-107818600D02*
X159639000Y-109295000D01*
X159639000Y-109295000D02*
X164390000Y-114046000D01*
%TO.N,Net-(J1-Pin_6)*%
X146610000Y-106426000D02*
X149610400Y-106426000D01*
X149610400Y-106426000D02*
X151130000Y-107945600D01*
%TO.N,Net-(J1-Pin_4)*%
X146610000Y-101346000D02*
X151003000Y-96953000D01*
X151003000Y-96953000D02*
X151003000Y-95245600D01*
%TD*%
M02*
